<?xml version="1.0"?>
<svg width="24" height="24" xmlns="http://www.w3.org/2000/svg" xmlns:svg="http://www.w3.org/2000/svg" data-name="Layer 1">
 <g class="layer">
  <title _mstHash="360" _mstTextHash="48906">Capa 1</title>
  <path d="m24,23a1,1 0 0 1 -1,1l-22,0a1,1 0 0 1 0,-2l22,0a1,1 0 0 1 1,1zm-23.71,-14.45a2.44,2.44 0 0 1 0.15,-2.56a4.72,4.72 0 0 1 1.67,-1.5l7.5,-3.91a5.17,5.17 0 0 1 4.78,0l7.5,3.91a4.72,4.72 0 0 1 1.66,1.5a2.44,2.44 0 0 1 0.16,2.56a2.71,2.71 0 0 1 -2.42,1.45l-0.29,0l0,8l1,0a1,1 0 0 1 0,2l-20,0a1,1 0 0 1 0,-2l1,0l0,-8l-0.29,0a2.71,2.71 0 0 1 -2.42,-1.45zm4.71,9.45l3,0l0,-8l-3,0l0,8zm5,-8l0,8l4,0l0,-8l-4,0zm9,0l-3,0l0,8l3,0l0,-8zm-16.94,-2.37a0.72,0.72 0 0 0 0.65,0.37l18.58,0a0.72,0.72 0 0 0 0.65,-0.37a0.45,0.45 0 0 0 -0.03,-0.5a2.7,2.7 0 0 0 -0.95,-0.87l-7.5,-3.91a3.18,3.18 0 0 0 -2.92,0l-7.5,3.91a2.71,2.71 0 0 0 -0.95,0.87a0.45,0.45 0 0 0 -0.03,0.5z" fill="#ffffff" id="svg_1" stroke="#ffffff"/>
 </g>
</svg>