<?xml version="1.0"?>
<svg width="24" height="24" xmlns="http://www.w3.org/2000/svg" xmlns:svg="http://www.w3.org/2000/svg" data-name="Layer 1">
 <g class="layer">
  <title _mstHash="360" _mstTextHash="48906">Capa 1</title>
  <path d="m12,16c-2.21,0 -4,-1.79 -4,-4s1.79,-4 4,-4s4,1.79 4,4s-1.79,4 -4,4zm0,-6c-1.1,0 -2,0.9 -2,2s0.9,2 2,2s2,-0.9 2,-2s-0.9,-2 -2,-2zm-7,-3c-0.55,0 -1,0.45 -1,1s0.45,1 1,1s1,-0.45 1,-1s-0.45,-1 -1,-1zm13,3c0,0.55 0.45,1 1,1s1,-0.45 1,-1s-0.45,-1 -1,-1s-1,0.45 -1,1zm-13,3c-0.55,0 -1,0.45 -1,1s0.45,1 1,1s1,-0.45 1,-1s-0.45,-1 -1,-1zm13,3c0,0.55 0.45,1 1,1s1,-0.45 1,-1s-0.45,-1 -1,-1s-1,0.45 -1,1zm-1,5c-1.64,0 -3.1,-0.4 -4.51,-0.79c-1.35,-0.36 -2.62,-0.71 -3.99,-0.71c-1.57,0 -2.56,0.1 -3.42,0.35c-1.21,0.35 -2.47,0.11 -3.48,-0.64c-1.02,-0.77 -1.6,-1.94 -1.6,-3.21l0,-7.55c0,-2.06 1.3,-3.94 3.23,-4.68c1.34,-0.51 2.61,-0.77 3.77,-0.77c1.64,0 3.1,0.4 4.51,0.79c1.35,0.36 2.62,0.71 3.99,0.71c1.57,0 2.56,-0.1 3.42,-0.35c1.21,-0.35 2.48,-0.11 3.48,0.64c1.02,0.77 1.6,1.94 1.6,3.21l0,7.55l0,0c0,2.06 -1.3,3.94 -3.23,4.68c-1.34,0.51 -2.61,0.77 -3.77,0.77zm-8.5,-3.5c1.63,0 3.1,0.4 4.51,0.79c1.35,0.36 2.62,0.71 3.99,0.71c0.91,0 1.94,-0.21 3.05,-0.64c1.19,-0.45 1.95,-1.55 1.95,-2.81l0,-7.55c0,-0.64 -0.29,-1.22 -0.8,-1.61c-0.5,-0.37 -1.13,-0.49 -1.73,-0.32c-1.05,0.31 -2.2,0.43 -3.97,0.43c-1.64,0 -3.1,-0.4 -4.51,-0.79c-1.35,-0.36 -2.62,-0.71 -3.99,-0.71c-0.92,0 -1.94,0.21 -3.06,0.64c-1.18,0.45 -1.94,1.55 -1.94,2.81l0,7.55c0,0.64 0.29,1.22 0.8,1.61c0.5,0.37 1.13,0.49 1.72,0.32c1.06,-0.31 2.21,-0.43 3.98,-0.43z" fill="#ffffff" id="svg_1" stroke="#ffffff"/>
 </g>
</svg>