<svg width="40" height="41" viewBox="0 0 40 41" fill="none" xmlns="http://www.w3.org/2000/svg">
<rect y="0.5" width="40" height="40" rx="10" fill="#FFECD4"/>
<path d="M12.3916 10.7688C8.8358 13.3522 7.05792 14.6439 6.35965 16.5519C6.30363 16.705 6.25325 16.86 6.2086 17.0168C5.65201 18.9708 6.3311 21.0609 7.68927 25.2409C9.04745 29.4209 9.72654 31.511 11.3254 32.7647C11.4537 32.8653 11.5856 32.9611 11.7209 33.052C12.2897 33.4342 12.9167 33.6875 13.6667 33.8554V29.2409C13.6667 25.7431 16.5022 22.9076 20 22.9076C23.4978 22.9076 26.3333 25.7431 26.3333 29.2409V33.8554C27.0833 33.6876 27.7103 33.4342 28.2792 33.052C28.4144 32.9611 28.5464 32.8653 28.6746 32.7647C30.2735 31.511 30.9526 29.4209 32.3107 25.2409C33.6689 21.0609 34.348 18.9708 33.7914 17.0168C33.7468 16.86 33.6964 16.705 33.6404 16.5519C32.9421 14.6439 31.1642 13.3522 27.6085 10.7688C24.0527 8.18538 22.2748 6.89366 20.2444 6.81918C20.0815 6.8132 19.9185 6.8132 19.7556 6.81918C17.7252 6.89366 15.9473 8.18537 12.3916 10.7688Z" fill="#FAA538"/>
<path d="M24.3333 34.1123V29.2409C24.3333 26.8477 22.3932 24.9076 20 24.9076C17.6068 24.9076 15.6667 26.8477 15.6667 29.2409V34.1123C16.8306 34.1852 18.2389 34.1852 20 34.1852C21.7611 34.1852 23.1694 34.1852 24.3333 34.1123Z" fill="#FAA538"/>
</svg>
