<svg width="40" height="41" viewBox="0 0 40 41" fill="none" xmlns="http://www.w3.org/2000/svg">
<rect y="0.5" width="40" height="40" rx="10" fill="#FFECD4"/>
<path d="M22 6.5C22 5.96957 21.7893 5.46086 21.4142 5.08579C21.0391 4.71071 20.5304 4.5 20 4.5C19.4696 4.5 18.9609 4.71071 18.5858 5.08579C18.2107 5.46086 18 5.96957 18 6.5V8.5C18 9.03043 18.2107 9.53914 18.5858 9.91421C18.9609 10.2893 19.4696 10.5 20 10.5C20.5304 10.5 21.0391 10.2893 21.4142 9.91421C21.7893 9.53914 22 9.03043 22 8.5V6.5ZM31.314 12.014C31.6783 11.6368 31.8799 11.1316 31.8753 10.6072C31.8708 10.0828 31.6605 9.58118 31.2896 9.21036C30.9188 8.83955 30.4172 8.62921 29.8928 8.62465C29.3684 8.6201 28.8632 8.82168 28.486 9.186L27.072 10.6C26.7077 10.9772 26.5061 11.4824 26.5107 12.0068C26.5152 12.5312 26.7255 13.0328 27.0964 13.4036C27.4672 13.7745 27.9688 13.9848 28.4932 13.9893C29.0176 13.9939 29.5228 13.7923 29.9 13.428L31.314 12.014ZM36 20.5C36 21.0304 35.7893 21.5391 35.4142 21.9142C35.0391 22.2893 34.5304 22.5 34 22.5H32C31.4696 22.5 30.9609 22.2893 30.5858 21.9142C30.2107 21.5391 30 21.0304 30 20.5C30 19.9696 30.2107 19.4609 30.5858 19.0858C30.9609 18.7107 31.4696 18.5 32 18.5H34C34.5304 18.5 35.0391 18.7107 35.4142 19.0858C35.7893 19.4609 36 19.9696 36 20.5ZM10.1 13.428C10.2845 13.619 10.5052 13.7714 10.7492 13.8762C10.9932 13.981 11.2556 14.0362 11.5212 14.0385C11.7868 14.0408 12.0501 13.9902 12.2959 13.8896C12.5417 13.7891 12.765 13.6406 12.9528 13.4528C13.1406 13.265 13.2891 13.0417 13.3896 12.7959C13.4902 12.5501 13.5408 12.2868 13.5385 12.0212C13.5362 11.7556 13.481 11.4932 13.3762 11.2492C13.2714 11.0052 13.119 10.7845 12.928 10.6L11.514 9.186C11.1368 8.82168 10.6316 8.6201 10.1072 8.62465C9.5828 8.62921 9.08118 8.83955 8.71036 9.21036C8.33955 9.58118 8.12921 10.0828 8.12465 10.6072C8.1201 11.1316 8.32168 11.6368 8.686 12.014L10.1 13.428ZM10 20.5C10 21.0304 9.78929 21.5391 9.41421 21.9142C9.03914 22.2893 8.53043 22.5 8 22.5H6C5.46957 22.5 4.96086 22.2893 4.58579 21.9142C4.21071 21.5391 4 21.0304 4 20.5C4 19.9696 4.21071 19.4609 4.58579 19.0858C4.96086 18.7107 5.46957 18.5 6 18.5H8C8.53043 18.5 9.03914 18.7107 9.41421 19.0858C9.78929 19.4609 10 19.9696 10 20.5ZM16 32.5V30.5H24V32.5C24 33.5609 23.5786 34.5783 22.8284 35.3284C22.0783 36.0786 21.0609 36.5 20 36.5C18.9391 36.5 17.9217 36.0786 17.1716 35.3284C16.4214 34.5783 16 33.5609 16 32.5ZM24 28.5C24.03 27.82 24.416 27.208 24.954 26.782C26.2594 25.7525 27.2116 24.3419 27.6783 22.7463C28.145 21.1507 28.103 19.4493 27.5582 17.8787C27.0134 16.308 25.9927 14.9461 24.6382 13.9822C23.2836 13.0184 21.6625 12.5004 20 12.5004C18.3375 12.5004 16.7164 13.0184 15.3618 13.9822C14.0073 14.9461 12.9866 16.308 12.4418 17.8787C11.897 19.4493 11.855 21.1507 12.3217 22.7463C12.7884 24.3419 13.7406 25.7525 15.046 26.782C15.586 27.208 15.97 27.82 15.998 28.5H24Z" fill="#FAA538"/>
</svg>
