<svg width="40" height="41" viewBox="0 0 40 41" fill="none" xmlns="http://www.w3.org/2000/svg">
<rect y="0.5" width="40" height="40" rx="10" fill="#FFECD4"/>
<path fill-rule="evenodd" clip-rule="evenodd" d="M14.036 8.04265C15.7026 7.61326 17.4554 7.65295 19.1008 8.15734C20.7462 8.66173 22.2202 9.61117 23.3598 10.9008C24.4994 12.1904 25.2603 13.7699 25.5585 15.4649C25.8567 17.1598 25.6804 18.9042 25.0493 20.5053L31.1813 25.696C31.6464 26.089 32.0248 26.5743 32.2927 27.1211C32.5605 27.6679 32.712 28.2643 32.7374 28.8727C32.7629 29.481 32.6618 30.088 32.4406 30.6553C32.2194 31.2226 31.8828 31.7378 31.4522 32.1683C31.0216 32.5988 30.5064 32.9352 29.939 33.1563C29.3717 33.3774 28.7647 33.4784 28.1563 33.4528C27.548 33.4272 26.9516 33.2756 26.4048 33.0076C25.8581 32.7397 25.3729 32.3611 24.98 31.896L19.792 25.7666C18.1907 26.3988 16.4458 26.5758 14.7502 26.2781C13.0546 25.9804 11.4743 25.2196 10.1841 24.0798C8.89391 22.9401 7.94404 21.4657 7.43952 19.8197C6.935 18.1738 6.89548 16.4203 7.32533 14.7533C7.38594 14.5191 7.50853 14.3055 7.68022 14.135C7.85191 13.9646 8.06635 13.8435 8.30101 13.7846C8.53567 13.7256 8.78187 13.731 9.01374 13.8001C9.2456 13.8692 9.45457 13.9995 9.61866 14.1773L13.6787 18.5866L16.7413 17.46L17.8707 14.3933L13.4587 10.34C13.2798 10.1759 13.1486 9.96661 13.0789 9.73414C13.0092 9.50166 13.0037 9.25467 13.0628 9.0193C13.122 8.78392 13.2437 8.56891 13.415 8.39699C13.5863 8.22507 13.8008 8.10264 14.036 8.04265Z" fill="#FFA629"/>
</svg>
