<svg width="40" height="41" viewBox="0 0 40 41" fill="none" xmlns="http://www.w3.org/2000/svg">
<rect y="0.5" width="40" height="40" rx="10" fill="#EADFF4"/>
<path d="M16.64 9.12498C14.3819 8.04686 11.2256 7.51873 7 7.49998C6.60148 7.49457 6.21078 7.61078 5.88 7.83311C5.6085 8.01663 5.38624 8.26405 5.2328 8.55362C5.07935 8.84319 4.99941 9.16602 5 9.49373V27.375C5 28.5837 5.86 29.4956 7 29.4956C11.4419 29.4956 15.8975 29.9106 18.5663 32.4331C18.6028 32.4678 18.6486 32.4909 18.6982 32.4998C18.7478 32.5086 18.7988 32.5026 18.8451 32.4826C18.8913 32.4626 18.9306 32.4295 18.9581 32.3874C18.9857 32.3453 19.0002 32.296 19 32.2456V11.1762C19.0001 11.0341 18.9696 10.8936 18.9108 10.7642C18.8519 10.6348 18.766 10.5196 18.6588 10.4262C18.0474 9.90363 17.3684 9.46593 16.64 9.12498ZM34.12 7.83123C33.7891 7.60946 33.3983 7.4939 33 7.49998C28.7744 7.51873 25.6181 8.04436 23.36 9.12498C22.6316 9.46531 21.9524 9.90215 21.3406 10.4237C21.2336 10.5172 21.1479 10.6325 21.0891 10.7619C21.0304 10.8912 21 11.0317 21 11.1737V32.2444C21 32.2927 21.0142 32.34 21.041 32.3804C21.0677 32.4207 21.1058 32.4522 21.1504 32.4709C21.195 32.4897 21.2441 32.4949 21.2916 32.4858C21.3392 32.4767 21.3829 32.4538 21.4175 32.42C23.0219 30.8262 25.8375 29.4937 33.0025 29.4944C33.5329 29.4944 34.0416 29.2836 34.4167 28.9086C34.7918 28.5335 35.0025 28.0248 35.0025 27.4944V9.49436C35.0032 9.166 34.9231 8.84251 34.7692 8.55246C34.6153 8.2624 34.3923 8.0147 34.12 7.83123Z" fill="#693596"/>
</svg>
