<svg width="40" height="41" viewBox="0 0 40 41" fill="none" xmlns="http://www.w3.org/2000/svg">
<rect y="0.5" width="40" height="40" rx="10" fill="#E4E7FC"/>
<path d="M32 14.0333C31.5949 13.8509 31.1451 13.7916 30.7066 13.8627C30.268 13.9338 29.8601 14.1322 29.5334 14.4333L26.6667 17.1V15.1666C26.6667 14.1058 26.2453 13.0883 25.4951 12.3382C24.745 11.5881 23.7276 11.1666 22.6667 11.1666H10.6667C9.60582 11.1666 8.58841 11.5881 7.83826 12.3382C7.08811 13.0883 6.66669 14.1058 6.66669 15.1666V25.8333C6.66669 26.8942 7.08811 27.9116 7.83826 28.6617C8.58841 29.4119 9.60582 29.8333 10.6667 29.8333H22.6667C23.7276 29.8333 24.745 29.4119 25.4951 28.6617C26.2453 27.9116 26.6667 26.8942 26.6667 25.8333V23.9L29.5467 26.5666C29.9707 26.9504 30.5215 27.1641 31.0934 27.1666C31.4106 27.1651 31.7241 27.0969 32.0134 26.9666C32.4066 26.8075 32.7435 26.5348 32.981 26.1833C33.2185 25.8318 33.3458 25.4175 33.3467 24.9933V16.0066C33.3448 15.5809 33.2155 15.1654 32.9755 14.8138C32.7355 14.4621 32.3958 14.1903 32 14.0333Z" fill="#253FE4"/>
</svg>
