<svg width="40" height="41" viewBox="0 0 40 41" fill="none" xmlns="http://www.w3.org/2000/svg">
<rect y="0.5" width="40" height="40" rx="10" fill="#E4E7FC"/>
<path fill-rule="evenodd" clip-rule="evenodd" d="M16.5714 8.34463C16.4716 8.37247 16.3811 8.42696 16.3099 8.50226C16.2386 8.57755 16.1892 8.67081 16.1668 8.77206L14.6034 15.8578C14.5825 15.9539 14.5868 16.0538 14.6159 16.1478C14.6449 16.2418 14.6978 16.3267 14.7693 16.3943C14.8408 16.4619 14.9285 16.5099 15.024 16.5336C15.1195 16.5573 15.2195 16.556 15.3143 16.5298L20.6537 15.0601C20.754 15.0326 20.8449 14.9782 20.9166 14.9029C20.9883 14.8276 21.0381 14.7342 21.0606 14.6326L22.624 7.54692C22.6453 7.45061 22.6414 7.35042 22.6126 7.25609C22.5837 7.16176 22.5309 7.0765 22.4594 7.00862C22.3878 6.94073 22.2999 6.89253 22.2042 6.8687C22.1084 6.84487 22.0082 6.84622 21.9131 6.87263L16.5714 8.34463ZM12.2126 9.54692C12.3075 9.521 12.4074 9.52002 12.5028 9.54407C12.5982 9.56812 12.6858 9.61639 12.757 9.68421C12.8283 9.75202 12.8808 9.83708 12.9096 9.93116C12.9383 10.0252 12.9423 10.1251 12.9211 10.2212L11.36 17.3069C11.3371 17.408 11.2872 17.501 11.2155 17.5759C11.1438 17.6508 11.0531 17.7048 10.9531 17.7321L8.45028 18.4223H30.2857C31.195 18.4223 32.0671 18.7836 32.7101 19.4265C33.3531 20.0695 33.7143 20.9416 33.7143 21.8509V30.1686C33.7143 31.6842 33.1122 33.1376 32.0406 34.2092C30.969 35.2809 29.5155 35.8829 28 35.8829H12C10.4845 35.8829 9.03102 35.2809 7.95938 34.2092C6.88774 33.1376 6.28571 31.6842 6.28571 30.1686V18.5801C6.26175 18.5365 6.24259 18.4906 6.22856 18.4429L5.27313 15.0303C5.1516 14.5957 5.11708 14.1413 5.17154 13.6933C5.226 13.2453 5.36838 12.8125 5.59051 12.4196C5.81264 12.0267 6.11014 11.6816 6.46596 11.404C6.82178 11.1263 7.22891 10.9217 7.66399 10.8018L12.2126 9.54692ZM25.0149 13.8578L30.6126 12.3149C30.9025 12.2349 31.1737 12.0984 31.4108 11.9133C31.6479 11.7283 31.8461 11.4983 31.9941 11.2364C32.1421 10.9746 32.237 10.6862 32.2733 10.3876C32.3096 10.0891 32.2866 9.78629 32.2057 9.49663L31.7097 7.71606C31.4654 6.84209 30.8845 6.10063 30.0945 5.65418C29.3044 5.20774 28.3696 5.09272 27.4949 5.33435L26.2743 5.67263C26.174 5.70011 26.0831 5.75444 26.0114 5.82976C25.9397 5.90508 25.8899 5.99854 25.8674 6.10006L24.3063 13.1835C24.2851 13.2796 24.2891 13.3795 24.3178 13.4735C24.3466 13.5676 24.3991 13.6527 24.4704 13.7205C24.5416 13.7883 24.6292 13.8366 24.7246 13.8606C24.82 13.8847 24.92 13.8837 25.0149 13.8578ZM13.1428 27.6429C12.764 27.6429 12.4006 27.7934 12.1327 28.0613C11.8648 28.3292 11.7143 28.6926 11.7143 29.0715C11.7143 29.4504 11.8648 29.8137 12.1327 30.0816C12.4006 30.3495 12.764 30.5001 13.1428 30.5001H16.5714C16.9503 30.5001 17.3137 30.3495 17.5816 30.0816C17.8495 29.8137 18 29.4504 18 29.0715C18 28.6926 17.8495 28.3292 17.5816 28.0613C17.3137 27.7934 16.9503 27.6429 16.5714 27.6429H13.1428Z" fill="#253FE4"/>
</svg>
