<svg width="40" height="41" viewBox="0 0 40 41" fill="none" xmlns="http://www.w3.org/2000/svg">
<rect y="0.5" width="40" height="40" rx="10" fill="#FFECD4"/>
<path d="M23.628 34.7133C29.5574 33.2066 34.044 28.0853 34.6067 21.8333H27.9654C27.7174 26.5626 26.1574 30.9626 23.628 34.7133ZM34.6067 19.1666C34.044 12.9133 29.5534 7.79062 23.6227 6.28396C26.1534 10.036 27.716 14.436 27.9654 19.1666H34.6067ZM16.3787 6.28396C10.4454 7.79062 5.95736 12.9133 5.39203 19.1666H12.0347C12.284 14.436 13.8467 10.036 16.3787 6.28396ZM5.39336 21.8333C5.67028 24.8507 6.87416 27.7086 8.8398 30.0146C10.8054 32.3207 13.4365 33.962 16.372 34.7133C13.8427 30.9626 12.2827 26.5626 12.0347 21.8333H5.39336ZM20 35.116C16.924 31.4026 14.9974 26.8213 14.7067 21.8333H25.2947C25.0014 26.82 23.076 31.4026 20.0014 35.116M20 5.89062C23.076 9.60262 25 14.1826 25.2934 19.1666H14.7067C15 14.1826 16.9254 9.60262 20 5.89062Z" fill="#FFA629"/>
</svg>
