<svg width="40" height="41" viewBox="0 0 40 41" fill="none" xmlns="http://www.w3.org/2000/svg">
<rect y="0.5" width="40" height="40" rx="10" fill="#FED1E6"/>
<path d="M26.2667 24.8667L29.8 21.3C30.5111 20.5889 31.0556 19.7778 31.4333 18.8667C31.8111 17.9556 32 17 32 16C32 13.9111 31.2724 12.1387 29.8173 10.6827C28.3622 9.22667 26.5898 8.49911 24.5 8.5C23.5 8.5 22.5444 8.68889 21.6333 9.06667C20.7222 9.44445 19.9111 9.98889 19.2 10.7L15.6333 14.2333L26.2667 24.8667ZM15.5 32.5C16.5 32.5 17.4556 32.3111 18.3667 31.9333C19.2778 31.5556 20.0889 31.0111 20.8 30.3L24.3667 26.7667L13.7333 16.1333L10.2 19.7C9.48889 20.4111 8.94444 21.2222 8.56667 22.1333C8.18889 23.0444 8 24 8 25C8 27.0889 8.728 28.8609 10.184 30.316C11.64 31.7711 13.412 32.4991 15.5 32.5Z" fill="#FA288A"/>
</svg>
