<?xml version="1.0"?>
<svg width="24" height="24" xmlns="http://www.w3.org/2000/svg" xmlns:svg="http://www.w3.org/2000/svg" data-name="Layer 1">
 <g class="layer">
  <title _mstHash="358" _mstTextHash="48906">Capa 1</title>
  <path d="m21,6l-16,0c-0.86,0 -1.67,-0.37 -2.23,-1c0.55,-0.61 1.34,-1 2.23,-1l18,0c0.55,0 1,-0.45 1,-1s-0.45,-1 -1,-1l-18,0c-2.76,0 -5,2.24 -5,5l0,10c0,2.76 2.24,5 5,5l16,0c1.66,0 3,-1.34 3,-3l0,-10c0,-1.66 -1.34,-3 -3,-3zm1,13c0,0.55 -0.45,1 -1,1l-16,0c-1.65,0 -3,-1.35 -3,-3l0,-10c0.85,0.64 1.9,1 3,1l16,0c0.55,0 1,0.45 1,1l0,10zm-2,-5c0,0.55 -0.45,1 -1,1s-1,-0.45 -1,-1s0.45,-1 1,-1s1,0.45 1,1z" fill="#ffffff" id="svg_1" stroke="#ffffff"/>
 </g>
</svg>