<svg width="327" height="165" viewBox="0 0 327 165" fill="none" xmlns="http://www.w3.org/2000/svg">
<rect width="327" height="165" rx="24" fill="#2F2762"/>
<path d="M276.226 62.1723C276.226 62.1723 298.114 73.2912 303.302 92.1204C308.491 110.949 295.752 130.813 295.752 130.813C295.752 130.813 274.6 120.149 269.41 101.32C264.221 82.4915 276.226 62.1723 276.226 62.1723" fill="#EE1E5F"/>
<path d="M194.026 90.5088C194.026 90.5088 196.254 66.0603 211.826 54.2713C227.397 42.4823 250.565 46.9652 250.565 46.9652C250.565 46.9652 248.487 70.5621 232.916 82.3518C217.345 94.1408 194.026 90.5088 194.026 90.5088" fill="#47B6D4"/>
<path d="M285 35.5C285 43.5081 278.508 50 270.5 50C262.492 50 256 43.5081 256 35.5C256 27.4919 262.492 21 270.5 21C278.508 21 285 27.4919 285 35.5Z" fill="#FAB512"/>
<path d="M256 104.5C256 110.299 251.299 115 245.5 115C239.701 115 235 110.299 235 104.5C235 98.701 239.701 94 245.5 94C251.299 94 256 98.701 256 104.5Z" fill="#FAB512"/>
<path d="M201 165H231V135C214.397 135.17 201 148.531 201 165Z" fill="#EE1E5F"/>
<path d="M261 165H231V135C247.603 135.17 261 148.531 261 165Z" fill="#4E61B6"/>
</svg>
