<svg width="24" height="25" viewBox="0 0 24 25" fill="none" xmlns="http://www.w3.org/2000/svg">
<path d="M16 2.49731V6.49731M8 2.49731V6.49731M3 10.4973H21M10 18.9975L9.99999 14.3447C9.99999 14.153 9.86325 13.9975 9.69458 13.9975H9M14 18.9956L15.4855 14.3896C15.4951 14.3599 15.5 14.3288 15.5 14.2975C15.5 14.1319 15.3657 13.9975 15.2 13.9975L13 13.9973M13 4.49731H11C7.22876 4.49731 5.34315 4.49731 4.17157 5.66888C3 6.84046 3 8.72607 3 12.4973V14.4973C3 18.2685 3 20.1542 4.17157 21.3257C5.34315 22.4973 7.22876 22.4973 11 22.4973H13C16.7712 22.4973 18.6569 22.4973 19.8284 21.3257C21 20.1542 21 18.2685 21 14.4973V12.4973C21 8.72607 21 6.84046 19.8284 5.66888C18.6569 4.49731 16.7712 4.49731 13 4.49731Z" stroke="#8C8C8C" stroke-width="1.5" stroke-linecap="round" stroke-linejoin="round"/>
</svg>
