<svg width="65" height="65" viewBox="0 0 65 65" fill="none" xmlns="http://www.w3.org/2000/svg">
<rect width="65" height="65" rx="18" fill="#EDECFA"/>
<path d="M40.5 31.1666H24.5V24.5H40.5M38.5 39.1666C37.9695 39.1666 37.4608 38.9559 37.0858 38.5808C36.7107 38.2058 36.5 37.6971 36.5 37.1666C36.5 36.6362 36.7107 36.1275 37.0858 35.7524C37.4608 35.3773 37.9695 35.1666 38.5 35.1666C39.0304 35.1666 39.5391 35.3773 39.9142 35.7524C40.2893 36.1275 40.5 36.6362 40.5 37.1666C40.5 37.6971 40.2893 38.2058 39.9142 38.5808C39.5391 38.9559 39.0304 39.1666 38.5 39.1666ZM26.5 39.1666C25.9695 39.1666 25.4608 38.9559 25.0858 38.5808C24.7107 38.2058 24.5 37.6971 24.5 37.1666C24.5 36.6362 24.7107 36.1275 25.0858 35.7524C25.4608 35.3773 25.9695 35.1666 26.5 35.1666C27.0304 35.1666 27.5391 35.3773 27.9142 35.7524C28.2893 36.1275 28.5 36.6362 28.5 37.1666C28.5 37.6971 28.2893 38.2058 27.9142 38.5808C27.5391 38.9559 27.0304 39.1666 26.5 39.1666ZM21.8333 37.8333C21.8333 39.0066 22.3533 40.06 23.1666 40.7933V43.1666C23.1666 43.5202 23.3071 43.8594 23.5572 44.1094C23.8072 44.3595 24.1464 44.5 24.5 44.5H25.8333C26.1869 44.5 26.5261 44.3595 26.7761 44.1094C27.0262 43.8594 27.1666 43.5202 27.1666 43.1666V41.8333H37.8333V43.1666C37.8333 43.5202 37.9738 43.8594 38.2238 44.1094C38.4739 44.3595 38.813 44.5 39.1666 44.5H40.5C40.8536 44.5 41.1927 44.3595 41.4428 44.1094C41.6928 43.8594 41.8333 43.5202 41.8333 43.1666V40.7933C42.6466 40.06 43.1666 39.0066 43.1666 37.8333V24.5C43.1666 19.8333 38.3933 19.1666 32.5 19.1666C26.6066 19.1666 21.8333 19.8333 21.8333 24.5V37.8333Z" fill="url(#paint0_linear_555_2098)"/>
<defs>
<linearGradient id="paint0_linear_555_2098" x1="32.5" y1="19.1666" x2="32.5" y2="44.5" gradientUnits="userSpaceOnUse">
<stop stop-color="#31279F"/>
<stop offset="1" stop-color="#5C51D5"/>
</linearGradient>
</defs>
</svg>
