<svg width="65" height="65" viewBox="0 0 65 65" fill="none" xmlns="http://www.w3.org/2000/svg">
<rect width="65" height="65" rx="18" fill="#EADFF4"/>
<path d="M29.14 21.125C26.8819 20.0469 23.7256 19.5187 19.5 19.5C19.1015 19.4946 18.7108 19.6108 18.38 19.8331C18.1085 20.0166 17.8862 20.2641 17.7328 20.5536C17.5793 20.8432 17.4994 21.166 17.5 21.4937V39.375C17.5 40.5837 18.36 41.4956 19.5 41.4956C23.9419 41.4956 28.3975 41.9106 31.0663 44.4331C31.1028 44.4678 31.1486 44.4909 31.1982 44.4998C31.2478 44.5086 31.2988 44.5026 31.3451 44.4826C31.3913 44.4626 31.4306 44.4295 31.4581 44.3874C31.4857 44.3453 31.5002 44.296 31.5 44.2456V23.1762C31.5001 23.0341 31.4696 22.8936 31.4108 22.7642C31.3519 22.6348 31.266 22.5196 31.1588 22.4262C30.5474 21.9036 29.8684 21.4659 29.14 21.125ZM46.62 19.8312C46.2891 19.6095 45.8983 19.4939 45.5 19.5C41.2744 19.5187 38.1181 20.0444 35.86 21.125C35.1316 21.4653 34.4524 21.9021 33.8406 22.4237C33.7336 22.5172 33.6479 22.6325 33.5891 22.7619C33.5304 22.8912 33.5 23.0317 33.5 23.1737V44.2444C33.5 44.2927 33.5142 44.34 33.541 44.3804C33.5677 44.4207 33.6058 44.4522 33.6504 44.4709C33.695 44.4897 33.7441 44.4949 33.7916 44.4858C33.8392 44.4767 33.8829 44.4538 33.9175 44.42C35.5219 42.8262 38.3375 41.4937 45.5025 41.4944C46.0329 41.4944 46.5416 41.2836 46.9167 40.9086C47.2918 40.5335 47.5025 40.0248 47.5025 39.4944V21.4944C47.5032 21.166 47.4231 20.8425 47.2692 20.5525C47.1153 20.2624 46.8923 20.0147 46.62 19.8312Z" fill="#693596"/>
</svg>
