<svg width="65" height="65" viewBox="0 0 65 65" fill="none" xmlns="http://www.w3.org/2000/svg">
<rect width="65" height="65" rx="18" fill="#EDECFA"/>
<path d="M25.5 20.5C24.5275 20.5 23.5949 20.8863 22.9073 21.5739C22.2196 22.2616 21.8333 23.1942 21.8333 24.1667V43.8333H21.5C21.2348 43.8333 20.9804 43.9387 20.7929 44.1262C20.6054 44.3138 20.5 44.5681 20.5 44.8333C20.5 45.0986 20.6054 45.3529 20.7929 45.5404C20.9804 45.728 21.2348 45.8333 21.5 45.8333H39.5C39.7652 45.8333 40.0196 45.728 40.2071 45.5404C40.3946 45.3529 40.5 45.0986 40.5 44.8333C40.5 44.5681 40.3946 44.3138 40.2071 44.1262C40.0196 43.9387 39.7652 43.8333 39.5 43.8333H39.1667V41.4293C39.7247 41.7162 40.3471 41.8548 40.974 41.8318C41.601 41.8088 42.2116 41.625 42.7471 41.2981C43.2826 40.9712 43.7251 40.5121 44.0321 39.9649C44.339 39.4177 44.5002 38.8008 44.5 38.1733V30.3893C44.5 29.596 44.2427 28.824 43.7667 28.1893L42.3 26.2333C42.1409 26.0212 41.904 25.8809 41.6414 25.8434C41.3789 25.8059 41.1122 25.8742 40.9 26.0333C40.6878 26.1925 40.5476 26.4294 40.5101 26.6919C40.4725 26.9545 40.5409 27.2212 40.7 27.4333L42.1667 29.3893C42.3827 29.6773 42.5 30.0293 42.5 30.3893V38.1733C42.5 38.3913 42.4571 38.6072 42.3736 38.8086C42.2902 39.01 42.1679 39.193 42.0138 39.3471C41.8597 39.5013 41.6767 39.6236 41.4753 39.707C41.2739 39.7904 41.058 39.8333 40.84 39.8333C40.622 39.8333 40.4061 39.7904 40.2047 39.707C40.0033 39.6236 39.8203 39.5013 39.6662 39.3471C39.5121 39.193 39.3898 39.01 39.3064 38.8086C39.2229 38.6072 39.18 38.3913 39.18 38.1733V35.8333C39.1788 35.7793 39.1744 35.7255 39.1667 35.672V24.1667C39.1667 23.6852 39.0718 23.2084 38.8876 22.7635C38.7033 22.3186 38.4332 21.9144 38.0927 21.5739C37.7522 21.2335 37.348 20.9634 36.9032 20.7791C36.4583 20.5948 35.9815 20.5 35.5 20.5H25.5ZM25.8333 25.5C25.8333 25.2348 25.9387 24.9804 26.1262 24.7929C26.3138 24.6054 26.5681 24.5 26.8333 24.5H34.1667C34.4319 24.5 34.6862 24.6054 34.8738 24.7929C35.0613 24.9804 35.1667 25.2348 35.1667 25.5V30.1667C35.1667 30.4319 35.0613 30.6862 34.8738 30.8738C34.6862 31.0613 34.4319 31.1667 34.1667 31.1667H26.8333C26.5681 31.1667 26.3138 31.0613 26.1262 30.8738C25.9387 30.6862 25.8333 30.4319 25.8333 30.1667V25.5Z" fill="url(#paint0_linear_555_2090)"/>
<defs>
<linearGradient id="paint0_linear_555_2090" x1="32.5" y1="20.5" x2="32.5" y2="45.8333" gradientUnits="userSpaceOnUse">
<stop stop-color="#31279F"/>
<stop offset="1" stop-color="#5C51D5"/>
</linearGradient>
</defs>
</svg>
