<svg width="65" height="65" viewBox="0 0 65 65" fill="none" xmlns="http://www.w3.org/2000/svg">
<rect width="65" height="65" rx="18" fill="#FFECD4"/>
<path d="M24.8916 23.1207C21.3358 25.7041 19.5579 26.9958 18.8596 28.9038C18.8036 29.0569 18.7533 29.212 18.7086 29.3687C18.152 31.3228 18.8311 33.4128 20.1893 37.5928C21.5475 41.7729 22.2265 43.8629 23.8254 45.1166C23.9537 45.2172 24.0856 45.313 24.2209 45.4039C24.7897 45.7862 25.4167 46.0395 26.1667 46.2073V41.5928C26.1667 38.095 29.0022 35.2595 32.5 35.2595C35.9978 35.2595 38.8333 38.095 38.8333 41.5928V46.2073C39.5833 46.0395 40.2103 45.7862 40.7792 45.4039C40.9144 45.313 41.0464 45.2172 41.1746 45.1166C42.7735 43.8629 43.4526 41.7729 44.8107 37.5928C46.1689 33.4128 46.848 31.3228 46.2914 29.3687C46.2468 29.212 46.1964 29.0569 46.1404 28.9038C45.4421 26.9958 43.6642 25.7041 40.1085 23.1207C36.5527 20.5373 34.7748 19.2456 32.7444 19.1711C32.5815 19.1651 32.4185 19.1651 32.2556 19.1711C30.2252 19.2456 28.4473 20.5373 24.8916 23.1207Z" fill="#FAA538"/>
<path d="M36.8333 46.4642V41.5928C36.8333 39.1996 34.8932 37.2595 32.5 37.2595C30.1068 37.2595 28.1667 39.1996 28.1667 41.5928V46.4642C29.3306 46.5371 30.7389 46.5371 32.5 46.5371C34.2611 46.5371 35.6694 46.5371 36.8333 46.4642Z" fill="#FAA538"/>
</svg>
