<svg width="65" height="65" viewBox="0 0 65 65" fill="none" xmlns="http://www.w3.org/2000/svg">
<rect width="65" height="65" rx="18" fill="#E4E7FC"/>
<path fill-rule="evenodd" clip-rule="evenodd" d="M29.0714 20.3446C28.9716 20.3725 28.8811 20.427 28.8099 20.5023C28.7386 20.5775 28.6892 20.6708 28.6668 20.7721L27.1034 27.8578C27.0825 27.9539 27.0868 28.0538 27.1159 28.1478C27.1449 28.2418 27.1978 28.3267 27.2693 28.3943C27.3408 28.4619 27.4285 28.5099 27.524 28.5336C27.6195 28.5573 27.7195 28.556 27.8143 28.5298L33.1537 27.0601C33.254 27.0326 33.3449 26.9782 33.4166 26.9029C33.4883 26.8276 33.5381 26.7342 33.5606 26.6326L35.124 19.5469C35.1453 19.4506 35.1414 19.3504 35.1126 19.2561C35.0837 19.1618 35.0309 19.0765 34.9594 19.0086C34.8878 18.9407 34.7999 18.8925 34.7042 18.8687C34.6084 18.8449 34.5082 18.8462 34.4131 18.8726L29.0714 20.3446ZM24.7126 21.5469C24.8075 21.521 24.9074 21.52 25.0028 21.5441C25.0982 21.5681 25.1858 21.6164 25.257 21.6842C25.3283 21.752 25.3808 21.8371 25.4096 21.9312C25.4383 22.0252 25.4423 22.1251 25.4211 22.2212L23.86 29.3069C23.8371 29.408 23.7872 29.501 23.7155 29.5759C23.6438 29.6508 23.5531 29.7048 23.4531 29.7321L20.9503 30.4223H42.7857C43.695 30.4223 44.5671 30.7836 45.2101 31.4265C45.8531 32.0695 46.2143 32.9416 46.2143 33.8509V42.1686C46.2143 43.6842 45.6122 45.1376 44.5406 46.2092C43.469 47.2809 42.0155 47.8829 40.5 47.8829H24.5C22.9845 47.8829 21.531 47.2809 20.4594 46.2092C19.3877 45.1376 18.7857 43.6842 18.7857 42.1686V30.5801C18.7617 30.5365 18.7426 30.4906 18.7286 30.4429L17.7731 27.0303C17.6516 26.5957 17.6171 26.1413 17.6715 25.6933C17.726 25.2453 17.8684 24.8125 18.0905 24.4196C18.3126 24.0267 18.6101 23.6816 18.966 23.404C19.3218 23.1263 19.7289 22.9217 20.164 22.8018L24.7126 21.5469ZM37.5148 25.8578L43.1126 24.3149C43.4025 24.2349 43.6737 24.0984 43.9108 23.9133C44.1479 23.7283 44.3461 23.4983 44.4941 23.2364C44.6421 22.9746 44.737 22.6862 44.7733 22.3876C44.8096 22.0891 44.7866 21.7863 44.7057 21.4966L44.2097 19.7161C43.9654 18.8421 43.3845 18.1006 42.5945 17.6542C41.8044 17.2077 40.8696 17.0927 39.9949 17.3343L38.7743 17.6726C38.674 17.7001 38.5831 17.7544 38.5114 17.8298C38.4397 17.9051 38.3899 17.9985 38.3674 18.1001L36.8063 25.1835C36.7851 25.2796 36.7891 25.3795 36.8178 25.4735C36.8466 25.5676 36.8991 25.6527 36.9704 25.7205C37.0416 25.7883 37.1292 25.8366 37.2246 25.8606C37.32 25.8847 37.42 25.8837 37.5148 25.8578ZM25.6428 39.6429C25.264 39.6429 24.9006 39.7934 24.6327 40.0613C24.3648 40.3292 24.2143 40.6926 24.2143 41.0715C24.2143 41.4504 24.3648 41.8137 24.6327 42.0816C24.9006 42.3495 25.264 42.5001 25.6428 42.5001H29.0714C29.4503 42.5001 29.8137 42.3495 30.0816 42.0816C30.3495 41.8137 30.5 41.4504 30.5 41.0715C30.5 40.6926 30.3495 40.3292 30.0816 40.0613C29.8137 39.7934 29.4503 39.6429 29.0714 39.6429H25.6428Z" fill="url(#paint0_linear_478_1884)"/>
<defs>
<linearGradient id="paint0_linear_478_1884" x1="31.9304" y1="17.2106" x2="31.9304" y2="47.8829" gradientUnits="userSpaceOnUse">
<stop stop-color="#2A218A"/>
<stop offset="1" stop-color="#253FE4"/>
</linearGradient>
</defs>
</svg>
