<svg width="65" height="65" viewBox="0 0 65 65" fill="none" xmlns="http://www.w3.org/2000/svg">
<rect width="65" height="65" rx="18" fill="#FFECD4"/>
<path d="M39.2754 23.2002L36.71 25.125H31.5C29.4473 25.125 27.3615 25.6821 25.7793 26.8887C24.1854 28.1042 23.1258 29.9632 23.125 32.4971C23.1156 33.9019 23.5075 35.2806 24.2539 36.4707C24.9579 37.5931 25.9501 38.5034 27.125 39.1094V42.875H29.875V39.875H36.125V42.875H38.875V39.0742C39.905 38.6832 40.6272 38.2726 41.1143 37.5977C41.5893 36.9393 41.8055 36.0766 41.9561 34.875H44.875V31.125H41.8799C41.8718 30.7648 41.8771 30.4279 41.873 30.0811C41.8678 29.6339 41.8459 29.1866 41.7422 28.7373C41.5372 27.8499 41.0294 27.0169 39.875 26.0947V22.75L39.2754 23.2002ZM34.125 27.875V28.875H36.125V30.125H33C32.7679 30.125 32.545 30.2168 32.3809 30.3809C32.2168 30.545 32.125 30.7679 32.125 31C32.125 31.2321 32.2168 31.455 32.3809 31.6191C32.545 31.7832 32.7679 31.875 33 31.875H34C34.5269 31.8745 35.0357 32.0697 35.4268 32.4229C35.8178 32.776 36.0642 33.2619 36.1172 33.7861C36.1701 34.3104 36.0264 34.8365 35.7139 35.2607C35.4014 35.6849 34.942 35.9771 34.4258 36.082L34.125 36.1436V37.125H32.875V36.125H30.875V34.875H34C34.2321 34.875 34.455 34.7832 34.6191 34.6191C34.7832 34.455 34.875 34.2321 34.875 34C34.875 33.7679 34.7832 33.545 34.6191 33.3809C34.455 33.2168 34.2321 33.125 34 33.125H33L32.8027 33.1162C32.3472 33.0743 31.9153 32.8861 31.5732 32.5771C31.1822 32.224 30.9358 31.7381 30.8828 31.2139C30.8299 30.6896 30.9736 30.1635 31.2861 29.7393C31.5986 29.3151 32.058 29.0229 32.5742 28.918L32.875 28.8564V27.875H34.125ZM25.875 39.8594L25.7119 39.748C24.6682 39.0326 23.7911 38.1 23.1406 37.0146C22.4902 35.9294 22.0813 34.7166 21.9424 33.459L21.9062 33.125H21.5C20.8041 33.1242 20.1366 32.8476 19.6445 32.3555C19.1524 31.8634 18.8758 31.1959 18.875 30.5V28.875H20.125V30.5C20.125 30.8647 20.2695 31.2148 20.5273 31.4727C20.7852 31.7305 21.1353 31.875 21.5 31.875H21.8906L21.9248 31.5381C22.3867 27.006 26.1445 23.875 31.5 23.875H36.292L36.3916 23.7998L40.125 21C40.2179 20.9304 40.3287 20.8884 40.4443 20.8779C40.5598 20.8676 40.6756 20.8896 40.7793 20.9414C40.8831 20.9933 40.9702 21.0731 41.0312 21.1719C41.0922 21.2706 41.125 21.384 41.125 21.5V25.5225L41.2539 25.6348C41.8113 26.1203 42.2636 26.7148 42.582 27.3818C42.9005 28.049 43.0785 28.7749 43.1055 29.5137L43.1182 29.875H45.5C45.6658 29.875 45.8252 29.9404 45.9424 30.0576C46.0596 30.1748 46.125 30.3342 46.125 30.5V35.5C46.125 35.6658 46.0596 35.8252 45.9424 35.9424C45.8252 36.0596 45.6658 36.125 45.5 36.125H43.0098L42.9512 36.4287C42.8104 37.1557 42.5005 37.8395 42.0469 38.4248C41.5932 39.0101 41.0078 39.4802 40.3389 39.7979L40.125 39.9004V43.5C40.125 43.6658 40.0596 43.8252 39.9424 43.9424C39.8252 44.0596 39.6658 44.125 39.5 44.125H35.5C35.3342 44.125 35.1748 44.0596 35.0576 43.9424C34.9404 43.8252 34.875 43.6658 34.875 43.5V41.125H31.125V43.5C31.125 43.6658 31.0596 43.8252 30.9424 43.9424C30.8252 44.0596 30.6658 44.125 30.5 44.125H26.5C26.3342 44.125 26.1748 44.0596 26.0576 43.9424C25.9404 43.8252 25.875 43.6658 25.875 43.5V39.8594Z" fill="url(#paint0_linear_555_997)" stroke="url(#paint1_linear_555_997)" stroke-width="0.75"/>
<defs>
<linearGradient id="paint0_linear_555_997" x1="32.5" y1="20.5" x2="32.5" y2="44.5" gradientUnits="userSpaceOnUse">
<stop stop-color="#FFBF71"/>
<stop offset="1" stop-color="#996419"/>
</linearGradient>
<linearGradient id="paint1_linear_555_997" x1="32.5" y1="20.5" x2="32.5" y2="44.5" gradientUnits="userSpaceOnUse">
<stop stop-color="#FFA629"/>
<stop offset="1" stop-color="#996419"/>
</linearGradient>
</defs>
</svg>
