<svg width="24" height="25" viewBox="0 0 24 25" fill="none" xmlns="http://www.w3.org/2000/svg">
<path d="M17.5 5.50024C18.3284 5.50024 19 6.17182 19 7.00024C19 7.82867 18.3284 8.50024 17.5 8.50024C16.6716 8.50024 16 7.82867 16 7.00024C16 6.17182 16.6716 5.50024 17.5 5.50024Z" stroke="#8C8C8C" stroke-width="1.5" stroke-linecap="round" stroke-linejoin="round"/>
<path d="M2.77423 11.6439C1.77108 12.7643 1.7495 14.4546 2.67016 15.6437C4.49711 18.0033 6.49674 20.0029 8.85633 21.8298C10.0454 22.7505 11.7357 22.7289 12.8561 21.7258C15.8979 19.0022 18.6835 16.1559 21.3719 13.0279C21.6377 12.7187 21.8039 12.3397 21.8412 11.9336C22.0062 10.138 22.3452 4.96467 20.9403 3.55974C19.5353 2.15481 14.362 2.49377 12.5664 2.65876C12.1603 2.69608 11.7813 2.86233 11.472 3.12811C8.34412 5.81646 5.49781 8.60211 2.77423 11.6439Z" stroke="#8C8C8C" stroke-width="1.5"/>
<path d="M7.00003 14.5002L10 17.5002" stroke="#8C8C8C" stroke-width="1.5" stroke-linecap="round" stroke-linejoin="round"/>
</svg>
