<svg width="65" height="65" viewBox="0 0 65 65" fill="none" xmlns="http://www.w3.org/2000/svg">
<rect width="65" height="65" rx="18" fill="#F5C7E1"/>
<path fill-rule="evenodd" clip-rule="evenodd" d="M33.292 47.5106L33.276 47.5133L33.1814 47.56L33.1547 47.5653L33.136 47.56L33.0414 47.512C33.0271 47.5084 33.0165 47.5111 33.0094 47.52L33.004 47.5333L32.9814 48.104L32.988 48.1306L33.0014 48.148L33.14 48.2466L33.16 48.252L33.176 48.2466L33.3147 48.148L33.3307 48.1266L33.336 48.104L33.3134 47.5346C33.3098 47.5204 33.3027 47.5124 33.292 47.5106ZM33.644 47.36L33.6254 47.3626L33.38 47.4866L33.3667 47.5L33.3627 47.5146L33.3867 48.088L33.3934 48.104L33.404 48.1146L33.672 48.2373C33.6889 48.2417 33.7018 48.2382 33.7107 48.2266L33.716 48.208L33.6707 47.3893C33.6662 47.3724 33.6574 47.3626 33.644 47.36ZM32.6907 47.3626C32.6848 47.3591 32.6778 47.3579 32.6711 47.3594C32.6644 47.3609 32.6585 47.3649 32.6547 47.3706L32.6467 47.3893L32.6014 48.208C32.6022 48.224 32.6098 48.2346 32.624 48.24L32.644 48.2373L32.912 48.1133L32.9254 48.1026L32.9294 48.088L32.9534 47.5146L32.9494 47.4986L32.936 47.4853L32.6907 47.3626Z" fill="url(#paint0_linear_555_993)"/>
<path fill-rule="evenodd" clip-rule="evenodd" d="M40.8947 20.56C41.1263 20.6316 41.3339 20.7651 41.4953 20.946C41.6567 21.1269 41.7658 21.3484 41.8107 21.5866L43.5987 31.1266C43.772 32.0426 43.8267 32.9493 43.78 33.8333H44.5C44.8536 33.8333 45.1928 33.9738 45.4428 34.2238C45.6929 34.4739 45.8334 34.813 45.8334 35.1666C45.8334 35.5203 45.6929 35.8594 45.4428 36.1094C45.1928 36.3595 44.8536 36.5 44.5 36.5H43.308C43.1155 37.1256 42.8697 37.7336 42.5734 38.3173L44 39.4586C44.1368 39.5681 44.2506 39.7034 44.3351 39.8568C44.4195 40.0102 44.473 40.1788 44.4923 40.3529C44.5116 40.527 44.4964 40.7031 44.4477 40.8714C44.3989 41.0396 44.3175 41.1965 44.208 41.3333C44.0986 41.47 43.9633 41.5839 43.8098 41.6684C43.6564 41.7528 43.4878 41.8062 43.3138 41.8256C43.1397 41.8449 42.9635 41.8297 42.7953 41.7809C42.6271 41.7322 42.4701 41.6507 42.3334 41.5413L41.0854 40.5426C40.0276 41.7862 38.7116 42.7844 37.229 43.4678C35.7463 44.1512 34.1326 44.5034 32.5 44.5C30.8672 44.5036 29.2532 44.1515 27.7704 43.4681C26.2875 42.7846 24.9713 41.7863 23.9134 40.5426L22.6667 41.5413C22.5299 41.6507 22.373 41.7322 22.2048 41.7809C22.0365 41.8297 21.8604 41.8449 21.6863 41.8256C21.5122 41.8062 21.3436 41.7528 21.1902 41.6684C21.0368 41.5839 20.9015 41.47 20.792 41.3333C20.6826 41.1965 20.6012 41.0396 20.5524 40.8714C20.5036 40.7031 20.4884 40.527 20.5078 40.3529C20.5271 40.1788 20.5805 40.0102 20.665 39.8568C20.7494 39.7034 20.8633 39.5681 21 39.4586L22.4267 38.3173C22.1296 37.7341 21.8842 37.126 21.6934 36.5H20.5C20.1464 36.5 19.8073 36.3595 19.5572 36.1094C19.3072 35.8594 19.1667 35.5203 19.1667 35.1666C19.1667 34.813 19.3072 34.4739 19.5572 34.2238C19.8073 33.9738 20.1464 33.8333 20.5 33.8333H21.22C21.1719 32.9271 21.2328 32.0183 21.4014 31.1266L23.1894 21.588C23.234 21.3494 23.343 21.1276 23.5045 20.9464C23.666 20.7652 23.8738 20.6315 24.1057 20.5597C24.3376 20.488 24.5846 20.4809 24.8202 20.5392C25.0558 20.5975 25.2711 20.719 25.4427 20.8906L28.6614 24.1093C28.9113 24.3594 29.2504 24.4999 29.604 24.5H35.396C35.7496 24.4999 36.0887 24.3594 36.3387 24.1093L39.5574 20.8906C39.729 20.719 39.9443 20.5975 40.18 20.5392C40.4157 20.4809 40.6628 20.4881 40.8947 20.56ZM33.2374 35.9733L32.5 36.3426L31.7627 35.9746C31.6055 35.8899 31.4329 35.8376 31.2552 35.8208C31.0774 35.804 30.898 35.8231 30.7278 35.8769C30.5575 35.9308 30.3998 36.0183 30.264 36.1342C30.1282 36.2502 30.0171 36.3922 29.9373 36.5519C29.8574 36.7116 29.8104 36.8858 29.7992 37.064C29.7879 37.2422 29.8125 37.4208 29.8716 37.5893C29.9307 37.7578 30.023 37.9128 30.1431 38.0449C30.2632 38.1771 30.4086 38.2837 30.5707 38.3586L31.308 38.728C31.6782 38.9129 32.0862 39.0092 32.5 39.0092C32.9138 39.0092 33.3219 38.9129 33.692 38.728L34.4294 38.3586C34.5915 38.2837 34.7369 38.1771 34.857 38.0449C34.9771 37.9128 35.0694 37.7578 35.1285 37.5893C35.1875 37.4208 35.2122 37.2422 35.2009 37.064C35.1896 36.8858 35.1426 36.7116 35.0628 36.5519C34.9829 36.3922 34.8718 36.2502 34.736 36.1342C34.6002 36.0183 34.4425 35.9308 34.2722 35.8769C34.102 35.8231 33.9227 35.804 33.7449 35.8208C33.5671 35.8376 33.3945 35.8899 33.2374 35.9746V35.9733ZM29.1667 29.8333C28.6363 29.8333 28.1275 30.044 27.7525 30.4191C27.3774 30.7942 27.1667 31.3029 27.1667 31.8333C27.1667 32.3637 27.3774 32.8724 27.7525 33.2475C28.1275 33.6226 28.6363 33.8333 29.1667 33.8333C29.6971 33.8333 30.2058 33.6226 30.5809 33.2475C30.956 32.8724 31.1667 32.3637 31.1667 31.8333C31.1667 31.3029 30.956 30.7942 30.5809 30.4191C30.2058 30.044 29.6971 29.8333 29.1667 29.8333ZM35.8334 29.8333C35.3029 29.8333 34.7942 30.044 34.4191 30.4191C34.0441 30.7942 33.8334 31.3029 33.8334 31.8333C33.8334 32.3637 34.0441 32.8724 34.4191 33.2475C34.7942 33.6226 35.3029 33.8333 35.8334 33.8333C36.3638 33.8333 36.8725 33.6226 37.2476 33.2475C37.6226 32.8724 37.8334 32.3637 37.8334 31.8333C37.8334 31.3029 37.6226 30.7942 37.2476 30.4191C36.8725 30.044 36.3638 29.8333 35.8334 29.8333Z" fill="url(#paint1_linear_555_993)"/>
<defs>
<linearGradient id="paint0_linear_555_993" x1="32.5" y1="20.5001" x2="32.5" y2="48.252" gradientUnits="userSpaceOnUse">
<stop stop-color="#AD1F70"/>
<stop offset="1" stop-color="#E158A6"/>
</linearGradient>
<linearGradient id="paint1_linear_555_993" x1="32.5" y1="20.5001" x2="32.5" y2="48.252" gradientUnits="userSpaceOnUse">
<stop stop-color="#AD1F70"/>
<stop offset="1" stop-color="#E158A6"/>
</linearGradient>
</defs>
</svg>
