<svg width="56" height="55" viewBox="0 0 56 55" fill="none" xmlns="http://www.w3.org/2000/svg">
<rect x="0.5" width="55" height="55" rx="27.5" fill="#EA5455"/>
<path d="M38.5613 35.9387C38.843 36.2205 39.0014 36.6027 39.0014 37.0012C39.0014 37.3997 38.843 37.7819 38.5613 38.0637C38.2795 38.3455 37.8973 38.5038 37.4988 38.5038C37.1002 38.5038 36.718 38.3455 36.4363 38.0637L28.5 30.125L20.5613 38.0612C20.2795 38.343 19.8973 38.5013 19.4988 38.5013C19.1002 38.5013 18.718 38.343 18.4363 38.0612C18.1545 37.7794 17.9962 37.3972 17.9962 36.9987C17.9962 36.6002 18.1545 36.218 18.4363 35.9362L26.375 28L18.4388 20.0612C18.157 19.7794 17.9987 19.3972 17.9987 18.9987C17.9987 18.6002 18.157 18.218 18.4388 17.9362C18.7205 17.6544 19.1027 17.4961 19.5013 17.4961C19.8998 17.4961 20.282 17.6544 20.5638 17.9362L28.5 25.875L36.4388 17.935C36.7205 17.6532 37.1027 17.4949 37.5013 17.4949C37.8998 17.4949 38.282 17.6532 38.5638 17.935C38.8455 18.2168 39.0039 18.599 39.0039 18.9975C39.0039 19.396 38.8455 19.7782 38.5638 20.06L30.625 28L38.5613 35.9387Z" fill="white"/>
</svg>
