<svg width="22" height="18" viewBox="0 0 22 18" fill="none" xmlns="http://www.w3.org/2000/svg">
<path d="M4.75 13.25C4.33579 13.25 4 13.5858 4 14C4 14.4142 4.33579 14.75 4.75 14.75H6.75C7.16421 14.75 7.5 14.4142 7.5 14C7.5 13.5858 7.16421 13.25 6.75 13.25H4.75Z" fill="#2D264B"/>
<path d="M9.75 13.25C9.33579 13.25 9 13.5858 9 14C9 14.4142 9.33579 14.75 9.75 14.75H13.75C14.1642 14.75 14.5 14.4142 14.5 14C14.5 13.5858 14.1642 13.25 13.75 13.25H9.75Z" fill="#2D264B"/>
<path fill-rule="evenodd" clip-rule="evenodd" d="M16.0951 0.320612C15.2307 0.249992 14.1553 0.249995 12.7836 0.25H8.71644C7.34472 0.249995 6.26929 0.249992 5.40494 0.320612C4.52479 0.392522 3.79769 0.541379 3.13955 0.876713C2.05762 1.42798 1.17798 2.30762 0.626713 3.38955C0.14394 4.33705 0.0405975 5.44938 0.0111851 6.98564C7.35745e-08 7.56985 7.38114e-08 8.23525 7.38114e-08 8.99421V9.03356C-4.51575e-06 10.4053 -8.15094e-06 11.4807 0.070612 12.3451C0.142522 13.2252 0.291379 13.9523 0.626713 14.6104C1.17798 15.6924 2.05762 16.572 3.13955 17.1233C3.79769 17.4586 4.52479 17.6075 5.40494 17.6794C6.26927 17.75 7.34469 17.75 8.71637 17.75H12.7836C14.1553 17.75 15.2307 17.75 16.0951 17.6794C16.9752 17.6075 17.7023 17.4586 18.3604 17.1233C19.4424 16.572 20.322 15.6924 20.8733 14.6104C21.2086 13.9523 21.3575 13.2252 21.4294 12.3451C21.5 11.4807 21.5 10.4053 21.5 9.03363V8.9942C21.5 8.23524 21.5 7.56985 21.4888 6.98564C21.4594 5.44938 21.3561 4.33705 20.8733 3.38955C20.322 2.30762 19.4424 1.42798 18.3604 0.876713C17.7023 0.541379 16.9752 0.392522 16.0951 0.320612ZM3.82054 2.21322C4.23197 2.00359 4.7397 1.87996 5.52708 1.81563C6.32322 1.75058 7.33749 1.75 8.75 1.75H12.75C14.1625 1.75 15.1768 1.75058 15.9729 1.81563C16.7603 1.87996 17.268 2.00359 17.6795 2.21322C18.4791 2.62068 19.1293 3.27085 19.5368 4.07054C19.7909 4.56922 19.9125 5.19217 19.9643 6.25H1.53567C1.58752 5.19217 1.70913 4.56922 1.96322 4.07054C2.37068 3.27085 3.02085 2.62068 3.82054 2.21322ZM1.5 9C1.5 8.54524 1.50001 8.13073 1.5023 7.75H19.9977C20 8.13073 20 8.54524 20 9C20 10.4125 19.9994 11.4268 19.9344 12.2229C19.87 13.0103 19.7464 13.518 19.5368 13.9295C19.1293 14.7291 18.4791 15.3793 17.6795 15.7868C17.268 15.9964 16.7603 16.12 15.9729 16.1844C15.1768 16.2494 14.1625 16.25 12.75 16.25H8.75C7.33749 16.25 6.32322 16.2494 5.52708 16.1844C4.7397 16.12 4.23197 15.9964 3.82054 15.7868C3.02085 15.3793 2.37068 14.7291 1.96322 13.9295C1.75359 13.518 1.62996 13.0103 1.56563 12.2229C1.50058 11.4268 1.5 10.4125 1.5 9Z" fill="#2D264B"/>
</svg>
