<svg width="24" height="25" viewBox="0 0 24 25" fill="none" xmlns="http://www.w3.org/2000/svg">
<path d="M14 21V20.5C14 17.6716 14 16.2574 14.8787 15.3787C15.7574 14.5 17.1716 14.5 20 14.5H20.5" stroke="#8C8C8C" stroke-width="1.5" stroke-linecap="round" stroke-linejoin="round"/>
<path d="M13 3.5H11C7.22876 3.5 5.34315 3.5 4.17157 4.67157C3 5.84315 3 7.72876 3 11.5V13.5C3 17.2712 3 19.1569 4.17157 20.3284C5.34315 21.5 7.22876 21.5 11 21.5H12.3431C13.1606 21.5 13.5694 21.5 13.9369 21.3478C14.3045 21.1955 14.5935 20.9065 15.1716 20.3284L19.8284 15.6716C20.4065 15.0935 20.6955 14.8045 20.8478 14.4369C21 14.0694 21 13.6606 21 12.8431V11.5C21 7.72876 21 5.84315 19.8284 4.67157C18.6569 3.5 16.7712 3.5 13 3.5Z" stroke="#8C8C8C" stroke-width="1.5" stroke-linecap="round" stroke-linejoin="round"/>
</svg>
