<svg width="65" height="65" viewBox="0 0 65 65" fill="none" xmlns="http://www.w3.org/2000/svg">
<rect width="65" height="65" rx="18" fill="#FDD4DF"/>
<path d="M36.3614 32.5L48.2486 22.0981C48.5836 21.805 48.5836 21.33 48.2486 21.0375C45.9057 18.9875 42.1064 18.9875 39.7636 21.0375L31.5129 28.2575L29.7371 26.7037C30.045 26.0212 30.2143 25.2781 30.2143 24.5C30.2143 21.1862 27.1443 18.5 23.3571 18.5C19.57 18.5 16.5 21.1862 16.5 24.5C16.5 27.8138 19.57 30.5 23.3571 30.5C23.6814 30.5 23.9993 30.48 24.3114 30.4419L26.6636 32.5L24.3114 34.5581C23.9993 34.52 23.6807 34.5 23.3571 34.5C19.57 34.5 16.5 37.1862 16.5 40.5C16.5 43.8138 19.57 46.5 23.3571 46.5C27.1443 46.5 30.2143 43.8138 30.2143 40.5C30.2143 39.7219 30.045 38.9787 29.7371 38.2962L31.5129 36.7425L39.7636 43.9625C42.1064 46.0125 45.9057 46.0125 48.2486 43.9625C48.5836 43.67 48.5836 43.195 48.2486 42.9019L36.3614 32.5ZM23.3571 26.5C22.0971 26.5 21.0714 25.6025 21.0714 24.5C21.0714 23.3975 22.0971 22.5 23.3571 22.5C24.6171 22.5 25.6429 23.3975 25.6429 24.5C25.6429 25.6025 24.6171 26.5 23.3571 26.5ZM23.3571 42.5C22.0971 42.5 21.0714 41.6025 21.0714 40.5C21.0714 39.3975 22.0971 38.5 23.3571 38.5C24.6171 38.5 25.6429 39.3975 25.6429 40.5C25.6429 41.6025 24.6171 42.5 23.3571 42.5Z" fill="url(#paint0_linear_555_989)"/>
<defs>
<linearGradient id="paint0_linear_555_989" x1="32.4999" y1="18.5" x2="32.4999" y2="46.5" gradientUnits="userSpaceOnUse">
<stop stop-color="#F73F70"/>
<stop offset="1" stop-color="#BF0839"/>
</linearGradient>
</defs>
</svg>
