<svg width="21" height="22" viewBox="0 0 21 22" fill="none" xmlns="http://www.w3.org/2000/svg">
<path fill-rule="evenodd" clip-rule="evenodd" d="M10.5615 0.532471C4.72856 0.532471 0 5.26103 0 11.094V11.4787C0 16.3602 3.49099 20.5431 8.29371 21.4163C10.416 21.8022 12.2697 19.9484 11.8839 17.8262L11.4879 15.6483C11.098 13.5037 12.9713 11.6305 15.1158 12.0204L17.2937 12.4164C19.416 12.8022 21.2697 10.9484 20.8839 8.82618C20.0107 4.02346 15.8277 0.532471 10.9463 0.532471H10.5615ZM1.5 11.094C1.5 6.08946 5.55698 2.03247 10.5615 2.03247H10.9463C15.1028 2.03247 18.6645 5.00503 19.4081 9.09451C19.6065 10.1858 18.6533 11.139 17.562 10.9405L15.3842 10.5446C12.2086 9.96719 9.43472 12.7411 10.0121 15.9166L10.4081 18.0945C10.6065 19.1857 9.65328 20.139 8.56204 19.9405C4.47256 19.197 1.5 15.6352 1.5 11.4787V11.094Z" fill="#2D264B"/>
<path d="M12.75 7.28247C12.75 7.83476 12.3023 8.28247 11.75 8.28247C11.1977 8.28247 10.75 7.83476 10.75 7.28247C10.75 6.73019 11.1977 6.28247 11.75 6.28247C12.3023 6.28247 12.75 6.73019 12.75 7.28247Z" fill="#2D264B"/>
<path d="M8.75 6.28247C8.75 6.83476 8.30228 7.28247 7.75 7.28247C7.19772 7.28247 6.75 6.83476 6.75 6.28247C6.75 5.73019 7.19772 5.28247 7.75 5.28247C8.30228 5.28247 8.75 5.73019 8.75 6.28247Z" fill="#2D264B"/>
<path d="M6.75 9.28247C6.75 9.83475 6.30228 10.2825 5.75 10.2825C5.19772 10.2825 4.75 9.83475 4.75 9.28247C4.75 8.73019 5.19772 8.28247 5.75 8.28247C6.30228 8.28247 6.75 8.73019 6.75 9.28247Z" fill="#2D264B"/>
<path d="M7.75 13.2825C7.75 13.8348 7.30228 14.2825 6.75 14.2825C6.19772 14.2825 5.75 13.8348 5.75 13.2825C5.75 12.7302 6.19772 12.2825 6.75 12.2825C7.30228 12.2825 7.75 12.7302 7.75 13.2825Z" fill="#2D264B"/>
</svg>
