<svg width="20" height="20" viewBox="0 0 20 20" fill="none" xmlns="http://www.w3.org/2000/svg">
<path d="M11.5 7C11.5 6.58579 11.1642 6.25 10.75 6.25C10.3358 6.25 10 6.58579 10 7V13.9362C9.98578 13.9251 9.97128 13.9137 9.95649 13.9018C9.63386 13.6427 9.25033 13.2573 8.68054 12.6824L7.28269 11.272C6.99111 10.9778 6.51624 10.9757 6.22204 11.2673C5.92784 11.5589 5.92572 12.0338 6.21731 12.328L7.64566 13.7691C8.17703 14.3053 8.62023 14.7525 9.01724 15.0713C9.43367 15.4057 9.87131 15.6601 10.4045 15.7281C10.6339 15.7573 10.8661 15.7573 11.0955 15.7281C11.6287 15.6601 12.0663 15.4057 12.4828 15.0713C12.8798 14.7525 13.323 14.3053 13.8544 13.7691L15.2827 12.328C15.5743 12.0338 15.5722 11.5589 15.278 11.2673C14.9838 10.9757 14.5089 10.9778 14.2173 11.272L12.8195 12.6824C12.2497 13.2573 11.8661 13.6427 11.5435 13.9018C11.5287 13.9137 11.5142 13.9251 11.5 13.9362V7Z" fill="#2D264B"/>
<path fill-rule="evenodd" clip-rule="evenodd" d="M17.1298 1.34815C16.3234 0.762324 15.3791 0.500006 14.2135 0.373728C13.0714 0.249985 11.6318 0.249992 9.79525 0.25H9.73893C8.57888 0.25 7.58152 0.25 6.72432 0.279369C4.85087 0.343555 3.4739 0.546296 2.37024 1.34815C1.88209 1.70281 1.45281 2.13209 1.09815 2.62024C0.296295 3.7239 0.0935554 5.10087 0.029369 6.97432C1.3411e-07 7.83153 1.33766e-07 8.82891 1.33766e-07 9.98898V10.0453C-8.09167e-06 11.8818 -1.45286e-05 13.3214 0.123728 14.4635C0.250006 15.6291 0.512323 16.5734 1.09815 17.3798C1.45281 17.8679 1.88209 18.2972 2.37024 18.6518C3.17656 19.2377 4.12094 19.5 5.28648 19.6263C6.42859 19.75 7.86817 19.75 9.70465 19.75H9.79527C11.6318 19.75 13.0714 19.75 14.2135 19.6263C15.3791 19.5 16.3234 19.2377 17.1298 18.6518C17.6179 18.2972 18.0472 17.8679 18.4018 17.3798C18.9877 16.5734 19.25 15.6291 19.3763 14.4635C19.5 13.3214 19.5 11.8818 19.5 10.0453V9.95473C19.5 8.11824 19.5 6.67859 19.3763 5.53648C19.25 4.37094 18.9877 3.42656 18.4018 2.62024C18.0472 2.13209 17.6179 1.70281 17.1298 1.34815ZM9.75 1.75C11.6416 1.75 13 1.75103 14.052 1.865C15.0899 1.97745 15.7401 2.19259 16.2481 2.56168C16.6089 2.82382 16.9262 3.14111 17.1883 3.50191C17.5574 4.00992 17.7725 4.66013 17.885 5.69804C17.999 6.74999 18 8.10843 18 10C18 11.8916 17.999 13.25 17.885 14.302C17.7725 15.3399 17.5574 15.9901 17.1883 16.4981C16.9262 16.8589 16.6089 17.1762 16.2481 17.4383C15.7401 17.8074 15.0899 18.0225 14.052 18.135C13 18.249 11.6416 18.25 9.75 18.25C7.85843 18.25 6.49999 18.249 5.44804 18.135C4.41013 18.0225 3.75992 17.8074 3.25191 17.4383C2.89111 17.1762 2.57382 16.8589 2.31168 16.4981C1.94259 15.9901 1.72745 15.3399 1.615 14.302C1.50103 13.25 1.5 11.8916 1.5 10C1.5 9.15165 1.50005 8.40822 1.51082 7.74818C1.98547 7.74381 2.33489 7.72904 2.6495 7.67921C5.10988 7.28952 7.03952 5.35988 7.42921 2.8995C7.47904 2.58489 7.49381 2.23547 7.49818 1.76082C8.15822 1.75005 8.90165 1.75 9.75 1.75ZM2.41485 6.19768C2.20981 6.23015 1.97239 6.24254 1.56744 6.24722C1.66121 4.88688 1.87615 4.10137 2.31168 3.50191C2.57382 3.14111 2.89111 2.82382 3.25191 2.56168C3.85137 2.12615 4.63688 1.91121 5.99722 1.81744C5.99254 2.22238 5.98015 2.45981 5.94768 2.66485C5.65965 4.48339 4.23339 5.90965 2.41485 6.19768Z" fill="#2D264B"/>
</svg>
