<svg width="66" height="65" viewBox="0 0 66 65" fill="none" xmlns="http://www.w3.org/2000/svg">
<rect x="0.5" width="65" height="65" rx="18" fill="#FDD7DA"/>
<path d="M29 25.8333H43.6667C44.4 25.8333 45 26.4333 45 27.1667V41.8333C45 42.5667 44.4 43.1667 43.6667 43.1667H22.3333C21.6 43.1667 21 42.5667 21 41.8333V27.1667C21 26.4333 21.6 25.8333 22.3333 25.8333H29Z" fill="url(#paint0_linear_555_994)"/>
<path d="M29 25.8333V21.8333C29 21.1 29.6 20.5 30.3333 20.5H35.6667C36.4 20.5 37 21.1 37 21.8333V25.8333" fill="url(#paint1_linear_555_994)"/>
<path d="M29 25.8333H43.6667C44.4 25.8333 45 26.4333 45 27.1667V41.8333C45 42.5667 44.4 43.1667 43.6667 43.1667H22.3333C21.6 43.1667 21 42.5667 21 41.8333V27.1667C21 26.4333 21.6 25.8333 22.3333 25.8333H29ZM29 25.8333V21.8333C29 21.1 29.6 20.5 30.3333 20.5H35.6667C36.4 20.5 37 21.1 37 21.8333V25.8333" stroke="url(#paint2_linear_555_994)" stroke-width="2" stroke-linecap="round" stroke-linejoin="round"/>
<defs>
<linearGradient id="paint0_linear_555_994" x1="33" y1="20.5" x2="33" y2="43.1667" gradientUnits="userSpaceOnUse">
<stop stop-color="#F76B79"/>
<stop offset="1" stop-color="#F54254"/>
</linearGradient>
<linearGradient id="paint1_linear_555_994" x1="33" y1="20.5" x2="33" y2="43.1667" gradientUnits="userSpaceOnUse">
<stop stop-color="#F76B79"/>
<stop offset="1" stop-color="#F54254"/>
</linearGradient>
<linearGradient id="paint2_linear_555_994" x1="33" y1="20.5" x2="33" y2="43.1667" gradientUnits="userSpaceOnUse">
<stop stop-color="#F76B79"/>
<stop offset="1" stop-color="#F54254"/>
</linearGradient>
</defs>
</svg>
