<svg width="65" height="65" viewBox="0 0 65 65" fill="none" xmlns="http://www.w3.org/2000/svg">
<rect width="65" height="65" rx="18" fill="#E0DBF5"/>
<path d="M46.2143 16.5C45.0714 16.5 37.0714 18.5 37.0714 27.5V34.5C37.0714 36.7062 39.1214 38.5 41.6429 38.5H43.9286V46.5C43.9286 47.6063 44.95 48.5 46.2143 48.5C47.4786 48.5 48.5 47.6063 48.5 46.5V18.5C48.5 17.3937 47.4786 16.5 46.2143 16.5ZM21.0714 17.5C21.0714 16.9875 20.6357 16.5625 20.05 16.5063C19.4643 16.45 18.9429 16.7875 18.8143 17.2812L16.65 25.8C16.55 26.1938 16.5 26.5937 16.5 26.9937C16.5 29.8625 19.0071 32.2188 22.2143 32.475V46.5C22.2143 47.6063 23.2357 48.5 24.5 48.5C25.7643 48.5 26.7857 47.6063 26.7857 46.5V32.475C29.9929 32.2188 32.5 29.8625 32.5 26.9937C32.5 26.5937 32.45 26.1938 32.35 25.8L30.1857 17.2812C30.0571 16.7812 29.5214 16.45 28.9429 16.5063C28.3643 16.5625 27.9286 16.9875 27.9286 17.5V25.8875C27.9286 26.225 27.6143 26.5 27.2286 26.5C26.8643 26.5 26.5643 26.2562 26.5286 25.9375L25.6357 17.4125C25.5857 16.8938 25.0929 16.5 24.5 16.5C23.9071 16.5 23.4143 16.8938 23.3643 17.4125L22.4786 25.9375C22.4429 26.2562 22.1429 26.5 21.7786 26.5C21.3929 26.5 21.0786 26.225 21.0786 25.8875L21.0714 17.5ZM24.5214 27H24.4786L24.5 26.9563L24.5214 27Z" fill="url(#paint0_linear_555_985)"/>
<defs>
<linearGradient id="paint0_linear_555_985" x1="32.5" y1="16.5" x2="32.5" y2="48.5" gradientUnits="userSpaceOnUse">
<stop stop-color="#3E298F"/>
<stop offset="1" stop-color="#644ACB"/>
</linearGradient>
</defs>
</svg>
