<svg width="65" height="65" viewBox="0 0 65 65" fill="none" xmlns="http://www.w3.org/2000/svg">
<rect width="65" height="65" rx="18" fill="#FFECD4"/>
<path d="M32.5 20.5C34.6066 20.4999 36.6761 21.0544 38.5005 22.1077C40.3248 23.161 41.8398 24.6759 42.893 26.5003C43.9462 28.3247 44.5007 30.3942 44.5005 32.5008C44.5004 34.6074 43.9457 36.6769 42.8922 38.5011C41.8387 40.3254 40.3235 41.8401 38.499 42.8932C36.6745 43.9462 34.6049 44.5004 32.4983 44.5C30.3917 44.4996 28.3224 43.9447 26.4982 42.891C24.6741 41.8373 23.1595 40.322 22.1067 38.4973L32.5 32.5V20.5Z" fill="#FFBF71"/>
<path d="M20.5 32.5C20.5 34.0759 20.8104 35.6363 21.4134 37.0922C22.0165 38.5481 22.9004 39.871 24.0147 40.9853C25.129 42.0996 26.4519 42.9835 27.9078 43.5866C29.3637 44.1896 30.9241 44.5 32.5 44.5C34.0759 44.5 35.6363 44.1896 37.0922 43.5866C38.5481 42.9835 39.871 42.0996 40.9853 40.9853C42.0996 39.871 42.9835 38.5481 43.5866 37.0922C44.1896 35.6363 44.5005 34.0767 44.5005 32.5008C44.5005 29.3182 43.2357 26.2652 40.9853 24.0147C38.7348 21.7643 35.6826 20.5 32.5 20.5C29.3174 20.5 26.2652 21.7643 24.0147 24.0147C21.7643 26.2652 20.5 29.3174 20.5 32.5Z" fill="#FFBF71"/>
<path d="M22.1067 38.4973L21.6069 37.6312L20.7407 38.131L21.2405 38.9971L22.1067 38.4973ZM32.5 32.5L32.9998 33.3661L33.5 33.0775V32.5H32.5ZM20.5 32.5L19.5 32.5L20.5 32.5ZM32.5 44.5V43.5V44.5ZM32.5 20.5L32.5 21.5C34.4311 21.4999 36.3281 22.0082 38.0005 22.9737L38.5005 22.1077L39.0005 21.2416C37.0241 20.1006 34.7821 19.4999 32.5 19.5L32.5 20.5ZM38.5005 22.1077L38.0005 22.9737C39.6728 23.9392 41.0615 25.3279 42.027 27.0003L42.893 26.5003L43.7591 26.0004C42.618 24.0239 40.9769 22.3827 39.0005 21.2416L38.5005 22.1077ZM42.893 26.5003L42.027 27.0003C42.9924 28.6727 43.5006 30.5697 43.5005 32.5008L44.5005 32.5008L45.5005 32.5009C45.5007 30.2188 44.9001 27.9768 43.7591 26.0004L42.893 26.5003ZM44.5005 32.5008L43.5005 32.5008C43.5004 34.4318 42.9919 36.3288 42.0262 38.001L42.8922 38.5011L43.7581 39.0012C44.8994 37.0249 45.5004 34.783 45.5005 32.5009L44.5005 32.5008ZM42.8922 38.5011L42.0262 38.001C41.0605 39.6732 39.6716 41.0618 37.9991 42.0271L38.499 42.8932L38.9989 43.7593C40.9754 42.6185 42.6169 40.9775 43.7581 39.0012L42.8922 38.5011ZM38.499 42.8932L37.9991 42.0271C36.3267 42.9924 34.4296 43.5004 32.4985 43.5L32.4983 44.5L32.4981 45.5C34.7803 45.5004 37.0223 44.9001 38.9989 43.7593L38.499 42.8932ZM32.4983 44.5L32.4985 43.5C30.5675 43.4996 28.6705 42.991 26.9984 42.0251L26.4982 42.891L25.998 43.7569C27.9742 44.8984 30.216 45.4996 32.4981 45.5L32.4983 44.5ZM26.4982 42.891L26.9984 42.0251C25.3263 41.0592 23.9379 39.6701 22.9728 37.9976L22.1067 38.4973L21.2405 38.9971C22.3811 40.9738 24.0219 42.6154 25.998 43.7569L26.4982 42.891ZM22.1067 38.4973L22.6065 39.3635L32.9998 33.3661L32.5 32.5L32.0002 31.6339L21.6069 37.6312L22.1067 38.4973ZM32.5 32.5H33.5V20.5H32.5H31.5V32.5H32.5ZM20.5 32.5L19.5 32.5C19.5 34.2072 19.8363 35.8977 20.4896 37.4749L21.4134 37.0922L22.3373 36.7095C21.7845 35.3749 21.5 33.9445 21.5 32.5L20.5 32.5ZM21.4134 37.0922L20.4896 37.4749C21.1429 39.0521 22.1005 40.4852 23.3076 41.6924L24.0147 40.9853L24.7218 40.2782C23.7004 39.2567 22.8901 38.0441 22.3373 36.7095L21.4134 37.0922ZM24.0147 40.9853L23.3076 41.6924C24.5148 42.8995 25.9479 43.8571 27.5251 44.5104L27.9078 43.5866L28.2905 42.6627C26.9559 42.1099 25.7433 41.2996 24.7218 40.2782L24.0147 40.9853ZM27.9078 43.5866L27.5251 44.5104C29.1023 45.1637 30.7928 45.5 32.5 45.5V44.5V43.5C31.0555 43.5 29.6251 43.2155 28.2905 42.6627L27.9078 43.5866ZM32.5 44.5V45.5C34.2072 45.5 35.8977 45.1637 37.4749 44.5104L37.0922 43.5866L36.7095 42.6627C35.3749 43.2155 33.9445 43.5 32.5 43.5V44.5ZM37.0922 43.5866L37.4749 44.5104C39.0521 43.8571 40.4852 42.8995 41.6924 41.6924L40.9853 40.9853L40.2782 40.2782C39.2567 41.2996 38.0441 42.1099 36.7095 42.6627L37.0922 43.5866ZM40.9853 40.9853L41.6924 41.6924C42.8995 40.4852 43.8571 39.0521 44.5104 37.4749L43.5866 37.0922L42.6627 36.7095C42.1099 38.0441 41.2996 39.2567 40.2782 40.2782L40.9853 40.9853ZM43.5866 37.0922L44.5104 37.4749C45.1636 35.8979 45.5005 34.2083 45.5005 32.5008L44.5005 32.5008L43.5005 32.5008C43.5005 33.9451 43.2156 35.3747 42.6627 36.7095L43.5866 37.0922ZM44.5005 32.5008L45.5005 32.5008C45.5005 29.053 44.1303 25.7456 41.6924 23.3076L40.9853 24.0147L40.2782 24.7218C42.3411 26.7848 43.5005 29.5835 43.5005 32.5008L44.5005 32.5008ZM40.9853 24.0147L41.6924 23.3076C39.2544 20.8696 35.9478 19.5 32.5 19.5V20.5V21.5C35.4174 21.5 38.2153 22.6589 40.2782 24.7218L40.9853 24.0147ZM32.5 20.5V19.5C29.0522 19.5 25.7456 20.8696 23.3076 23.3076L24.0147 24.0147L24.7218 24.7218C26.7847 22.6589 29.5826 21.5 32.5 21.5V20.5ZM24.0147 24.0147L23.3076 23.3076C20.8696 25.7456 19.5 29.0522 19.5 32.5L20.5 32.5L21.5 32.5C21.5 29.5826 22.6589 26.7847 24.7218 24.7218L24.0147 24.0147Z" fill="url(#paint0_linear_555_996)"/>
<defs>
<linearGradient id="paint0_linear_555_996" x1="32.5003" y1="20.5" x2="32.5003" y2="44.5" gradientUnits="userSpaceOnUse">
<stop stop-color="#996419"/>
<stop offset="1" stop-color="#FFA629"/>
</linearGradient>
</defs>
</svg>
