<svg width="66" height="65" viewBox="0 0 66 65" fill="none" xmlns="http://www.w3.org/2000/svg">
<rect x="0.5" width="65" height="65" rx="18" fill="#FDD7DA"/>
<path d="M18 38.5C18.0008 39.2954 18.3172 40.058 18.8796 40.6204C19.442 41.1828 20.2046 41.4992 21 41.5H29.3675L29.1175 43.5H26C25.7348 43.5 25.4804 43.6054 25.2929 43.7929C25.1054 43.9804 25 44.2348 25 44.5C25 44.7652 25.1054 45.0196 25.2929 45.2071C25.4804 45.3946 25.7348 45.5 26 45.5H40C40.2652 45.5 40.5196 45.3946 40.7071 45.2071C40.8946 45.0196 41 44.7652 41 44.5C41 44.2348 40.8946 43.9804 40.7071 43.7929C40.5196 43.6054 40.2652 43.5 40 43.5H36.8825L36.6325 41.5H45C45.7954 41.4992 46.558 41.1828 47.1204 40.6204C47.6828 40.058 47.9992 39.2954 48 38.5V35.5H18V38.5ZM33 37.5C33.1978 37.5 33.3911 37.5586 33.5556 37.6685C33.72 37.7784 33.8482 37.9346 33.9239 38.1173C33.9996 38.3 34.0194 38.5011 33.9808 38.6951C33.9422 38.8891 33.847 39.0673 33.7071 39.2071C33.5673 39.347 33.3891 39.4422 33.1951 39.4808C33.0011 39.5194 32.8 39.4996 32.6173 39.4239C32.4346 39.3482 32.2784 39.22 32.1685 39.0556C32.0586 38.8911 32 38.6978 32 38.5C32 38.2348 32.1054 37.9804 32.2929 37.7929C32.4804 37.6054 32.7348 37.5 33 37.5ZM48 22.5C47.9992 21.7046 47.6828 20.942 47.1204 20.3796C46.558 19.8172 45.7954 19.5008 45 19.5H21C20.2046 19.5008 19.442 19.8172 18.8796 20.3796C18.3172 20.942 18.0008 21.7046 18 22.5V34.5H48V22.5Z" fill="url(#paint0_linear_555_995)"/>
<defs>
<linearGradient id="paint0_linear_555_995" x1="33" y1="19.5" x2="33" y2="45.5" gradientUnits="userSpaceOnUse">
<stop stop-color="#F76B79"/>
<stop offset="1" stop-color="#F54254"/>
</linearGradient>
</defs>
</svg>
