<svg width="65" height="65" viewBox="0 0 65 65" fill="none" xmlns="http://www.w3.org/2000/svg">
<rect width="65" height="65" rx="18" fill="#FFECD4"/>
<path d="M34.5 18.5C34.5 17.9696 34.2893 17.4609 33.9142 17.0858C33.5391 16.7107 33.0304 16.5 32.5 16.5C31.9696 16.5 31.4609 16.7107 31.0858 17.0858C30.7107 17.4609 30.5 17.9696 30.5 18.5V20.5C30.5 21.0304 30.7107 21.5391 31.0858 21.9142C31.4609 22.2893 31.9696 22.5 32.5 22.5C33.0304 22.5 33.5391 22.2893 33.9142 21.9142C34.2893 21.5391 34.5 21.0304 34.5 20.5V18.5ZM43.814 24.014C44.1783 23.6368 44.3799 23.1316 44.3753 22.6072C44.3708 22.0828 44.1605 21.5812 43.7896 21.2104C43.4188 20.8395 42.9172 20.6292 42.3928 20.6247C41.8684 20.6201 41.3632 20.8217 40.986 21.186L39.572 22.6C39.2077 22.9772 39.0061 23.4824 39.0107 24.0068C39.0152 24.5312 39.2255 25.0328 39.5964 25.4036C39.9672 25.7745 40.4688 25.9848 40.9932 25.9893C41.5176 25.9939 42.0228 25.7923 42.4 25.428L43.814 24.014ZM48.5 32.5C48.5 33.0304 48.2893 33.5391 47.9142 33.9142C47.5391 34.2893 47.0304 34.5 46.5 34.5H44.5C43.9696 34.5 43.4609 34.2893 43.0858 33.9142C42.7107 33.5391 42.5 33.0304 42.5 32.5C42.5 31.9696 42.7107 31.4609 43.0858 31.0858C43.4609 30.7107 43.9696 30.5 44.5 30.5H46.5C47.0304 30.5 47.5391 30.7107 47.9142 31.0858C48.2893 31.4609 48.5 31.9696 48.5 32.5ZM22.6 25.428C22.7845 25.619 23.0052 25.7714 23.2492 25.8762C23.4932 25.981 23.7556 26.0362 24.0212 26.0385C24.2868 26.0408 24.5501 25.9902 24.7959 25.8896C25.0417 25.7891 25.265 25.6406 25.4528 25.4528C25.6406 25.265 25.7891 25.0417 25.8896 24.7959C25.9902 24.5501 26.0408 24.2868 26.0385 24.0212C26.0362 23.7556 25.981 23.4932 25.8762 23.2492C25.7714 23.0052 25.619 22.7845 25.428 22.6L24.014 21.186C23.6368 20.8217 23.1316 20.6201 22.6072 20.6247C22.0828 20.6292 21.5812 20.8395 21.2104 21.2104C20.8395 21.5812 20.6292 22.0828 20.6247 22.6072C20.6201 23.1316 20.8217 23.6368 21.186 24.014L22.6 25.428ZM22.5 32.5C22.5 33.0304 22.2893 33.5391 21.9142 33.9142C21.5391 34.2893 21.0304 34.5 20.5 34.5H18.5C17.9696 34.5 17.4609 34.2893 17.0858 33.9142C16.7107 33.5391 16.5 33.0304 16.5 32.5C16.5 31.9696 16.7107 31.4609 17.0858 31.0858C17.4609 30.7107 17.9696 30.5 18.5 30.5H20.5C21.0304 30.5 21.5391 30.7107 21.9142 31.0858C22.2893 31.4609 22.5 31.9696 22.5 32.5ZM28.5 44.5V42.5H36.5V44.5C36.5 45.5609 36.0786 46.5783 35.3284 47.3284C34.5783 48.0786 33.5609 48.5 32.5 48.5C31.4391 48.5 30.4217 48.0786 29.6716 47.3284C28.9214 46.5783 28.5 45.5609 28.5 44.5ZM36.5 40.5C36.53 39.82 36.916 39.208 37.454 38.782C38.7594 37.7525 39.7116 36.3419 40.1783 34.7463C40.645 33.1507 40.603 31.4493 40.0582 29.8787C39.5134 28.308 38.4927 26.9461 37.1382 25.9822C35.7836 25.0184 34.1625 24.5004 32.5 24.5004C30.8375 24.5004 29.2164 25.0184 27.8618 25.9822C26.5073 26.9461 25.4866 28.308 24.9418 29.8787C24.397 31.4493 24.355 33.1507 24.8217 34.7463C25.2884 36.3419 26.2406 37.7525 27.546 38.782C28.086 39.208 28.47 39.82 28.498 40.5H36.5Z" fill="#FAA538"/>
</svg>
