<svg width="65" height="65" viewBox="0 0 65 65" fill="none" xmlns="http://www.w3.org/2000/svg">
<rect width="65" height="65" rx="18" fill="#FDD4DF"/>
<path d="M30.5 20.5L27.1667 28.5L32.5 45.8333M32.5 45.8333L37.8334 28.5L34.5 20.5M32.5 45.8333C32.923 45.8333 33.3392 45.7327 33.7155 45.5398C34.0919 45.347 34.417 45.0673 34.664 44.724L45.3174 30.076C45.6554 29.6147 45.8362 29.057 45.8331 28.4851C45.83 27.9133 45.6431 27.3576 45.3 26.9L41.3 21.5667C41.0516 21.2355 40.7296 20.9667 40.3593 20.7815C39.989 20.5964 39.5807 20.5 39.1667 20.5H25.8334C25.4186 20.5001 25.0095 20.5969 24.6387 20.7827C24.2679 20.9686 23.9456 21.2384 23.6974 21.5707L19.7 26.9C19.3568 27.3574 19.1697 27.913 19.1663 28.4849C19.1629 29.0568 19.3435 29.6146 19.6814 30.076L30.3347 44.724C30.5817 45.0673 30.9068 45.347 31.2832 45.5398C31.6596 45.7327 32.0771 45.8333 32.5 45.8333ZM19.1667 28.5H45.8334" stroke="url(#paint0_linear_555_988)" stroke-width="2" stroke-linecap="round" stroke-linejoin="round"/>
<defs>
<linearGradient id="paint0_linear_555_988" x1="32.4998" y1="20.5" x2="32.4998" y2="45.8333" gradientUnits="userSpaceOnUse">
<stop stop-color="#F73F70"/>
<stop offset="1" stop-color="#BF0839"/>
</linearGradient>
</defs>
</svg>
