<svg width="56" height="56" viewBox="0 0 56 56" fill="none" xmlns="http://www.w3.org/2000/svg">
<rect x="4" y="4" width="48" height="48" rx="24" fill="#FEE4E2"/>
<rect x="4" y="4" width="48" height="48" rx="24" stroke="#FEF3F2" stroke-width="8"/>
<path d="M28 32V27.5M28 23.9983V23.9883M29.9248 36H26.0752C21.4448 36 19.1296 36 18.2764 34.4939C17.4232 32.9879 18.6074 30.9914 20.9757 26.9985L22.9006 23.7533C25.1756 19.9178 26.3131 18 28 18C29.6869 18 30.8244 19.9178 33.0994 23.7533L35.0243 26.9985C37.3926 30.9914 38.5768 32.9879 37.7236 34.4939C36.8704 36 34.5552 36 29.9248 36Z" stroke="#BF0839" stroke-width="2" stroke-linecap="round" stroke-linejoin="round"/>
</svg>
