<svg width="65" height="65" viewBox="0 0 65 65" fill="none" xmlns="http://www.w3.org/2000/svg">
<rect width="65" height="65" rx="18" fill="#FFECD4"/>
<path d="M36.128 46.7133C42.0573 45.2066 46.544 40.0853 47.1067 33.8333H40.4653C40.2173 38.5626 38.6573 42.9626 36.128 46.7133ZM47.1067 31.1666C46.544 24.9133 42.0533 19.7906 36.1227 18.284C38.6533 22.036 40.216 26.436 40.4653 31.1666H47.1067ZM28.8787 18.284C22.9453 19.7906 18.4573 24.9133 17.892 31.1666H24.5347C24.784 26.436 26.3467 22.036 28.8787 18.284ZM17.8933 33.8333C18.1703 36.8507 19.3741 39.7086 21.3398 42.0146C23.3054 44.3207 25.9365 45.962 28.872 46.7133C26.3427 42.9626 24.7827 38.5626 24.5347 33.8333H17.8933ZM32.5 47.116C29.424 43.4026 27.4973 38.8213 27.2067 33.8333H37.7947C37.5013 38.82 35.576 43.4026 32.5013 47.116M32.5 17.8906C35.576 21.6026 37.5 26.1826 37.7933 31.1666H27.2067C27.5 26.1826 29.4253 21.6026 32.5 17.8906Z" fill="#FFA629"/>
</svg>
