<svg width="24" height="24" viewBox="0 0 24 24" fill="none" xmlns="http://www.w3.org/2000/svg">
<path d="M12.766 0.765957C12.766 0.342931 12.423 0 12 0C11.577 0 11.234 0.342931 11.234 0.765957V2.80851C11.234 3.23154 11.577 3.57447 12 3.57447C12.423 3.57447 12.766 3.23154 12.766 2.80851V0.765957Z" fill="#2D264B"/>
<path d="M4.59795 3.51472C4.29882 3.21559 3.81384 3.21559 3.51472 3.51472C3.21559 3.81384 3.21559 4.29882 3.51472 4.59795L4.95902 6.04225C5.25815 6.34137 5.74312 6.34137 6.04225 6.04225C6.34137 5.74312 6.34137 5.25815 6.04225 4.95902L4.59795 3.51472Z" fill="#2D264B"/>
<path d="M20.4853 4.59795C20.7844 4.29882 20.7844 3.81384 20.4853 3.51472C20.1862 3.21559 19.7012 3.21559 19.4021 3.51472L17.9577 4.95902C17.6586 5.25815 17.6586 5.74312 17.9577 6.04225C18.2569 6.34137 18.7419 6.34137 19.041 6.04225L20.4853 4.59795Z" fill="#2D264B"/>
<path fill-rule="evenodd" clip-rule="evenodd" d="M12 5.10638C8.19276 5.10638 5.10638 8.19276 5.10638 12C5.10638 15.8072 8.19276 18.8936 12 18.8936C15.8072 18.8936 18.8936 15.8072 18.8936 12C18.8936 8.19276 15.8072 5.10638 12 5.10638ZM6.6383 12C6.6383 9.03881 9.03881 6.6383 12 6.6383C14.9612 6.6383 17.3617 9.03881 17.3617 12C17.3617 14.9612 14.9612 17.3617 12 17.3617C9.03881 17.3617 6.6383 14.9612 6.6383 12Z" fill="#2D264B"/>
<path d="M0.765957 11.234C0.342931 11.234 0 11.577 0 12C0 12.423 0.342931 12.766 0.765957 12.766H2.80851C3.23154 12.766 3.57447 12.423 3.57447 12C3.57447 11.577 3.23154 11.234 2.80851 11.234H0.765957Z" fill="#2D264B"/>
<path d="M21.1915 11.234C20.7685 11.234 20.4255 11.577 20.4255 12C20.4255 12.423 20.7685 12.766 21.1915 12.766H23.234C23.6571 12.766 24 12.423 24 12C24 11.577 23.6571 11.234 23.234 11.234H21.1915Z" fill="#2D264B"/>
<path d="M6.04225 19.041C6.34137 18.7419 6.34137 18.2569 6.04225 17.9577C5.74312 17.6586 5.25815 17.6586 4.95902 17.9577L3.51472 19.4021C3.21559 19.7012 3.21559 20.1862 3.51472 20.4853C3.81384 20.7844 4.29882 20.7844 4.59795 20.4853L6.04225 19.041Z" fill="#2D264B"/>
<path d="M19.041 17.9577C18.7419 17.6586 18.2569 17.6586 17.9577 17.9577C17.6586 18.2569 17.6586 18.7419 17.9577 19.041L19.4021 20.4853C19.7012 20.7844 20.1862 20.7844 20.4853 20.4853C20.7844 20.1862 20.7844 19.7012 20.4853 19.4021L19.041 17.9577Z" fill="#2D264B"/>
<path d="M12.766 21.1915C12.766 20.7685 12.423 20.4255 12 20.4255C11.577 20.4255 11.234 20.7685 11.234 21.1915V23.234C11.234 23.6571 11.577 24 12 24C12.423 24 12.766 23.6571 12.766 23.234V21.1915Z" fill="#2D264B"/>
</svg>
