<svg width="65" height="65" viewBox="0 0 65 65" fill="none" xmlns="http://www.w3.org/2000/svg">
<rect width="65" height="65" rx="18" fill="#E0DBF5"/>
<path d="M23.1667 19.1666H25.8333V23.1666H23.1667V19.1666ZM28.5 19.1666H31.1667V23.1666H28.5V19.1666ZM33.8333 19.1666H36.5V23.1666H33.8333V19.1666ZM41.8333 28.5H39.1667V27.1666C39.1667 26.813 39.0262 26.4739 38.7761 26.2238C38.5261 25.9738 38.187 25.8333 37.8333 25.8333H21.8333C21.4797 25.8333 21.1406 25.9738 20.8905 26.2238C20.6405 26.4739 20.5 26.813 20.5 27.1666V40.5C20.5 41.5608 20.9214 42.5782 21.6716 43.3284C22.4217 44.0785 23.4391 44.5 24.5 44.5H35.1667C36.2275 44.5 37.2449 44.0785 37.9951 43.3284C38.7452 42.5782 39.1667 41.5608 39.1667 40.5H41.8333C43.304 40.5 44.5 39.304 44.5 37.8333V31.1666C44.5 29.696 43.304 28.5 41.8333 28.5ZM39.1667 37.8333V31.1666H41.8333L41.836 37.8333H39.1667Z" fill="url(#paint0_linear_555_984)"/>
<defs>
<linearGradient id="paint0_linear_555_984" x1="32.5" y1="19.1666" x2="32.5" y2="44.5" gradientUnits="userSpaceOnUse">
<stop stop-color="#3E298F"/>
<stop offset="1" stop-color="#644ACB"/>
</linearGradient>
</defs>
</svg>
