<svg width="65" height="65" viewBox="0 0 65 65" fill="none" xmlns="http://www.w3.org/2000/svg">
<rect width="65" height="65" rx="18" fill="#F5C7E1"/>
<path d="M45.816 41.4733C45.7546 41.8811 45.5994 42.269 45.3627 42.6067C45.1271 42.9384 44.8151 43.2086 44.4531 43.3943C44.091 43.5799 43.6896 43.6757 43.2827 43.6733H41.0814C40.9248 43.6729 40.7706 43.6351 40.6314 43.5633C40.4923 43.4914 40.3723 43.3874 40.2813 43.26C40.1893 43.1327 40.1282 42.9857 40.1027 42.8306C40.0773 42.6756 40.0882 42.5168 40.1347 42.3667C40.628 40.7933 40.5213 39.02 36.0533 36.18C35.8713 36.0607 35.7318 35.8867 35.6551 35.683C35.5784 35.4792 35.5685 35.2564 35.6267 35.0467C35.6892 34.8401 35.816 34.6588 35.9886 34.5293C36.1613 34.3998 36.3708 34.3288 36.5867 34.3267C38.4937 34.3526 40.3548 34.9155 41.9566 35.9508C43.5583 36.9861 44.8359 38.4519 45.6427 40.18C45.8067 40.5901 45.8662 41.0345 45.816 41.4733ZM42.4813 26.7667C42.4778 28.3288 41.8556 29.826 40.7509 30.9305C39.6461 32.035 38.1488 32.6568 36.5867 32.66C36.4117 32.6568 36.2405 32.6084 36.0898 32.5194C35.939 32.4304 35.814 32.3038 35.7267 32.1521C35.6394 32.0004 35.5929 31.8286 35.5917 31.6536C35.5906 31.4786 35.6348 31.3062 35.72 31.1533C36.536 29.8479 36.9686 28.3395 36.9686 26.8C36.9686 25.2606 36.536 23.7521 35.72 22.4467C35.6154 22.2972 35.5537 22.122 35.5416 21.94C35.5294 21.758 35.5672 21.5762 35.651 21.4141C35.7348 21.2521 35.8613 21.116 36.0168 21.0207C36.1723 20.9254 36.3509 20.8744 36.5333 20.8733C37.314 20.8714 38.0868 21.0288 38.8044 21.336C39.522 21.6433 40.1693 22.0938 40.7067 22.66C41.8035 23.7675 42.4216 25.2613 42.428 26.82L42.4813 26.7667Z" fill="url(#paint0_linear_555_991)"/>
<path d="M38.7333 41.4333C38.7873 42.0861 38.6588 42.7409 38.3621 43.3248C38.0654 43.9087 37.6123 44.3987 37.0534 44.74C36.496 45.0827 35.8533 45.2627 35.2 45.26H22.7027C22.0485 45.263 21.4065 45.0828 20.8493 44.74C20.2891 44.4008 19.8355 43.9108 19.5403 43.3262C19.2452 42.7415 19.1203 42.0856 19.18 41.4333C19.2284 40.7826 19.4595 40.1586 19.8467 39.6333C20.9098 38.2189 22.279 37.0632 23.8518 36.2528C25.4247 35.4423 27.1605 34.9981 28.9293 34.9533C30.7043 34.9886 32.4479 35.427 34.0284 36.2355C35.6089 37.044 36.9848 38.2014 38.052 39.62C38.4401 40.151 38.6766 40.7781 38.7333 41.4333ZM35.4934 26.26C35.4898 27.9934 34.8004 29.6549 33.5758 30.8816C32.3511 32.1082 30.6907 32.8003 28.9573 32.8067C27.9923 32.8043 27.0396 32.5883 26.1679 32.1741C25.2962 31.7599 24.527 31.1579 23.9156 30.4112C23.3041 29.6645 22.8656 28.7917 22.6314 27.8554C22.3973 26.9191 22.3734 25.9426 22.5613 24.996C22.7501 24.0492 23.1464 23.1559 23.7217 22.3805C24.297 21.6052 25.037 20.9669 25.8884 20.5118C26.7399 20.0566 27.6816 19.7958 28.6459 19.7481C29.6103 19.7004 30.5731 19.867 31.4654 20.236C32.6586 20.7287 33.6791 21.5638 34.3981 22.6359C35.1171 23.708 35.5024 24.9691 35.5054 26.26H35.4934Z" fill="url(#paint1_linear_555_991)"/>
<defs>
<linearGradient id="paint0_linear_555_991" x1="32.4994" y1="19.7401" x2="32.4994" y2="45.26" gradientUnits="userSpaceOnUse">
<stop stop-color="#AD1F70"/>
<stop offset="1" stop-color="#E158A6"/>
</linearGradient>
<linearGradient id="paint1_linear_555_991" x1="32.4994" y1="19.7401" x2="32.4994" y2="45.26" gradientUnits="userSpaceOnUse">
<stop stop-color="#AD1F70"/>
<stop offset="1" stop-color="#E158A6"/>
</linearGradient>
</defs>
</svg>
