<svg width="65" height="65" viewBox="0 0 65 65" fill="none" xmlns="http://www.w3.org/2000/svg">
<rect width="65" height="65" rx="18" fill="#FFECD4"/>
<path fill-rule="evenodd" clip-rule="evenodd" d="M32.5693 18.1666H32.4306C31.232 18.1666 30.2333 18.1666 29.4413 18.2733C28.604 18.3853 27.848 18.6333 27.2413 19.24C26.6333 19.848 26.3853 20.604 26.2733 21.44C26.1973 22.0093 26.1746 23.368 26.1693 24.5333C23.4733 24.6226 21.8533 24.9373 20.7293 26.0626C19.1666 27.624 19.1666 30.1386 19.1666 35.1666C19.1666 40.1946 19.1666 42.7093 20.7293 44.2706C22.292 45.832 24.8053 45.8333 29.8333 45.8333H35.1666C40.1946 45.8333 42.7093 45.8333 44.2706 44.2706C45.832 42.708 45.8333 40.1946 45.8333 35.1666C45.8333 30.1386 45.8333 27.624 44.2706 26.0626C43.1466 24.9373 41.5266 24.6226 38.8306 24.5346C38.8253 23.368 38.804 22.0093 38.7266 21.4413C38.6146 20.604 38.3666 19.848 37.7586 19.2413C37.152 18.6333 36.396 18.3853 35.5586 18.2733C34.7666 18.1666 33.7666 18.1666 32.5693 18.1666ZM36.8306 24.5026C36.824 23.3733 36.8053 22.1586 36.7453 21.7066C36.6613 21.092 36.5186 20.828 36.3453 20.6546C36.172 20.4813 35.908 20.3386 35.292 20.2546C34.6493 20.1693 33.7853 20.1666 32.5 20.1666C31.2146 20.1666 30.3506 20.1693 29.7066 20.256C29.092 20.3386 28.828 20.4813 28.6546 20.656C28.4813 20.8306 28.3386 21.092 28.2546 21.7066C28.1946 22.16 28.1746 23.3733 28.1693 24.5026C28.692 24.5 29.2466 24.4991 29.8333 24.5H35.1666C35.7551 24.5 36.3097 24.5008 36.8306 24.5026ZM32.5 28.8333C32.7652 28.8333 33.0195 28.9386 33.2071 29.1262C33.3946 29.3137 33.5 29.5681 33.5 29.8333V29.8466C34.952 30.212 36.1666 31.3573 36.1666 32.944C36.1666 33.2092 36.0613 33.4635 35.8737 33.6511C35.6862 33.8386 35.4318 33.944 35.1666 33.944C34.9014 33.944 34.6471 33.8386 34.4595 33.6511C34.272 33.4635 34.1666 33.2092 34.1666 32.944C34.1666 32.432 33.5986 31.7226 32.5 31.7226C31.4013 31.7226 30.8333 32.432 30.8333 32.944C30.8333 33.456 31.4013 34.1666 32.5 34.1666C34.3466 34.1666 36.1666 35.4466 36.1666 37.3893C36.1666 38.976 34.952 40.12 33.5 40.4866V40.5C33.5 40.7652 33.3946 41.0195 33.2071 41.2071C33.0195 41.3946 32.7652 41.5 32.5 41.5C32.2347 41.5 31.9804 41.3946 31.7929 41.2071C31.6053 41.0195 31.5 40.7652 31.5 40.5V40.4866C30.048 40.1213 28.8333 38.976 28.8333 37.3893C28.8333 37.1241 28.9386 36.8697 29.1262 36.6822C29.3137 36.4946 29.5681 36.3893 29.8333 36.3893C30.0985 36.3893 30.3529 36.4946 30.5404 36.6822C30.7279 36.8697 30.8333 37.1241 30.8333 37.3893C30.8333 37.9013 31.4013 38.6106 32.5 38.6106C33.5986 38.6106 34.1666 37.9013 34.1666 37.3893C34.1666 36.8773 33.5986 36.1666 32.5 36.1666C30.6533 36.1666 28.8333 34.8866 28.8333 32.944C28.8333 31.3573 30.048 30.212 31.5 29.8466V29.8333C31.5 29.5681 31.6053 29.3137 31.7929 29.1262C31.9804 28.9386 32.2347 28.8333 32.5 28.8333Z" fill="url(#paint0_linear_557_2152)"/>
<defs>
<linearGradient id="paint0_linear_557_2152" x1="32.5" y1="18.1666" x2="32.5" y2="45.8333" gradientUnits="userSpaceOnUse">
<stop stop-color="#FFBF71"/>
<stop offset="1" stop-color="#996419"/>
</linearGradient>
</defs>
</svg>
