<svg width="65" height="65" viewBox="0 0 65 65" fill="none" xmlns="http://www.w3.org/2000/svg">
<rect width="65" height="65" rx="18" fill="#FDD4DF"/>
<path d="M25.6429 18.5V24.5H34.7858V22.5H39.0786C39.3786 22.5 39.6715 22.6062 39.8858 22.7937L42.3072 24.9125C43.2 25.6938 44.65 25.6938 45.5429 24.9125C46.4358 24.1313 46.4358 22.8625 45.5429 22.0813L43.1215 19.9625C42.05 19.025 40.5929 18.5 39.0786 18.5H34.7858C34.7858 17.3937 33.7643 16.5 32.5 16.5H27.9286C26.6643 16.5 25.6429 17.3937 25.6429 18.5ZM24.8858 26.5C22.5072 26.5 20.5286 28.0937 20.3286 30.1687L19 44.1688C18.7786 46.5 20.8786 48.5 23.5572 48.5H36.8715C39.5429 48.5 41.65 46.5 41.4286 44.1688L40.0929 30.1687C39.8929 28.0937 37.9143 26.5 35.5358 26.5H24.8858ZM34.7858 39C34.7858 41.2062 32.7358 42.5 30.2143 42.5C27.6929 42.5 25.6429 41.2062 25.6429 39C25.6429 36.9688 28.2858 33.9438 29.2786 32.8813C29.5072 32.6375 29.8572 32.5 30.2143 32.5C30.5715 32.5 30.9215 32.6375 31.15 32.8813C32.1429 33.9438 34.7858 36.9688 34.7858 39Z" fill="url(#paint0_linear_555_990)"/>
<defs>
<linearGradient id="paint0_linear_555_990" x1="32.5983" y1="16.5" x2="32.5983" y2="48.5" gradientUnits="userSpaceOnUse">
<stop stop-color="#F73F70"/>
<stop offset="1" stop-color="#BF0839"/>
</linearGradient>
</defs>
</svg>
