<svg width="73" height="61" viewBox="0 0 73 61" fill="none" xmlns="http://www.w3.org/2000/svg">
<path d="M36.1449 20.9593L31.2678 40.0122H25.3687L30.2463 20.9593H36.1449ZM60.9618 33.262L64.0665 26.1072L65.8532 33.262H60.9618ZM67.5455 40.0122H73L68.2348 20.9593H63.2034C62.0695 20.9593 61.1136 21.5087 60.6905 22.3559L51.8396 40.0122H58.0346L59.2643 37.1667H66.8312L67.5455 40.0122ZM52.1467 33.7921C52.1724 28.7637 43.8281 28.4851 43.884 26.2384C43.902 25.5557 44.6815 24.8285 46.3851 24.6425C47.2297 24.5517 49.5605 24.478 52.2026 25.4953L53.236 21.4534C51.817 21.0244 49.9908 20.6113 47.7184 20.6113C41.887 20.6113 37.7849 23.1997 37.7521 26.909C37.7146 29.652 40.6824 31.1815 42.9137 32.0951C45.2143 33.0289 45.9851 33.6275 45.9738 34.4619C45.9579 35.7402 44.1394 36.3063 42.446 36.3277C39.4788 36.3662 37.7587 35.6575 36.3879 35.1235L35.3172 39.3004C36.6977 39.8283 39.2413 40.2877 41.8752 40.3113C48.0749 40.3113 52.1283 37.7534 52.1467 33.7921ZM27.716 20.9593L18.1583 40.0122H11.9238L7.22015 24.8066C6.93502 23.8716 6.6863 23.5279 5.8191 23.1328C4.40061 22.4891 2.05902 21.8871 0 21.5125L0.139492 20.9593H10.1766C11.4551 20.9593 12.6054 21.6702 12.8982 22.901L15.3829 33.9271L21.5189 20.9593H27.716Z" fill="#1434CB"/>
</svg>
