<svg width="65" height="65" viewBox="0 0 65 65" fill="none" xmlns="http://www.w3.org/2000/svg">
<rect width="65" height="65" rx="18" fill="#F5C7E1"/>
<path fill-rule="evenodd" clip-rule="evenodd" d="M33.2907 47.5106L33.276 47.5133L33.1813 47.56L33.1547 47.5653L33.136 47.56L33.0413 47.5133C33.0271 47.5088 33.0164 47.5111 33.0093 47.52L33.004 47.5333L32.9813 48.104L32.988 48.1306L33.0013 48.148L33.14 48.2466L33.16 48.252L33.176 48.2466L33.3147 48.148L33.3307 48.1266L33.336 48.104L33.3133 47.5346C33.3098 47.5204 33.3022 47.5124 33.2907 47.5106ZM33.644 47.36L33.6267 47.3626L33.38 47.4866L33.3667 47.5L33.3627 47.5146L33.3867 48.088L33.3933 48.104L33.404 48.1133L33.672 48.2373C33.6889 48.2417 33.7018 48.2382 33.7107 48.2266L33.716 48.208L33.6707 47.3893C33.6662 47.3733 33.6573 47.3635 33.644 47.36ZM32.6907 47.3626C32.6848 47.3591 32.6778 47.3579 32.6711 47.3594C32.6644 47.3609 32.6585 47.3649 32.6547 47.3706L32.6467 47.3893L32.6013 48.208C32.6022 48.224 32.6098 48.2346 32.624 48.24L32.644 48.2373L32.912 48.1133L32.9253 48.1026L32.9307 48.088L32.9533 47.5146L32.9493 47.4986L32.936 47.4853L32.6907 47.3626Z" fill="url(#paint0_linear_555_992)"/>
<path fill-rule="evenodd" clip-rule="evenodd" d="M43.1667 33.8333V40.5C43.1667 41.5608 42.7452 42.5782 41.9951 43.3284C41.2449 44.0785 40.2275 44.5 39.1667 44.5H33.8333V33.8333H43.1667ZM31.1667 33.8333V44.5H25.8333C24.7725 44.5 23.7551 44.0785 23.0049 43.3284C22.2548 42.5782 21.8333 41.5608 21.8333 40.5V33.8333H31.1667ZM28.5 19.1666C29.2566 19.1666 30.0046 19.3275 30.6943 19.6388C31.3839 19.9501 31.9995 20.4045 32.5 20.972C33.0005 20.4045 33.6161 19.9501 34.3057 19.6388C34.9954 19.3275 35.7434 19.1666 36.5 19.1666H37.1667C37.6971 19.1666 38.2058 19.3773 38.5809 19.7524C38.956 20.1275 39.1667 20.6362 39.1667 21.1666V21.8333C39.1667 22.8053 38.9067 23.716 38.4533 24.5H41.8333C42.5406 24.5 43.2189 24.7809 43.719 25.281C44.219 25.7811 44.5 26.4594 44.5 27.1666V29.8333C44.5 30.3186 44.3707 30.7746 44.1427 31.1666H33.8333V27.1666C33.8333 26.813 33.6929 26.4739 33.4428 26.2238C33.1928 25.9738 32.8536 25.8333 32.5 25.8333C32.1464 25.8333 31.8072 25.9738 31.5572 26.2238C31.3071 26.4739 31.1667 26.813 31.1667 27.1666V31.1666H20.8573C20.6233 30.7612 20.5 30.3014 20.5 29.8333V27.1666C20.5 26.4594 20.781 25.7811 21.281 25.281C21.7811 24.7809 22.4594 24.5 23.1667 24.5H26.5467C26.079 23.6891 25.833 22.7694 25.8333 21.8333V21.1666C25.8333 20.6362 26.044 20.1275 26.4191 19.7524C26.7942 19.3773 27.3029 19.1666 27.8333 19.1666H28.5ZM28.5 21.8333C28.5 22.5405 28.781 23.2188 29.281 23.7189C29.7811 24.219 30.4594 24.5 31.1667 24.5C31.1667 23.7927 30.8857 23.1144 30.3856 22.6143C29.8855 22.1142 29.2072 21.8333 28.5 21.8333ZM36.5 21.8333C35.7928 21.8333 35.1145 22.1142 34.6144 22.6143C34.1143 23.1144 33.8333 23.7927 33.8333 24.5C34.5406 24.5 35.2189 24.219 35.719 23.7189C36.219 23.2188 36.5 22.5405 36.5 21.8333Z" fill="url(#paint1_linear_555_992)"/>
<defs>
<linearGradient id="paint0_linear_555_992" x1="32.5" y1="19.1666" x2="32.5" y2="48.252" gradientUnits="userSpaceOnUse">
<stop stop-color="#AD1F70"/>
<stop offset="1" stop-color="#E158A6"/>
</linearGradient>
<linearGradient id="paint1_linear_555_992" x1="32.5" y1="19.1666" x2="32.5" y2="48.252" gradientUnits="userSpaceOnUse">
<stop stop-color="#AD1F70"/>
<stop offset="1" stop-color="#E158A6"/>
</linearGradient>
</defs>
</svg>
