<svg width="65" height="65" viewBox="0 0 65 65" fill="none" xmlns="http://www.w3.org/2000/svg">
<rect width="65" height="65" rx="18" fill="#FED1E6"/>
<path d="M38.7667 36.8667L42.3 33.3C43.0111 32.5889 43.5556 31.7778 43.9333 30.8667C44.3111 29.9556 44.5 29 44.5 28C44.5 25.9111 43.7724 24.1387 42.3173 22.6827C40.8622 21.2267 39.0898 20.4991 37 20.5C36 20.5 35.0444 20.6889 34.1333 21.0667C33.2222 21.4444 32.4111 21.9889 31.7 22.7L28.1333 26.2333L38.7667 36.8667ZM28 44.5C29 44.5 29.9556 44.3111 30.8667 43.9333C31.7778 43.5556 32.5889 43.0111 33.3 42.3L36.8667 38.7667L26.2333 28.1333L22.7 31.7C21.9889 32.4111 21.4444 33.2222 21.0667 34.1333C20.6889 35.0444 20.5 36 20.5 37C20.5 39.0889 21.228 40.8609 22.684 42.316C24.14 43.7711 25.912 44.4991 28 44.5Z" fill="#FA288A"/>
</svg>
