<svg width="65" height="65" viewBox="0 0 65 65" fill="none" xmlns="http://www.w3.org/2000/svg">
<rect width="65" height="65" rx="18" fill="#E4E7FC"/>
<path d="M21.3 23.5C21.3 21.8438 22.375 20.5 23.7 20.5C25.025 20.5 26.1 21.8438 26.1 23.5V30.5H38.9V23.5C38.9 21.8438 39.975 20.5 41.3 20.5C42.625 20.5 43.7 21.8438 43.7 23.5V24.5H44.5C45.825 24.5 46.9 25.8438 46.9 27.5V30.5C47.785 30.5 48.5 31.3937 48.5 32.5C48.5 33.6063 47.785 34.5 46.9 34.5V37.5C46.9 39.1562 45.825 40.5 44.5 40.5H43.7V41.5C43.7 43.1562 42.625 44.5 41.3 44.5C39.975 44.5 38.9 43.1562 38.9 41.5V34.5H26.1V41.5C26.1 43.1562 25.025 44.5 23.7 44.5C22.375 44.5 21.3 43.1562 21.3 41.5V40.5H20.5C19.175 40.5 18.1 39.1562 18.1 37.5V34.5C17.215 34.5 16.5 33.6063 16.5 32.5C16.5 31.3937 17.215 30.5 18.1 30.5V27.5C18.1 25.8438 19.175 24.5 20.5 24.5H21.3V23.5Z" fill="url(#paint0_linear_555_981)"/>
<defs>
<linearGradient id="paint0_linear_555_981" x1="32.5" y1="20.5" x2="32.5" y2="44.5" gradientUnits="userSpaceOnUse">
<stop stop-color="#2A218A"/>
<stop offset="1" stop-color="#253FE4"/>
</linearGradient>
</defs>
</svg>
