<svg width="20" height="22" viewBox="0 0 20 22" fill="none" xmlns="http://www.w3.org/2000/svg">
<path d="M13.0002 16C12.2007 16.6224 11.1504 17 10.0002 17C8.8499 17 7.79971 16.6224 7.00018 16M1 10.9896V13.5C1 16.7998 1 18.4497 2.02513 19.4749C3.05025 20.5 4.70017 20.5 8 20.5H12C15.2998 20.5 16.9497 20.5 17.9749 19.4749C19 18.4497 19 16.7998 19 13.5V10.9896C19 9.3083 19 8.46773 18.6441 7.74005C18.2882 7.01237 17.6247 6.49628 16.2976 5.46411L14.2976 3.90855C12.2331 2.30285 11.2009 1.5 10 1.5C8.7991 1.5 7.76689 2.30285 5.70242 3.90855L3.70241 5.46411C2.37533 6.49628 1.71179 7.01237 1.3559 7.74005C1 8.46773 1 9.3083 1 10.9896Z" stroke="#757575" stroke-width="1.5" stroke-linecap="round" stroke-linejoin="round"/>
</svg>
