<svg width="65" height="65" viewBox="0 0 65 65" fill="none" xmlns="http://www.w3.org/2000/svg">
<rect width="65" height="65" rx="18" fill="#E0DBF5"/>
<path d="M44.66 19.7C44.66 19.7 41.6925 19.6125 40.5085 20.7667C39.3693 21.876 38.9 22.7251 38.9 25.0333H19.06L22.0339 35.3032L22.0616 35.3501C22.5629 36.7517 23.8707 37.7608 25.4301 37.8205L25.4579 37.8333H39.3245V38.26C39.3245 38.26 39.3267 38.9 38.9 39.7533C38.4733 40.6067 38.26 41.0333 36.5533 41.0333H22.6867C20.5533 41.0333 20.5533 44.2333 22.6867 44.2333H36.34C38.9 44.2333 40.82 42.74 41.46 41.2467C42.1 39.7533 42.1 38.4733 42.1 38.4733V25.0333C42.1 23.9155 42.5885 22.9 43.5933 22.9H44.7667C45.191 22.9 45.598 22.7314 45.898 22.4314C46.1981 22.1313 46.3667 21.7243 46.3667 21.3C46.3667 20.8757 46.1981 20.4687 45.898 20.1686C45.598 19.8686 45.191 19.7 44.7667 19.7H44.66ZM36.1267 44.2333C34.8467 44.2333 33.9933 45.0867 33.9933 46.3667C33.9933 47.6467 34.8467 48.5 36.1267 48.5C37.4067 48.5 38.26 47.6467 38.26 46.3667C38.26 45.0867 37.4067 44.2333 36.1267 44.2333ZM25.46 44.2333C24.18 44.2333 23.3267 45.0867 23.3267 46.3667C23.3267 47.6467 24.18 48.5 25.46 48.5C26.74 48.5 27.5933 47.6467 27.5933 46.3667C27.5933 45.0867 26.74 44.2333 25.46 44.2333Z" fill="url(#paint0_linear_555_982)"/>
<defs>
<linearGradient id="paint0_linear_555_982" x1="32.7133" y1="19.6985" x2="32.7133" y2="48.5" gradientUnits="userSpaceOnUse">
<stop stop-color="#3E298F"/>
<stop offset="1" stop-color="#644ACB"/>
</linearGradient>
</defs>
</svg>
