<svg width="20" height="22" viewBox="0 0 20 22" fill="none" xmlns="http://www.w3.org/2000/svg">
<path fill-rule="evenodd" clip-rule="evenodd" d="M7.29038 0.394653C5.74858 0.394653 4.49871 1.64452 4.49871 3.18632C4.49871 3.89969 3.92041 4.47799 3.20704 4.47799H2.89818C1.32212 4.47799 -0.0817939 5.69738 0.00371348 7.39114C0.105237 9.40215 0.55189 12.5365 2.18104 15.5054C2.63733 16.337 3.24673 17.1539 3.90549 17.915L3.95509 17.9723C4.90276 19.0673 5.69291 19.9803 6.54238 20.6026C7.45607 21.2719 8.43125 21.6054 9.72755 21.6054C11.0238 21.6054 11.999 21.2719 12.9127 20.6026C13.7622 19.9803 14.5523 19.0673 15.5 17.9723L15.5496 17.915C16.2084 17.1539 16.8178 16.337 17.2741 15.5054C18.9574 12.4378 19.3771 8.97132 19.4599 6.81026C19.5245 5.12464 18.1306 3.89465 16.5457 3.89465H15.9564C15.4041 3.89465 14.9564 3.44694 14.9564 2.89465C14.9564 1.51394 13.8371 0.394653 12.4564 0.394653H7.29038ZM5.99871 3.18632C5.99871 2.47295 6.57701 1.89465 7.29038 1.89465H12.4564C13.0087 1.89465 13.4564 2.34237 13.4564 2.89465C13.4564 4.27537 14.5757 5.39465 15.9564 5.39465H16.5457C17.3834 5.39465 17.9892 6.01776 17.961 6.75284C17.8819 8.81759 17.4793 12.0133 15.959 14.7839C15.5701 15.4927 15.0315 16.2215 14.4154 16.9333C13.4053 18.1003 12.7232 18.8819 12.0262 19.3926C11.3787 19.8669 10.7164 20.1054 9.72755 20.1054C8.73874 20.1054 8.0764 19.8669 7.42885 19.3926C6.73186 18.8819 6.04978 18.1003 5.03966 16.9333C4.42358 16.2215 3.88501 15.4927 3.49607 14.7839C2.01759 12.0894 1.59726 9.20624 1.50181 7.31551C1.46549 6.59614 2.05804 5.97799 2.89818 5.97799H3.20704C4.74884 5.97799 5.99871 4.72811 5.99871 3.18632Z" fill="#2D264B"/>
</svg>
