<svg width="24" height="24" viewBox="0 0 24 24" fill="none" xmlns="http://www.w3.org/2000/svg">
<path d="M13.5 6.49475L17.5 10.4948M3.49976 18.9801V20.4948H5.01448C6.24073 20.4948 6.85386 20.4948 7.40517 20.2664C7.95649 20.0381 8.39003 19.6045 9.25712 18.7374L19.1211 8.87343C20.0037 7.99087 20.4449 7.54958 20.4937 7.008C20.5018 6.91847 20.5018 6.82839 20.4937 6.73886C20.4449 6.19728 20.0037 5.75599 19.1211 4.87343C18.2385 3.99087 17.7972 3.54958 17.2557 3.5008C17.1661 3.49273 17.0761 3.49273 16.9865 3.5008C16.4449 3.54958 16.0037 3.99087 15.1211 4.87343L5.25712 14.7374C4.39003 15.6045 3.95649 16.0381 3.72812 16.5894C3.49976 17.1407 3.49976 17.7538 3.49976 18.9801Z" stroke="#8C8C8C" stroke-width="1.5" stroke-linecap="round" stroke-linejoin="round"/>
</svg>
