<svg width="65" height="65" viewBox="0 0 65 65" fill="none" xmlns="http://www.w3.org/2000/svg">
<rect width="65" height="65" rx="18" fill="#FFECD4"/>
<path fill-rule="evenodd" clip-rule="evenodd" d="M26.536 20.0426C28.2026 19.6133 29.9554 19.653 31.6008 20.1573C33.2462 20.6617 34.7202 21.6112 35.8598 22.9008C36.9994 24.1904 37.7603 25.7699 38.0585 27.4649C38.3567 29.1598 38.1804 30.9042 37.5493 32.5053L43.6813 37.696C44.1464 38.089 44.5248 38.5743 44.7927 39.1211C45.0605 39.6679 45.212 40.2643 45.2374 40.8727C45.2629 41.481 45.1618 42.088 44.9406 42.6553C44.7194 43.2226 44.3828 43.7378 43.9522 44.1683C43.5216 44.5988 43.0064 44.9352 42.439 45.1563C41.8717 45.3774 41.2647 45.4784 40.6563 45.4528C40.048 45.4272 39.4516 45.2756 38.9048 45.0076C38.3581 44.7397 37.8729 44.3611 37.48 43.896L32.292 37.7666C30.6907 38.3988 28.9458 38.5758 27.2502 38.2781C25.5546 37.9804 23.9743 37.2196 22.6841 36.0798C21.3939 34.9401 20.444 33.4657 19.9395 31.8197C19.435 30.1738 19.3955 28.4203 19.8253 26.7533C19.8859 26.5191 20.0085 26.3055 20.1802 26.135C20.3519 25.9646 20.5664 25.8435 20.801 25.7846C21.0357 25.7256 21.2819 25.731 21.5137 25.8001C21.7456 25.8692 21.9546 25.9995 22.1187 26.1773L26.1787 30.5866L29.2413 29.46L30.3707 26.3933L25.9587 22.34C25.7798 22.1759 25.6486 21.9666 25.5789 21.7341C25.5092 21.5017 25.5037 21.2547 25.5628 21.0193C25.622 20.7839 25.7437 20.5689 25.915 20.397C26.0863 20.2251 26.3008 20.1026 26.536 20.0426Z" fill="#FFA629"/>
</svg>
