<svg width="65" height="65" viewBox="0 0 65 65" fill="none" xmlns="http://www.w3.org/2000/svg">
<rect width="65" height="65" rx="18" fill="#E4E7FC"/>
<path d="M42.1987 19.984C42.2666 20.0965 42.3116 20.2213 42.3313 20.3512C42.351 20.4811 42.3448 20.6136 42.3133 20.7411C42.2817 20.8687 42.2253 20.9887 42.1473 21.0945C42.0693 21.2002 41.9712 21.2895 41.8587 21.3573L36.0947 24.8333H41.8333C43.9267 24.8333 45.5 26.6373 45.5 28.7053V41.628C45.5 43.6947 43.9267 45.5 41.8333 45.5H23.1667C21.0733 45.5 19.5 43.696 19.5 41.628V28.7053C19.5 26.6387 21.0733 24.8333 23.1667 24.8333H28.4933L23.1133 21.3387C23.0032 21.2672 22.9082 21.1746 22.8338 21.0664C22.7595 20.9582 22.7071 20.8364 22.6798 20.7079C22.6247 20.4485 22.6749 20.1778 22.8193 19.9553C22.9638 19.7329 23.1907 19.577 23.4501 19.5219C23.7095 19.4667 23.9802 19.5169 24.2027 19.6613L32.1653 24.8333H32.2213L40.8253 19.644C40.9378 19.5761 41.0626 19.531 41.1925 19.5114C41.3224 19.4917 41.4549 19.4978 41.5825 19.5294C41.71 19.561 41.8301 19.6174 41.9358 19.6954C42.0415 19.7734 42.1309 19.8715 42.1987 19.984Z" fill="url(#paint0_linear_555_983)"/>
<defs>
<linearGradient id="paint0_linear_555_983" x1="32.5" y1="19.5" x2="32.5" y2="45.5" gradientUnits="userSpaceOnUse">
<stop stop-color="#2A218A"/>
<stop offset="1" stop-color="#253FE4"/>
</linearGradient>
</defs>
</svg>
