<svg width="24" height="24" viewBox="0 0 24 24" fill="none" xmlns="http://www.w3.org/2000/svg">
<path d="M5.85 17.1C6.7 16.45 7.65 15.9417 8.7 15.575C9.75 15.1917 10.85 15 12 15C13.15 15 14.25 15.1917 15.3 15.575C16.35 15.9417 17.3 16.45 18.15 17.1C18.7333 16.4167 19.1833 15.6417 19.5 14.775C19.8333 13.9083 20 12.9833 20 12C20 9.78333 19.2167 7.9 17.65 6.35C16.1 4.78333 14.2167 4 12 4C9.78333 4 7.89167 4.78333 6.325 6.35C4.775 7.9 4 9.78333 4 12C4 12.9833 4.15833 13.9083 4.475 14.775C4.80833 15.6417 5.26667 16.4167 5.85 17.1ZM12 13C11.0167 13 10.1833 12.6667 9.5 12C8.83333 11.3167 8.5 10.4833 8.5 9.5C8.5 8.51667 8.83333 7.69167 9.5 7.025C10.1833 6.34167 11.0167 6 12 6C12.9833 6 13.8083 6.34167 14.475 7.025C15.1583 7.69167 15.5 8.51667 15.5 9.5C15.5 10.4833 15.1583 11.3167 14.475 12C13.8083 12.6667 12.9833 13 12 13ZM12 22C10.6167 22 9.31667 21.7417 8.1 21.225C6.88333 20.6917 5.825 19.975 4.925 19.075C4.025 18.175 3.30833 17.1167 2.775 15.9C2.25833 14.6833 2 13.3833 2 12C2 10.6167 2.25833 9.31667 2.775 8.1C3.30833 6.88333 4.025 5.825 4.925 4.925C5.825 4.025 6.88333 3.31667 8.1 2.8C9.31667 2.26667 10.6167 2 12 2C13.3833 2 14.6833 2.26667 15.9 2.8C17.1167 3.31667 18.175 4.025 19.075 4.925C19.975 5.825 20.6833 6.88333 21.2 8.1C21.7333 9.31667 22 10.6167 22 12C22 13.3833 21.7333 14.6833 21.2 15.9C20.6833 17.1167 19.975 18.175 19.075 19.075C18.175 19.975 17.1167 20.6917 15.9 21.225C14.6833 21.7417 13.3833 22 12 22ZM12 20C12.8833 20 13.7167 19.875 14.5 19.625C15.2833 19.3583 16 18.9833 16.65 18.5C16 18.0167 15.2833 17.65 14.5 17.4C13.7167 17.1333 12.8833 17 12 17C11.1167 17 10.2833 17.1333 9.5 17.4C8.71667 17.65 8 18.0167 7.35 18.5C8 18.9833 8.71667 19.3583 9.5 19.625C10.2833 19.875 11.1167 20 12 20ZM12 11C12.4333 11 12.7917 10.8583 13.075 10.575C13.3583 10.2917 13.5 9.93333 13.5 9.5C13.5 9.06667 13.3583 8.70833 13.075 8.425C12.7917 8.14167 12.4333 8 12 8C11.5667 8 11.2083 8.14167 10.925 8.425C10.6417 8.70833 10.5 9.06667 10.5 9.5C10.5 9.93333 10.6417 10.2917 10.925 10.575C11.2083 10.8583 11.5667 11 12 11Z" fill="white"/>
</svg>
