<svg width="65" height="65" viewBox="0 0 65 65" fill="none" xmlns="http://www.w3.org/2000/svg">
<rect width="65" height="65" rx="18" fill="#E4E7FC"/>
<path fill-rule="evenodd" clip-rule="evenodd" d="M30.7227 24.6786L30.0533 24.2053C29.0982 23.5293 27.9568 23.1664 26.7867 23.1666H25.9707C25.4307 23.1666 24.8867 23.2 24.3787 23.38C21.2013 24.508 19.016 28.6266 19.1747 37.9706C19.2067 39.8533 19.6467 41.9333 21.3453 42.7453C21.9248 43.0239 22.5597 43.1679 23.2027 43.1666C23.9253 43.1785 24.6353 42.9757 25.2427 42.584C25.7893 42.2266 26.2693 41.7626 26.7493 41.2986C27.3413 40.7253 27.9333 40.152 28.648 39.7813C29.4265 39.3772 30.2909 39.1664 31.168 39.1666H33.8333C34.7107 39.1666 35.5747 39.3773 36.3533 39.78C37.068 40.152 37.66 40.7253 38.2533 41.2986C38.7333 41.7626 39.2133 42.2266 39.7573 42.584C40.2773 42.9253 40.9507 43.1666 41.7987 43.1666C42.4416 43.1679 43.0766 43.0239 43.656 42.7453C45.3547 41.9333 45.7947 39.852 45.8267 37.9706C45.9853 28.6266 43.8 24.508 40.6227 23.3813C40.1133 23.2 39.5667 23.1666 39.0293 23.1666H38.2133C37.0431 23.1668 35.9017 23.5302 34.9467 24.2066L34.2773 24.6786C33.7575 25.0459 33.1366 25.2432 32.5 25.2432C31.8635 25.2432 31.2425 25.0459 30.7227 24.6786ZM38.8333 28.5C39.0986 28.5 39.3529 28.6053 39.5404 28.7929C39.728 28.9804 39.8333 29.2347 39.8333 29.5C39.8333 29.7652 39.728 30.0195 39.5404 30.2071C39.3529 30.3946 39.0986 30.5 38.8333 30.5C38.5681 30.5 38.3138 30.3946 38.1262 30.2071C37.9387 30.0195 37.8333 29.7652 37.8333 29.5C37.8333 29.2347 37.9387 28.9804 38.1262 28.7929C38.3138 28.6053 38.5681 28.5 38.8333 28.5ZM26.5 28.8333C26.7652 28.8333 27.0196 28.9386 27.2071 29.1262C27.3946 29.3137 27.5 29.5681 27.5 29.8333V30.8333H28.5C28.7652 30.8333 29.0196 30.9386 29.2071 31.1262C29.3946 31.3137 29.5 31.5681 29.5 31.8333C29.5 32.0985 29.3946 32.3529 29.2071 32.5404C29.0196 32.7279 28.7652 32.8333 28.5 32.8333H27.5V33.8333C27.5 34.0985 27.3946 34.3529 27.2071 34.5404C27.0196 34.7279 26.7652 34.8333 26.5 34.8333C26.2348 34.8333 25.9804 34.7279 25.7929 34.5404C25.6054 34.3529 25.5 34.0985 25.5 33.8333V32.8333H24.5C24.2348 32.8333 23.9804 32.7279 23.7929 32.5404C23.6054 32.3529 23.5 32.0985 23.5 31.8333C23.5 31.5681 23.6054 31.3137 23.7929 31.1262C23.9804 30.9386 24.2348 30.8333 24.5 30.8333H25.5V29.8333C25.5 29.5681 25.6054 29.3137 25.7929 29.1262C25.9804 28.9386 26.2348 28.8333 26.5 28.8333ZM41.8333 31.5C41.8333 31.7652 41.728 32.0195 41.5404 32.2071C41.3529 32.3946 41.0986 32.5 40.8333 32.5C40.5681 32.5 40.3138 32.3946 40.1262 32.2071C39.9387 32.0195 39.8333 31.7652 39.8333 31.5C39.8333 31.2347 39.9387 30.9804 40.1262 30.7929C40.3138 30.6053 40.5681 30.5 40.8333 30.5C41.0986 30.5 41.3529 30.6053 41.5404 30.7929C41.728 30.9804 41.8333 31.2347 41.8333 31.5ZM36.8333 32.5C37.0986 32.5 37.3529 32.3946 37.5404 32.2071C37.728 32.0195 37.8333 31.7652 37.8333 31.5C37.8333 31.2347 37.728 30.9804 37.5404 30.7929C37.3529 30.6053 37.0986 30.5 36.8333 30.5C36.5681 30.5 36.3138 30.6053 36.1262 30.7929C35.9387 30.9804 35.8333 31.2347 35.8333 31.5C35.8333 31.7652 35.9387 32.0195 36.1262 32.2071C36.3138 32.3946 36.5681 32.5 36.8333 32.5ZM39.8333 33.5C39.8333 33.2347 39.728 32.9804 39.5404 32.7929C39.3529 32.6053 39.0986 32.5 38.8333 32.5C38.5681 32.5 38.3138 32.6053 38.1262 32.7929C37.9387 32.9804 37.8333 33.2347 37.8333 33.5C37.8333 33.7652 37.9387 34.0195 38.1262 34.2071C38.3138 34.3946 38.5681 34.5 38.8333 34.5C39.0986 34.5 39.3529 34.3946 39.5404 34.2071C39.728 34.0195 39.8333 33.7652 39.8333 33.5Z" fill="url(#paint0_linear_555_822)"/>
<defs>
<linearGradient id="paint0_linear_555_822" x1="32.5007" y1="23.1666" x2="32.5007" y2="43.1671" gradientUnits="userSpaceOnUse">
<stop stop-color="#2A218A"/>
<stop offset="1" stop-color="#253FE4"/>
</linearGradient>
</defs>
</svg>
