<svg width="65" height="65" viewBox="0 0 65 65" fill="none" xmlns="http://www.w3.org/2000/svg">
<rect width="65" height="65" rx="18" fill="#EDECFA"/>
<path d="M35.1667 23.1666C35.5118 23.1666 35.8435 23.3004 36.092 23.54L36.208 23.6666L41.14 29.8333H41.8333C42.8536 29.8332 43.8353 30.2231 44.5777 30.923C45.32 31.6229 45.7668 32.5801 45.8267 33.5986L45.8333 33.8333V39.1666C45.8333 39.5202 45.6928 39.8594 45.4428 40.1094C45.1927 40.3595 44.8536 40.5 44.5 40.5H42.9387C42.6626 41.2798 42.1517 41.9548 41.4762 42.4323C40.8007 42.9097 39.9939 43.1661 39.1667 43.1661C38.3395 43.1661 37.5326 42.9097 36.8571 42.4323C36.1816 41.9548 35.6707 41.2798 35.3947 40.5H29.6053C29.3293 41.2798 28.8184 41.9548 28.1429 42.4323C27.4674 42.9097 26.6605 43.1661 25.8333 43.1661C25.0061 43.1661 24.1993 42.9097 23.5238 42.4323C22.8483 41.9548 22.3373 41.2798 22.0613 40.5H20.5C20.1464 40.5 19.8072 40.3595 19.5572 40.1094C19.3071 39.8594 19.1667 39.5202 19.1667 39.1666V31.1666L19.176 31.0106L19.1867 30.936L19.2093 30.832L19.2253 30.784L19.244 30.7173L21.9293 24.0053C22.0282 23.7579 22.1989 23.5457 22.4194 23.3963C22.64 23.2468 22.9002 23.1668 23.1667 23.1666H35.1667ZM25.8333 37.8333C25.4797 37.8333 25.1406 37.9738 24.8905 38.2238C24.6405 38.4739 24.5 38.813 24.5 39.1666C24.5 39.5202 24.6405 39.8594 24.8905 40.1094C25.1406 40.3595 25.4797 40.5 25.8333 40.5C26.1869 40.5 26.5261 40.3595 26.7761 40.1094C27.0262 39.8594 27.1667 39.5202 27.1667 39.1666C27.1667 38.813 27.0262 38.4739 26.7761 38.2238C26.5261 37.9738 26.1869 37.8333 25.8333 37.8333ZM39.1667 37.8333C38.813 37.8333 38.4739 37.9738 38.2238 38.2238C37.9738 38.4739 37.8333 38.813 37.8333 39.1666C37.8333 39.5202 37.9738 39.8594 38.2238 40.1094C38.4739 40.3595 38.813 40.5 39.1667 40.5C39.5203 40.5 39.8594 40.3595 40.1095 40.1094C40.3595 39.8594 40.5 39.5202 40.5 39.1666C40.5 38.813 40.3595 38.4739 40.1095 38.2238C39.8594 37.9738 39.5203 37.8333 39.1667 37.8333ZM31.1667 25.8333H24.068L22.468 29.8333H31.1667V25.8333ZM34.5267 25.8333H33.8333V29.8333H37.7267L34.5267 25.8333Z" fill="url(#paint0_linear_555_2048)"/>
<defs>
<linearGradient id="paint0_linear_555_2048" x1="32.5" y1="23.1666" x2="32.5" y2="43.1661" gradientUnits="userSpaceOnUse">
<stop stop-color="#31279F"/>
<stop offset="1" stop-color="#5C51D5"/>
</linearGradient>
</defs>
</svg>
