<svg width="198" height="161" viewBox="0 0 198 161" fill="none" xmlns="http://www.w3.org/2000/svg">
<path fill-rule="evenodd" clip-rule="evenodd" d="M163.16 86.6777C164.608 86.2258 166.826 84.4542 167.34 82.548C167.806 84.233 169.758 86.2258 171.52 86.3766C169.537 87.0793 167.641 89.1669 167.34 90.8069C167.135 89.1353 164.513 86.9214 163.16 86.6777Z" fill="#EBECEE"/>
<path fill-rule="evenodd" clip-rule="evenodd" d="M14.5757 108.066C15.2997 107.84 16.4086 106.954 16.6654 106.001C16.8983 106.843 17.8743 107.84 18.7551 107.916C17.7638 108.267 16.816 109.311 16.6654 110.131C16.5631 109.295 15.2519 108.188 14.5757 108.066Z" fill="#EBECEE"/>
<path fill-rule="evenodd" clip-rule="evenodd" d="M28.0111 29.6494C28.0111 30.6949 27.1647 31.5417 26.1208 31.5417C25.0764 31.5417 24.2305 30.6949 24.2305 29.6494C24.2305 28.6045 25.0764 27.7572 26.1208 27.7572C27.1647 27.7572 28.0111 28.6045 28.0111 29.6494Z" fill="#D1D8DF"/>
<path fill-rule="evenodd" clip-rule="evenodd" d="M154.237 34.7304C154.237 36.4771 152.822 37.8931 151.078 37.8931C149.332 37.8931 147.918 36.4771 147.918 34.7304C147.918 32.9837 149.332 31.5677 151.078 31.5677C152.822 31.5677 154.237 32.9837 154.237 34.7304Z" fill="#EBECEE"/>
<path fill-rule="evenodd" clip-rule="evenodd" d="M198 26.1615C198 27.5473 196.878 28.6703 195.494 28.6703C194.11 28.6703 192.988 27.5473 192.988 26.1615C192.988 24.7757 194.11 23.6527 195.494 23.6527C196.878 23.6527 198 24.7757 198 26.1615Z" fill="#EBECEE"/>
<path fill-rule="evenodd" clip-rule="evenodd" d="M109.897 116.124H63.7058C60.4547 116.124 57.7934 113.453 57.7934 110.188V44.2666C57.7934 41.002 60.4547 38.3321 63.7058 38.3321H109.897C113.149 38.3321 115.81 41.002 115.81 44.2666V110.188C115.81 113.453 113.149 116.124 109.897 116.124Z" fill="#E0E2EE"/>
<path fill-rule="evenodd" clip-rule="evenodd" d="M105.954 118.942H59.7629C56.5118 118.942 53.8506 116.271 53.8506 113.007V47.0851C53.8506 43.8205 56.5118 41.1507 59.7629 41.1507H105.954C109.206 41.1507 111.867 43.8205 111.867 47.0851V113.007C111.867 116.271 109.206 118.942 105.954 118.942Z" fill="#E8EBF2"/>
<path fill-rule="evenodd" clip-rule="evenodd" d="M102.118 121.167H55.8322C52.5744 121.167 49.9077 118.507 49.9077 115.256V49.6077C49.9077 46.3566 52.5744 43.6979 55.8322 43.6979H102.118C105.378 43.6979 108.044 46.3566 108.044 49.6077V115.256C108.044 118.507 105.378 121.167 102.118 121.167Z" fill="#D8DBEA"/>
<path fill-rule="evenodd" clip-rule="evenodd" d="M102.118 121.167H55.8322C52.5744 121.167 49.9077 118.507 49.9077 115.256V49.6077C49.9077 46.3566 52.5744 43.6979 55.8322 43.6979H102.118C105.378 43.6979 108.044 46.3566 108.044 49.6077V115.256C108.044 118.507 105.378 121.167 102.118 121.167Z" fill="#F1F2F7"/>
<path fill-rule="evenodd" clip-rule="evenodd" d="M95.4468 63.699H61.2588C60.2824 63.699 59.4833 62.9381 59.4833 62.0085C59.4833 61.0777 60.2824 60.3167 61.2588 60.3167H95.4468C96.4231 60.3167 97.2223 61.0777 97.2223 62.0085C97.2223 62.9381 96.4231 63.699 95.4468 63.699Z" fill="#E0E2EE"/>
<path fill-rule="evenodd" clip-rule="evenodd" d="M95.4468 73.8457H61.2588C60.2824 73.8457 59.4833 73.0848 59.4833 72.1552C59.4833 71.2244 60.2824 70.4635 61.2588 70.4635H95.4468C96.4231 70.4635 97.2223 71.2244 97.2223 72.1552C97.2223 73.0848 96.4231 73.8457 95.4468 73.8457Z" fill="#E0E2EE"/>
<path fill-rule="evenodd" clip-rule="evenodd" d="M95.4468 83.9925H61.2588C60.2824 83.9925 59.4833 83.2316 59.4833 82.302C59.4833 81.3724 60.2824 80.6102 61.2588 80.6102H95.4468C96.4231 80.6102 97.2223 81.3724 97.2223 82.302C97.2223 83.2316 96.4231 83.9925 95.4468 83.9925Z" fill="#E0E2EE"/>
<path fill-rule="evenodd" clip-rule="evenodd" d="M95.4468 94.1392H61.2588C60.2824 94.1392 59.4833 93.3783 59.4833 92.4487C59.4833 91.5179 60.2824 90.757 61.2588 90.757H95.4468C96.4231 90.757 97.2223 91.5179 97.2223 92.4487C97.2223 93.3783 96.4231 94.1392 95.4468 94.1392Z" fill="#E0E2EE"/>
<path fill-rule="evenodd" clip-rule="evenodd" d="M79.1044 104.286H61.2664C60.2859 104.286 59.4833 103.525 59.4833 102.595C59.4833 101.665 60.2859 100.904 61.2664 100.904H79.1044C80.0849 100.904 80.8875 101.665 80.8875 102.595C80.8875 103.525 80.0849 104.286 79.1044 104.286Z" fill="#E0E2EE"/>
<path fill-rule="evenodd" clip-rule="evenodd" d="M115.109 91.1723C108.273 98.0127 97.6894 98.7844 90.0059 93.5031C89.024 92.8161 88.0894 92.0444 87.2178 91.1723C86.7692 90.7248 86.3463 90.2629 85.9478 89.7767C85.1508 88.8056 84.4527 87.77 83.8807 86.7C82.873 84.8927 82.1878 82.975 81.8136 80.9928C80.6067 74.7763 82.4114 68.0851 87.2178 63.2772C92.0357 58.4549 98.7229 56.6605 104.936 57.8568C106.915 58.2426 108.833 58.9282 110.639 59.9251C111.71 60.5103 112.731 61.2088 113.703 62.0063C114.187 62.4036 114.649 62.8282 115.096 63.2772C115.969 64.1492 116.752 65.083 117.425 66.067C122.705 73.7536 121.932 84.3448 115.109 91.1723Z" fill="white" fill-opacity="0.1"/>
<path fill-rule="evenodd" clip-rule="evenodd" d="M113.196 89.8251C106.084 96.9441 94.558 96.9428 87.4445 89.8251C80.3402 82.7153 80.3402 71.1792 87.4537 64.0614C94.558 56.9517 106.084 56.9517 113.188 64.0614C120.3 71.1792 120.3 82.7153 113.196 89.8251ZM116.846 60.4044C107.717 51.2682 92.9235 51.2682 83.7944 60.4044C74.6666 69.5393 74.6587 84.3535 83.7865 93.4897C92.095 101.802 105.118 102.552 114.277 95.7268C115.172 95.0592 116.033 94.3109 116.855 93.4897C117.676 92.6672 118.424 91.805 119.089 90.9096C125.909 81.7416 125.153 68.7181 116.846 60.4044Z" fill="#E0E2EE"/>
<path fill-rule="evenodd" clip-rule="evenodd" d="M152.773 127.929L152.39 128.312C149.854 130.851 145.702 130.851 143.165 128.312L119.753 104.882L124.557 100.074L129.361 95.2666L152.773 118.697C155.31 121.236 155.31 125.39 152.773 127.929Z" fill="url(#paint0_linear_548_756)"/>
<path fill-rule="evenodd" clip-rule="evenodd" d="M119.594 90.1933L126.512 97.117L121.601 102.031L114.684 95.1074C115.597 94.4262 116.474 93.6626 117.314 92.8247C118.152 91.9867 118.915 91.1069 119.594 90.1933Z" fill="#E0E2EE"/>
<path fill-rule="evenodd" clip-rule="evenodd" d="M152.423 118.409L147.649 123.185L142.876 127.962L141.157 126.24L150.703 116.688L152.423 118.409Z" fill="url(#paint1_linear_548_756)"/>
<path fill-rule="evenodd" clip-rule="evenodd" d="M129.892 95.5974L120.084 105.413L118.627 103.955L128.435 94.1392L129.892 95.5974Z" fill="url(#paint2_linear_548_756)"/>
<path fill-rule="evenodd" clip-rule="evenodd" d="M108.488 61.6125L84.4341 85.6836C83.5283 84.0588 82.9123 82.3348 82.5773 80.5527L103.361 59.753C105.14 60.1012 106.864 60.7163 108.488 61.6125Z" fill="white" fill-opacity="0.5"/>
<path fill-rule="evenodd" clip-rule="evenodd" d="M116.373 67.334L90.3689 91.8844C89.4377 91.2709 88.5513 90.5803 87.7247 89.7999C87.2992 89.3982 86.8968 88.9861 86.5202 88.551L112.842 63.699C113.302 64.0558 113.74 64.4358 114.164 64.8375C114.991 65.6179 115.735 66.4535 116.373 67.334Z" fill="white" fill-opacity="0.5"/>
<defs>
<linearGradient id="paint0_linear_548_756" x1="99" y1="0" x2="99" y2="161" gradientUnits="userSpaceOnUse">
<stop stop-color="#2A218A"/>
<stop offset="1" stop-color="#2A218A"/>
</linearGradient>
<linearGradient id="paint1_linear_548_756" x1="99" y1="0" x2="99" y2="161" gradientUnits="userSpaceOnUse">
<stop stop-color="#5F50FF"/>
<stop offset="1" stop-color="#2A218A"/>
</linearGradient>
<linearGradient id="paint2_linear_548_756" x1="99" y1="0" x2="99" y2="161" gradientUnits="userSpaceOnUse">
<stop stop-color="#5F50FF"/>
<stop offset="1" stop-color="#2A218A"/>
</linearGradient>
</defs>
</svg>
