<svg width="1137" height="870" viewBox="0 0 1137 870" fill="none" xmlns="http://www.w3.org/2000/svg">
<g id="No Results">
<g id="circle">
<path id="Stroke 1" d="M36.9033 399V408" stroke="#D2D8DF" stroke-width="2.921" stroke-linecap="round"/>
<g id="Group 8">
<path id="Stroke 2" d="M15.2241 403.876L23.1115 411.447" stroke="#D2D8DF" stroke-width="2.921" stroke-linecap="round"/>
<path id="Stroke 4" d="M6 424.029H17.1526" stroke="#D2D8DF" stroke-width="2.921" stroke-linecap="round"/>
<path id="Stroke 6" d="M14.322 444.541L22.2093 436.971" stroke="#D2D8DF" stroke-width="2.921" stroke-linecap="round"/>
</g>
<path id="Stroke 9" d="M36.9033 447V438" stroke="#D2D8DF" stroke-width="2.921" stroke-linecap="round"/>
<path id="Stroke 10" d="M52.9906 441L46.5557 435" stroke="#D2D8DF" stroke-width="2.921" stroke-linecap="round"/>
<path id="Stroke 11" d="M65.8604 426H56.2081" stroke="#D2D8DF" stroke-width="2.921" stroke-linecap="round"/>
<path id="Stroke 12" d="M59.4255 405L52.9905 411" stroke="#D2D8DF" stroke-width="2.921" stroke-linecap="round"/>
<path id="Stroke 13" d="M554.914 6V12" stroke="#D2D8DF" stroke-width="2.921" stroke-linecap="round"/>
<path id="Stroke 15" d="M535.609 24H542.044" stroke="#D2D8DF" stroke-width="2.921" stroke-linecap="round"/>
<path id="Stroke 16" d="M554.914 42V36" stroke="#D2D8DF" stroke-width="2.921" stroke-linecap="round"/>
<path id="Stroke 17" d="M571.001 24H564.567" stroke="#D2D8DF" stroke-width="2.921" stroke-linecap="round"/>
<path id="Stroke 18" d="M181.689 258V267" stroke="#D2D8DF" stroke-width="2.921" stroke-linecap="round"/>
<path id="Stroke 19" d="M152.732 285H162.384" stroke="#D2D8DF" stroke-width="2.921" stroke-linecap="round"/>
<path id="Stroke 20" d="M181.689 309V300" stroke="#D2D8DF" stroke-width="2.921" stroke-linecap="round"/>
<path id="Stroke 21" d="M207.429 285H197.776" stroke="#D2D8DF" stroke-width="2.921" stroke-linecap="round"/>
<g id="Group 42">
<path id="Stroke 22" d="M874.26 585.116C881.949 585.116 888.185 590.932 888.185 598.103C888.185 605.277 881.949 611.09 874.26 611.09C866.57 611.09 860.334 605.277 860.334 598.103" stroke="#D2D8DF" stroke-width="2.921" stroke-linecap="round"/>
<path id="Fill 26" fill-rule="evenodd" clip-rule="evenodd" d="M937.991 467.289C946.259 464.885 958.933 455.456 961.867 445.312C964.527 454.279 975.68 464.885 985.743 465.687C974.415 469.427 963.585 480.537 961.867 489.264C960.698 480.368 945.718 468.586 937.991 467.289Z" fill="#EBECEE"/>
<path id="Fill 28" fill-rule="evenodd" clip-rule="evenodd" d="M89.2604 581.115C93.3959 579.913 99.7302 575.2 101.197 570.128C102.527 574.609 108.102 579.913 113.134 580.315C107.471 582.183 102.057 587.739 101.197 592.103C100.613 587.655 93.1228 581.762 89.2604 581.115Z" fill="#EBECEE"/>
<path id="Fill 30" fill-rule="evenodd" clip-rule="evenodd" d="M166.003 163.791C166.003 169.355 161.169 173.862 155.206 173.862C149.24 173.862 144.408 169.355 144.408 163.791C144.408 158.23 149.24 153.721 155.206 153.721C161.169 153.721 166.003 158.23 166.003 163.791Z" fill="#D1D8DF"/>
<path id="Fill 32" fill-rule="evenodd" clip-rule="evenodd" d="M887.017 190.832C887.017 200.128 878.935 207.663 868.97 207.663C859 207.663 850.92 200.128 850.92 190.832C850.92 181.536 859 174 868.97 174C878.935 174 887.017 181.536 887.017 190.832Z" fill="#EBECEE"/>
<path id="Fill 34" fill-rule="evenodd" clip-rule="evenodd" d="M1137 145.228C1137 152.603 1130.59 158.58 1122.69 158.58C1114.78 158.58 1108.37 152.603 1108.37 145.228C1108.37 137.853 1114.78 131.877 1122.69 131.877C1130.59 131.877 1137 137.853 1137 145.228Z" fill="#EBECEE"/>
<path id="Stroke 36" fill-rule="evenodd" clip-rule="evenodd" d="M367.8 768.802C367.8 773.452 363.76 777.22 358.775 777.22C353.793 777.22 349.753 773.452 349.753 768.802C349.753 764.153 353.793 760.385 358.775 760.385C363.76 760.385 367.8 764.153 367.8 768.802Z" stroke="#D2D8DF" stroke-width="2.921" stroke-linecap="round"/>
<path id="Stroke 38" fill-rule="evenodd" clip-rule="evenodd" d="M362.431 99.0952C362.431 104.659 357.596 109.166 351.633 109.166C345.67 109.166 340.835 104.659 340.835 99.0952C340.835 93.5339 345.67 89.0248 351.633 89.0248C357.596 89.0248 362.431 93.5339 362.431 99.0952Z" stroke="#D2D8DF" stroke-width="2.921" stroke-linecap="round"/>
<path id="Stroke 40" fill-rule="evenodd" clip-rule="evenodd" d="M637.857 862.008C630.957 864.456 623.235 861.223 620.61 854.79C617.985 848.355 621.449 841.151 628.351 838.705C635.248 836.257 642.97 839.487 645.595 845.922C648.223 852.358 644.757 859.559 637.857 862.008Z" stroke="#D2D8DF" stroke-width="2.921" stroke-linecap="round"/>
</g>
</g>
<g id="search">
<g id="documents">
<path id="Fill 1" fill-rule="evenodd" clip-rule="evenodd" d="M633.746 624H369.899C351.328 624 336.127 609.784 336.127 592.41V241.582C336.127 224.209 351.328 210 369.899 210H633.746C652.324 210 667.525 224.209 667.525 241.582V592.41C667.525 609.784 652.324 624 633.746 624Z" fill="#E0E2EE"/>
<path id="Fill 3" fill-rule="evenodd" clip-rule="evenodd" d="M611.224 639H347.377C328.806 639 313.605 624.784 313.605 607.41V256.582C313.605 239.209 328.806 225 347.377 225H611.224C629.802 225 645.003 239.209 645.003 256.582V607.41C645.003 624.784 629.802 639 611.224 639Z" fill="#E8EBF2"/>
<path id="Fill 5" fill-rule="evenodd" clip-rule="evenodd" d="M589.315 650.842H324.923C306.314 650.842 291.081 636.685 291.081 619.383V270.008C291.081 252.706 306.314 238.556 324.923 238.556H589.315C607.932 238.556 623.164 252.706 623.164 270.008V619.383C623.164 636.685 607.932 650.842 589.315 650.842Z" fill="#D8DBEA"/>
<path id="Fill 8" fill-rule="evenodd" clip-rule="evenodd" d="M589.315 650.842H324.923C306.314 650.842 291.081 636.685 291.081 619.383V270.008C291.081 252.706 306.314 238.556 324.923 238.556H589.315C607.932 238.556 623.164 252.706 623.164 270.008V619.383C623.164 636.685 607.932 650.842 589.315 650.842Z" fill="#F1F2F7"/>
<path id="Fill 11" fill-rule="evenodd" clip-rule="evenodd" d="M551.207 345H355.922C350.345 345 345.779 340.951 345.779 336.003C345.779 331.049 350.345 327 355.922 327H551.207C556.784 327 561.349 331.049 561.349 336.003C561.349 340.951 556.784 345 551.207 345Z" fill="#E0E2EE"/>
<path id="Fill 13" fill-rule="evenodd" clip-rule="evenodd" d="M551.207 399H355.922C350.345 399 345.779 394.951 345.779 390.003C345.779 385.049 350.345 381 355.922 381H551.207C556.784 381 561.349 385.049 561.349 390.003C561.349 394.951 556.784 399 551.207 399Z" fill="#E0E2EE"/>
<path id="Fill 15" fill-rule="evenodd" clip-rule="evenodd" d="M551.207 453H355.922C350.345 453 345.779 448.951 345.779 444.003C345.779 439.056 350.345 435 355.922 435H551.207C556.784 435 561.349 439.056 561.349 444.003C561.349 448.951 556.784 453 551.207 453Z" fill="#E0E2EE"/>
<path id="Fill 17" fill-rule="evenodd" clip-rule="evenodd" d="M551.207 507H355.922C350.345 507 345.779 502.951 345.779 498.003C345.779 493.049 350.345 489 355.922 489H551.207C556.784 489 561.349 493.049 561.349 498.003C561.349 502.951 556.784 507 551.207 507Z" fill="#E0E2EE"/>
<path id="Fill 19" fill-rule="evenodd" clip-rule="evenodd" d="M457.858 561H355.965C350.364 561 345.779 556.951 345.779 552.003C345.779 547.049 350.364 543 355.965 543H457.858C463.458 543 468.043 547.049 468.043 552.003C468.043 556.951 463.458 561 457.858 561Z" fill="#E0E2EE"/>
</g>
<g id="search_2">
<path id="Fill 21" fill-rule="evenodd" clip-rule="evenodd" d="M663.52 491.21C624.47 527.614 564.017 531.721 520.128 503.615C514.52 499.958 509.181 495.851 504.202 491.21C501.64 488.829 499.224 486.371 496.948 483.783C492.395 478.615 488.408 473.104 485.14 467.409C479.384 457.791 475.47 447.585 473.333 437.036C466.439 403.952 476.748 368.342 504.202 342.755C531.723 317.091 569.921 307.542 605.408 313.908C616.716 315.962 627.672 319.61 637.989 324.916C644.105 328.03 649.935 331.748 655.487 335.992C658.255 338.106 660.891 340.366 663.446 342.755C668.432 347.396 672.903 352.366 676.752 357.602C706.909 398.51 702.495 454.875 663.52 491.21Z" fill="white" fill-opacity="0.1"/>
<path id="Fill 23" fill-rule="evenodd" clip-rule="evenodd" d="M652.593 484.04C611.967 521.927 546.13 521.92 505.497 484.04C464.917 446.202 464.917 384.808 505.55 346.928C546.13 309.091 611.967 309.091 652.547 346.928C693.173 384.808 693.173 446.202 652.593 484.04ZM673.442 327.467C621.296 278.844 536.794 278.844 484.648 327.467C432.509 376.082 432.463 454.921 484.602 503.543C532.062 547.781 606.449 551.771 658.769 515.449C663.879 511.896 668.801 507.914 673.495 503.543C678.182 499.166 682.453 494.577 686.256 489.813C725.211 441.021 720.894 371.711 673.442 327.467Z" fill="#E0E2EE"/>
<path id="Fill 25" fill-rule="evenodd" clip-rule="evenodd" d="M878.662 686.825L876.473 688.866C861.989 702.378 838.272 702.378 823.781 688.866L690.048 564.172L744.929 513L878.662 637.694C893.153 651.206 893.153 673.313 878.662 686.825Z" fill="url(#paint0_linear_187_168)"/>
<path id="Fill 27" fill-rule="evenodd" clip-rule="evenodd" d="M689.139 486L728.657 522.848L700.602 549L661.091 512.152C666.305 508.527 671.319 504.463 676.117 500.004C680.9 495.545 685.258 490.862 689.139 486Z" fill="#E0E2EE"/>
<path id="Fill 29" fill-rule="evenodd" clip-rule="evenodd" d="M876.66 636.161L822.129 687L812.311 677.839L866.836 627L876.66 636.161Z" fill="#8078DE"/>
<path id="Fill 31" fill-rule="evenodd" clip-rule="evenodd" d="M747.962 514.76L691.937 567L683.613 559.24L739.638 507L747.962 514.76Z" fill="url(#paint1_linear_187_168)"/>
<path id="Fill 33" fill-rule="evenodd" clip-rule="evenodd" d="M625.698 333.896L488.302 462C483.127 453.353 479.609 444.178 477.695 434.694L596.411 324C606.576 325.853 616.424 329.126 625.698 333.896Z" fill="white" fill-opacity="0.5"/>
<path id="Fill 35" fill-rule="evenodd" clip-rule="evenodd" d="M670.743 364.345L522.202 495C516.883 491.735 511.819 488.06 507.098 483.907C504.667 481.769 502.369 479.576 500.218 477.26L650.568 345C653.2 346.899 655.701 348.921 658.124 351.059C662.845 355.212 667.093 359.659 670.743 364.345Z" fill="white" fill-opacity="0.5"/>
</g>
</g>
</g>
<defs>
<linearGradient id="paint0_linear_187_168" x1="789.789" y1="420" x2="604.243" y2="618.995" gradientUnits="userSpaceOnUse">
<stop stop-color="#DBD8F6"/>
<stop offset="1" stop-color="#8078DE"/>
</linearGradient>
<linearGradient id="paint1_linear_187_168" x1="715.787" y1="477" x2="655.934" y2="541.192" gradientUnits="userSpaceOnUse">
<stop stop-color="#DBD8F6"/>
<stop offset="1" stop-color="#8078DE"/>
</linearGradient>
</defs>
</svg>
