<svg width="281" height="280" viewBox="0 0 281 280" fill="none" xmlns="http://www.w3.org/2000/svg">
<path d="M129.516 54.2006C129.516 54.2006 120.81 99.0514 70.7484 100.823C20.687 102.595 6.98781 174.804 57.8082 188.216C108.629 201.628 83.5926 236.339 117.043 243.37C155.062 251.36 155.534 195.114 181.971 194.209C240.32 192.214 270.514 165.491 249.413 143.817C212.372 105.77 193.289 111.903 194.584 81.4977C195.88 51.0926 141.067 17.5607 129.516 54.2006Z" fill="#DBD8F6"/>
<path d="M186.925 86.5009L68.0876 111.027C64.3014 111.808 61.8655 115.511 62.6469 119.297L77.9534 193.463C78.7348 197.249 82.4375 199.685 86.2237 198.904L205.061 174.378C208.847 173.597 211.283 169.894 210.502 166.108L195.195 91.9416C194.414 88.1554 190.711 85.7195 186.925 86.5009Z" fill="#8078DE"/>
<path d="M183.437 95.4055L169.75 98.2302C167.479 98.699 166.017 100.921 166.486 103.192L169.311 116.879C169.779 119.151 172.001 120.612 174.273 120.143L187.959 117.319C190.231 116.85 191.693 114.628 191.224 112.357L188.399 98.6699C187.93 96.3982 185.709 94.9367 183.437 95.4055Z" fill="white"/>
<path d="M128.656 153.178L82.4753 162.709C82.3238 162.74 82.2264 162.889 82.2576 163.04L83.6548 169.81C83.6861 169.961 83.8342 170.059 83.9856 170.027L130.166 160.497C130.318 160.465 130.415 160.317 130.384 160.166L128.987 153.396C128.955 153.245 128.807 153.147 128.656 153.178Z" fill="white"/>
<path d="M151.328 163.232L85.3915 176.84C85.2401 176.871 85.1426 177.019 85.1739 177.171L86.5711 183.94C86.6023 184.092 86.7504 184.189 86.9019 184.158L152.839 170.55C152.99 170.519 153.087 170.371 153.056 170.219L151.659 163.449C151.628 163.298 151.48 163.201 151.328 163.232Z" fill="white"/>
<path d="M208.791 193.613C219.803 193.613 228.731 184.685 228.731 173.673C228.731 162.66 219.803 153.733 208.791 153.733C197.778 153.733 188.851 162.66 188.851 173.673C188.851 184.685 197.778 193.613 208.791 193.613Z" fill="#8078DE" stroke="white" stroke-width="15" stroke-miterlimit="10"/>
<path d="M216.473 172.003H210.794C210.75 172.003 210.707 171.994 210.666 171.977C210.626 171.961 210.589 171.936 210.558 171.905C210.527 171.874 210.502 171.837 210.486 171.797C210.469 171.756 210.46 171.713 210.46 171.669V165.991C210.46 165.548 210.284 165.123 209.971 164.81C209.658 164.497 209.233 164.321 208.79 164.321C208.347 164.321 207.923 164.497 207.609 164.81C207.296 165.123 207.12 165.548 207.12 165.991V171.669C207.12 171.713 207.112 171.756 207.095 171.797C207.078 171.837 207.053 171.874 207.022 171.905C206.991 171.936 206.955 171.961 206.914 171.977C206.874 171.994 206.83 172.003 206.786 172.003H201.109C200.669 172.007 200.248 172.185 199.938 172.497C199.628 172.81 199.454 173.233 199.454 173.673C199.454 174.113 199.628 174.536 199.938 174.848C200.248 175.161 200.669 175.339 201.109 175.343H206.787C206.875 175.343 206.96 175.378 207.023 175.441C207.086 175.503 207.121 175.588 207.121 175.677V181.355C207.121 181.798 207.297 182.222 207.61 182.536C207.923 182.849 208.348 183.025 208.791 183.025C209.234 183.025 209.658 182.849 209.972 182.536C210.285 182.222 210.461 181.798 210.461 181.355V175.677C210.461 175.588 210.496 175.503 210.559 175.441C210.621 175.378 210.706 175.343 210.795 175.343H216.473C216.913 175.339 217.334 175.161 217.644 174.848C217.953 174.536 218.127 174.113 218.127 173.673C218.127 173.233 217.953 172.81 217.644 172.497C217.334 172.185 216.913 172.007 216.473 172.003Z" fill="white"/>
</svg>
