<svg width="96" height="128" viewBox="0 0 96 128" fill="none" xmlns="http://www.w3.org/2000/svg">
<rect y="8" width="96" height="96" rx="48" fill="#EEF1F4"/>
<path d="M28 76C26.625 76 25.4479 75.5104 24.4688 74.5312C23.4896 73.5521 23 72.375 23 71V41C23 39.625 23.4896 38.4479 24.4688 37.4688C25.4479 36.4896 26.625 36 28 36H68C69.375 36 70.5521 36.4896 71.5312 37.4688C72.5104 38.4479 73 39.625 73 41V71C73 72.375 72.5104 73.5521 71.5312 74.5312C70.5521 75.5104 69.375 76 68 76H28ZM28 56H68V46H28V56Z" fill="#FF719B"/>
<rect x="49" y="32" width="28" height="28" rx="14" fill="white"/>
<path d="M59.4 51L63 47.4L66.6 51L68 49.6L64.4 46L68 42.4L66.6 41L63 44.6L59.4 41L58 42.4L61.6 46L58 49.6L59.4 51ZM63 56C61.6167 56 60.3167 55.7375 59.1 55.2125C57.8833 54.6875 56.825 53.975 55.925 53.075C55.025 52.175 54.3125 51.1167 53.7875 49.9C53.2625 48.6833 53 47.3833 53 46C53 44.6167 53.2625 43.3167 53.7875 42.1C54.3125 40.8833 55.025 39.825 55.925 38.925C56.825 38.025 57.8833 37.3125 59.1 36.7875C60.3167 36.2625 61.6167 36 63 36C64.3833 36 65.6833 36.2625 66.9 36.7875C68.1167 37.3125 69.175 38.025 70.075 38.925C70.975 39.825 71.6875 40.8833 72.2125 42.1C72.7375 43.3167 73 44.6167 73 46C73 47.3833 72.7375 48.6833 72.2125 49.9C71.6875 51.1167 70.975 52.175 70.075 53.075C69.175 53.975 68.1167 54.6875 66.9 55.2125C65.6833 55.7375 64.3833 56 63 56Z" fill="#B31B25"/>
</svg>
