<svg width="48" height="48" viewBox="0 0 48 48" fill="none" xmlns="http://www.w3.org/2000/svg">
<rect width="48" height="48" rx="16" fill="#FFF2CE"/>
<path d="M33.5 16.634C33.6347 16.7118 33.7494 16.8199 33.8349 16.9497C33.9205 17.0796 33.9746 17.2276 33.993 17.382L34 17.5V30.5C34 30.6756 33.9538 30.848 33.866 31C33.7782 31.152 33.652 31.2783 33.5 31.366C33.348 31.4538 33.1755 31.5 33 31.5C32.8245 31.5 32.652 31.4538 32.5 31.366C31.3669 30.7118 30.0907 30.3454 28.7831 30.299C27.4756 30.2526 26.1766 30.5277 25 31.1V15.926C26.3814 15.41 27.8598 15.2059 29.3293 15.3283C30.7988 15.4507 32.223 15.8966 33.5 16.634ZM23 15.927L23.001 31.101C21.8708 30.5508 20.6269 30.2747 19.37 30.295C18.1132 30.3154 16.8788 30.6316 15.767 31.218L15.44 31.398L15.337 31.442L15.288 31.458L15.178 31.484L15.117 31.494L15 31.5H14.958L14.848 31.488L14.771 31.474L14.663 31.442L14.537 31.386L14.442 31.33L14.353 31.263L14.293 31.207L14.22 31.125L14.156 31.036L14.134 31L14.102 30.94L14.058 30.837L14.042 30.788L14.016 30.678L14.006 30.617L14.002 30.568L14 17.5C14 17.3245 14.0462 17.1521 14.134 17C14.2217 16.848 14.348 16.7218 14.5 16.634C15.777 15.8968 17.2013 15.4511 18.6708 15.3288C20.1403 15.2066 21.6187 15.4109 23 15.927Z" fill="#FFBE0B"/>
</svg>
