<svg width="48" height="48" viewBox="0 0 48 48" fill="none" xmlns="http://www.w3.org/2000/svg">
<rect width="48" height="48" rx="15" fill="#FFCCE2"/>
<path d="M28.36 25.5C28.44 24.84 28.5 24.18 28.5 23.5C28.5 22.82 28.44 22.16 28.36 21.5H31.74C31.9 22.14 32 22.81 32 23.5C32 24.19 31.9 24.86 31.74 25.5M26.59 31.06C27.19 29.95 27.65 28.75 27.97 27.5H30.92C29.9512 29.1683 28.4141 30.432 26.59 31.06ZM26.34 25.5H21.66C21.56 24.84 21.5 24.18 21.5 23.5C21.5 22.82 21.56 22.15 21.66 21.5H26.34C26.43 22.15 26.5 22.82 26.5 23.5C26.5 24.18 26.43 24.84 26.34 25.5ZM24 31.46C23.17 30.26 22.5 28.93 22.09 27.5H25.91C25.5 28.93 24.83 30.26 24 31.46ZM20 19.5H17.08C18.0386 17.827 19.5747 16.5612 21.4 15.94C20.8 17.05 20.35 18.25 20 19.5ZM17.08 27.5H20C20.35 28.75 20.8 29.95 21.4 31.06C19.5783 30.4323 18.0443 29.1682 17.08 27.5ZM16.26 25.5C16.1 24.86 16 24.19 16 23.5C16 22.81 16.1 22.14 16.26 21.5H19.64C19.56 22.16 19.5 22.82 19.5 23.5C19.5 24.18 19.56 24.84 19.64 25.5M24 15.53C24.83 16.73 25.5 18.07 25.91 19.5H22.09C22.5 18.07 23.17 16.73 24 15.53ZM30.92 19.5H27.97C27.6565 18.2616 27.1931 17.0661 26.59 15.94C28.43 16.57 29.96 17.84 30.92 19.5ZM24 13.5C18.47 13.5 14 18 14 23.5C14 26.1522 15.0536 28.6957 16.9289 30.5711C17.8575 31.4997 18.9599 32.2362 20.1732 32.7388C21.3864 33.2413 22.6868 33.5 24 33.5C26.6522 33.5 29.1957 32.4464 31.0711 30.5711C32.9464 28.6957 34 26.1522 34 23.5C34 22.1868 33.7413 20.8864 33.2388 19.6732C32.7362 18.4599 31.9997 17.3575 31.0711 16.4289C30.1425 15.5003 29.0401 14.7638 27.8268 14.2612C26.6136 13.7587 25.3132 13.5 24 13.5Z" fill="#FF006E"/>
</svg>
