<svg width="20" height="19" viewBox="0 0 20 19" fill="none" xmlns="http://www.w3.org/2000/svg">
<path d="M2.00003 13H18V2H2.00003V13ZM11 15V17H15V19H5.00003V17H9.00003V15H0.992032C0.860709 14.999 0.730878 14.972 0.609953 14.9208C0.489027 14.8696 0.379376 14.7951 0.287259 14.7015C0.195143 14.6079 0.122365 14.497 0.0730828 14.3753C0.0238002 14.2536 -0.00102253 14.1233 3.22575e-05 13.992V1.008C3.22575e-05 0.451 0.455032 0 0.992032 0H19.008C19.556 0 20 0.449 20 1.007V13.992C20 14.549 19.545 15 19.008 15H11Z" fill="#43474E"/>
</svg>
