<svg width="48" height="48" viewBox="0 0 48 48" fill="none" xmlns="http://www.w3.org/2000/svg">
<rect width="48" height="48" rx="15" fill="#FFCCE2"/>
<path d="M20.0093 33.5C19.4593 33.5 18.9884 33.3042 18.5968 32.9125C18.2051 32.5208 18.0093 32.05 18.0093 31.5C18.0093 30.95 18.2051 30.4792 18.5968 30.0875C18.9884 29.6958 19.4593 29.5 20.0093 29.5C20.5593 29.5 21.0301 29.6958 21.4218 30.0875C21.8134 30.4792 22.0093 30.95 22.0093 31.5C22.0093 32.05 21.8134 32.5208 21.4218 32.9125C21.0301 33.3042 20.5593 33.5 20.0093 33.5V33.5M30.0093 33.5C29.4593 33.5 28.9884 33.3042 28.5968 32.9125C28.2051 32.5208 28.0093 32.05 28.0093 31.5C28.0093 30.95 28.2051 30.4792 28.5968 30.0875C28.9884 29.6958 29.4593 29.5 30.0093 29.5C30.5593 29.5 31.0301 29.6958 31.4218 30.0875C31.8134 30.4792 32.0093 30.95 32.0093 31.5C32.0093 32.05 31.8134 32.5208 31.4218 32.9125C31.0301 33.3042 30.5593 33.5 30.0093 33.5V33.5M18.2093 15.5H32.9593C33.3426 15.5 33.6343 15.6708 33.8343 16.0125C34.0343 16.3542 34.0426 16.7 33.8593 17.05L30.3093 23.45C30.1259 23.7833 29.8801 24.0417 29.5718 24.225C29.2634 24.4083 28.9259 24.5 28.5593 24.5H21.1093L20.0093 26.5V26.5V26.5H32.0093V28.5H20.0093C19.2593 28.5 18.6926 28.1708 18.3093 27.5125C17.9259 26.8542 17.9093 26.2 18.2593 25.55L19.6093 23.1L16.0093 15.5H14.0093V13.5H17.2593L18.2093 15.5V15.5" fill="#FF006E"/>
</svg>
