<svg width="48" height="48" viewBox="0 0 48 48" fill="none" xmlns="http://www.w3.org/2000/svg">
<rect width="48" height="48" rx="15" fill="#FFCCE2"/>
<path d="M25.2 15.1C25.2 14.7818 25.0736 14.4765 24.8486 14.2515C24.6235 14.0265 24.3183 13.9 24 13.9C23.6818 13.9 23.3765 14.0265 23.1515 14.2515C22.9265 14.4765 22.8 14.7818 22.8 15.1V16.3C22.8 16.6183 22.9265 16.9235 23.1515 17.1486C23.3765 17.3736 23.6818 17.5 24 17.5C24.3183 17.5 24.6235 17.3736 24.8486 17.1486C25.0736 16.9235 25.2 16.6183 25.2 16.3V15.1ZM30.7884 18.4084C31.007 18.1821 31.128 17.879 31.1252 17.5643C31.1225 17.2497 30.9963 16.9487 30.7738 16.7262C30.5513 16.5038 30.2503 16.3775 29.9357 16.3748C29.6211 16.3721 29.3179 16.493 29.0916 16.7116L28.2432 17.56C28.0246 17.7863 27.9037 18.0895 27.9064 18.4041C27.9092 18.7187 28.0354 19.0197 28.2578 19.2422C28.4803 19.4647 28.7813 19.5909 29.0959 19.5936C29.4106 19.5964 29.7137 19.4754 29.94 19.2568L30.7884 18.4084ZM33.6 23.5C33.6 23.8183 33.4736 24.1235 33.2486 24.3486C33.0235 24.5736 32.7183 24.7 32.4 24.7H31.2C30.8818 24.7 30.5765 24.5736 30.3515 24.3486C30.1265 24.1235 30 23.8183 30 23.5C30 23.1818 30.1265 22.8765 30.3515 22.6515C30.5765 22.4265 30.8818 22.3 31.2 22.3H32.4C32.7183 22.3 33.0235 22.4265 33.2486 22.6515C33.4736 22.8765 33.6 23.1818 33.6 23.5ZM18.06 19.2568C18.1707 19.3714 18.3031 19.4629 18.4495 19.5257C18.5959 19.5886 18.7534 19.6217 18.9127 19.6231C19.0721 19.6245 19.2301 19.5941 19.3776 19.5338C19.525 19.4735 19.659 19.3844 19.7717 19.2717C19.8844 19.159 19.9735 19.025 20.0338 18.8776C20.0941 18.7301 20.1245 18.5721 20.1231 18.4127C20.1217 18.2534 20.0886 18.0959 20.0257 17.9495C19.9629 17.8031 19.8714 17.6707 19.7568 17.56L18.9084 16.7116C18.6821 16.493 18.379 16.3721 18.0643 16.3748C17.7497 16.3775 17.4487 16.5038 17.2262 16.7262C17.0038 16.9487 16.8775 17.2497 16.8748 17.5643C16.8721 17.879 16.993 18.1821 17.2116 18.4084L18.06 19.2568ZM18 23.5C18 23.8183 17.8736 24.1235 17.6486 24.3486C17.4235 24.5736 17.1183 24.7 16.8 24.7H15.6C15.2818 24.7 14.9765 24.5736 14.7515 24.3486C14.5265 24.1235 14.4 23.8183 14.4 23.5C14.4 23.1818 14.5265 22.8765 14.7515 22.6515C14.9765 22.4265 15.2818 22.3 15.6 22.3H16.8C17.1183 22.3 17.4235 22.4265 17.6486 22.6515C17.8736 22.8765 18 23.1818 18 23.5ZM21.6 30.7V29.5H26.4V30.7C26.4 31.3365 26.1472 31.947 25.6971 32.3971C25.247 32.8472 24.6365 33.1 24 33.1C23.3635 33.1 22.7531 32.8472 22.303 32.3971C21.8529 31.947 21.6 31.3365 21.6 30.7ZM26.4 28.3C26.418 27.892 26.6496 27.5248 26.9724 27.2692C27.7556 26.6515 28.327 25.8052 28.607 24.8478C28.887 23.8904 28.8618 22.8696 28.5349 21.9272C28.208 20.9848 27.5957 20.1677 26.7829 19.5894C25.9702 19.011 24.9975 18.7003 24 18.7003C23.0025 18.7003 22.0298 19.011 21.2171 19.5894C20.4044 20.1677 19.792 20.9848 19.4651 21.9272C19.1382 22.8696 19.113 23.8904 19.3931 24.8478C19.6731 25.8052 20.2444 26.6515 21.0276 27.2692C21.3516 27.5248 21.582 27.892 21.5988 28.3H26.4Z" fill="#FF006E"/>
</svg>
