<svg width="32" height="32" viewBox="0 0 32 32" fill="none" xmlns="http://www.w3.org/2000/svg">
<rect width="32" height="32" rx="16" fill="#D8E7FF"/>
<path d="M18.475 19.525L19.525 18.475L16.75 15.7V12.25H15.25V16.3L18.475 19.525V19.525M16 23.5C14.9625 23.5 13.9875 23.3031 13.075 22.9094C12.1625 22.5156 11.3687 21.9812 10.6937 21.3062C10.0187 20.6312 9.48438 19.8375 9.09062 18.925C8.69687 18.0125 8.5 17.0375 8.5 16C8.5 14.9625 8.69687 13.9875 9.09062 13.075C9.48438 12.1625 10.0187 11.3687 10.6937 10.6937C11.3687 10.0187 12.1625 9.48438 13.075 9.09062C13.9875 8.69687 14.9625 8.5 16 8.5C17.0375 8.5 18.0125 8.69687 18.925 9.09062C19.8375 9.48438 20.6312 10.0187 21.3062 10.6937C21.9812 11.3687 22.5156 12.1625 22.9094 13.075C23.3031 13.9875 23.5 14.9625 23.5 16C23.5 17.0375 23.3031 18.0125 22.9094 18.925C22.5156 19.8375 21.9812 20.6312 21.3062 21.3062C20.6312 21.9812 19.8375 22.5156 18.925 22.9094C18.0125 23.3031 17.0375 23.5 16 23.5V23.5M16 16V16V16V16V16V16V16V16V16V16M16 22C17.6625 22 19.0781 21.4156 20.2469 20.2469C21.4156 19.0781 22 17.6625 22 16C22 14.3375 21.4156 12.9219 20.2469 11.7531C19.0781 10.5844 17.6625 10 16 10C14.3375 10 12.9219 10.5844 11.7531 11.7531C10.5844 12.9219 10 14.3375 10 16C10 17.6625 10.5844 19.0781 11.7531 20.2469C12.9219 21.4156 14.3375 22 16 22V22" fill="#3A86FF"/>
</svg>
