<svg width="48" height="48" viewBox="0 0 48 48" fill="none" xmlns="http://www.w3.org/2000/svg">
<rect width="48" height="48" rx="15" fill="#E6D7FB"/>
<path d="M17 22.5L18.5 18H29.5L31 22.5M29.5 27.5C29.1022 27.5 28.7206 27.342 28.4393 27.0607C28.158 26.7794 28 26.3978 28 26C28 25.6022 28.158 25.2206 28.4393 24.9393C28.7206 24.658 29.1022 24.5 29.5 24.5C29.8978 24.5 30.2794 24.658 30.5607 24.9393C30.842 25.2206 31 25.6022 31 26C31 26.3978 30.842 26.7794 30.5607 27.0607C30.2794 27.342 29.8978 27.5 29.5 27.5ZM18.5 27.5C18.1022 27.5 17.7206 27.342 17.4393 27.0607C17.158 26.7794 17 26.3978 17 26C17 25.6022 17.158 25.2206 17.4393 24.9393C17.7206 24.658 18.1022 24.5 18.5 24.5C18.8978 24.5 19.2794 24.658 19.5607 24.9393C19.842 25.2206 20 25.6022 20 26C20 26.3978 19.842 26.7794 19.5607 27.0607C19.2794 27.342 18.8978 27.5 18.5 27.5ZM30.92 17.5C30.72 16.92 30.16 16.5 29.5 16.5H18.5C17.84 16.5 17.28 16.92 17.08 17.5L15 23.5V31.5C15 31.7652 15.1054 32.0196 15.2929 32.2071C15.4804 32.3946 15.7348 32.5 16 32.5H17C17.2652 32.5 17.5196 32.3946 17.7071 32.2071C17.8946 32.0196 18 31.7652 18 31.5V30.5H30V31.5C30 31.7652 30.1054 32.0196 30.2929 32.2071C30.4804 32.3946 30.7348 32.5 31 32.5H32C32.2652 32.5 32.5196 32.3946 32.7071 32.2071C32.8946 32.0196 33 31.7652 33 31.5V23.5L30.92 17.5Z" fill="#8338EC"/>
</svg>
