<svg width="48" height="48" viewBox="0 0 48 48" fill="none" xmlns="http://www.w3.org/2000/svg">
<rect width="48" height="48" rx="15" fill="#E6D7FB"/>
<path fill-rule="evenodd" clip-rule="evenodd" d="M14.586 17.086C14 17.672 14 18.614 14 20.5V26.5C14 28.386 14 29.328 14.586 29.914C15.172 30.5 16.114 30.5 18 30.5H30C31.886 30.5 32.828 30.5 33.414 29.914C34 29.328 34 28.386 34 26.5V20.5C34 18.614 34 17.672 33.414 17.086C32.828 16.5 31.886 16.5 30 16.5H18C16.114 16.5 15.172 16.5 14.586 17.086ZM17 18.5C16.7348 18.5 16.4804 18.6054 16.2929 18.7929C16.1054 18.9804 16 19.2348 16 19.5C16 19.7652 16.1054 20.0196 16.2929 20.2071C16.4804 20.3946 16.7348 20.5 17 20.5H19C19.2652 20.5 19.5196 20.3946 19.7071 20.2071C19.8946 20.0196 20 19.7652 20 19.5C20 19.2348 19.8946 18.9804 19.7071 18.7929C19.5196 18.6054 19.2652 18.5 19 18.5H17ZM28 27.5C28 27.2348 28.1054 26.9804 28.2929 26.7929C28.4804 26.6054 28.7348 26.5 29 26.5H31C31.2652 26.5 31.5196 26.6054 31.7071 26.7929C31.8946 26.9804 32 27.2348 32 27.5C32 27.7652 31.8946 28.0196 31.7071 28.2071C31.5196 28.3946 31.2652 28.5 31 28.5H29C28.7348 28.5 28.4804 28.3946 28.2929 28.2071C28.1054 28.0196 28 27.7652 28 27.5ZM25 23.5C25 23.7652 24.8946 24.0196 24.7071 24.2071C24.5196 24.3946 24.2652 24.5 24 24.5C23.7348 24.5 23.4804 24.3946 23.2929 24.2071C23.1054 24.0196 23 23.7652 23 23.5C23 23.2348 23.1054 22.9804 23.2929 22.7929C23.4804 22.6054 23.7348 22.5 24 22.5C24.2652 22.5 24.5196 22.6054 24.7071 22.7929C24.8946 22.9804 25 23.2348 25 23.5ZM27 23.5C27 24.2956 26.6839 25.0587 26.1213 25.6213C25.5587 26.1839 24.7956 26.5 24 26.5C23.2044 26.5 22.4413 26.1839 21.8787 25.6213C21.3161 25.0587 21 24.2956 21 23.5C21 22.7044 21.3161 21.9413 21.8787 21.3787C22.4413 20.8161 23.2044 20.5 24 20.5C24.7956 20.5 25.5587 20.8161 26.1213 21.3787C26.6839 21.9413 27 22.7044 27 23.5Z" fill="#8338EC"/>
</svg>
