<svg width="54" height="54" viewBox="0 0 54 54" fill="none" xmlns="http://www.w3.org/2000/svg">
<rect width="54" height="54" rx="15" fill="#D8E7FF"/>
<path d="M35.8401 16.68L31.9101 17.46L34.6501 21L36.6201 20.6L35.8401 16.68ZM28.9701 18.04L27.0001 18.43L29.7501 21.96L31.7101 21.57L28.9701 18.04ZM24.0701 19L22.1001 19.41L24.8501 22.94L26.8101 22.55L24.0701 19ZM19.1601 20L18.1801 20.19C17.6604 20.2938 17.2033 20.5996 16.9089 21.0402C16.6145 21.4808 16.5071 22.0202 16.6101 22.54L17.0001 24.5L21.9001 23.53L19.1601 20ZM17.0001 24.5V34.5C17.0001 35.0304 17.2108 35.5391 17.5858 35.9142C17.9609 36.2893 18.4696 36.5 19.0001 36.5H35.0001C36.1101 36.5 37.0001 35.61 37.0001 34.5V24.5H17.0001Z" fill="#3A86FF"/>
</svg>
