<svg width="48" height="48" viewBox="0 0 48 48" fill="none" xmlns="http://www.w3.org/2000/svg">
<rect width="48" height="48" rx="15" fill="#D8E7FF"/>
<path d="M16 29.5C15.45 29.5 14.9793 29.3043 14.588 28.913C14.1967 28.5217 14.0007 28.0507 14 27.5V16.5C14 15.95 14.196 15.4793 14.588 15.088C14.98 14.6967 15.4507 14.5007 16 14.5H32C32.55 14.5 33.021 14.696 33.413 15.088C33.805 15.48 34.0007 15.9507 34 16.5V27.5C34 28.05 33.8043 28.521 33.413 28.913C33.0217 29.305 32.5507 29.5007 32 29.5H16ZM13 32.5V30.5H35V32.5H13Z" fill="#3A86FF"/>
</svg>
