<svg width="70" height="70" viewBox="0 0 70 70" fill="none" xmlns="http://www.w3.org/2000/svg">
<path d="M35.1302 25.3583H29.8125L32.4714 18.9496L35.1302 25.3583ZM38.6282 33.6702H44.6449L35.9979 14.0803H29.1132L20.4655 33.6702H26.3425L27.9658 29.7523H36.9768L38.6282 33.6702ZM64.7104 33.6702H70V14.0803H61.772L57.3781 26.2816L53.0124 14.0803H44.6449V33.6702H49.9341V19.9573L54.9715 33.6702H59.673L64.7104 19.929V33.6702ZM33.3127 51.5694V48.5187H44.3665V44.097H33.3127V41.0468H44.6465V36.513H27.9674V56.1029H44.6465V51.5694H33.3127ZM64.6203 46.2604L70 51.9832V40.5849L64.6203 46.2604ZM62.9774 56.1029H70L60.7104 46.2522L70 36.513H63.0892L57.3527 42.7819L51.671 36.513H44.6468L53.882 46.308L44.6468 56.1029H51.4754L57.2403 49.7782L62.9774 56.1029ZM70 70V58.9082H61.5552L57.2072 54.1006L52.8372 58.9082H24.9937V36.5016H16.007L27.1541 11.2748H37.9044L41.7418 19.9171V11.2748H55.0486L57.3593 17.7873L59.6849 11.2748H70V0H0V70H70Z" fill="white" fill-opacity="0.5"/>
</svg>
