<svg width="48" height="48" viewBox="0 0 48 48" fill="none" xmlns="http://www.w3.org/2000/svg">
<rect width="48" height="48" rx="15" fill="#FEDDCD"/>
<path fill-rule="evenodd" clip-rule="evenodd" d="M34 21.5H14V28.5C14 29.2956 14.3161 30.0587 14.8787 30.6213C15.4413 31.1839 16.2044 31.5 17 31.5H31C31.7956 31.5 32.5587 31.1839 33.1213 30.6213C33.6839 30.0587 34 29.2956 34 28.5V21.5ZM22.586 25.5L22.706 25.379C22.8883 25.1905 22.9893 24.938 22.9872 24.6758C22.9851 24.4136 22.8801 24.1627 22.6948 23.9772C22.5095 23.7916 22.2588 23.6863 21.9966 23.6838C21.7344 23.6814 21.4817 23.782 21.293 23.964L19.464 25.793C19.2765 25.9805 19.1712 26.2348 19.1712 26.5C19.1712 26.7652 19.2765 27.0195 19.464 27.207L21.293 29.035C21.3852 29.1305 21.4956 29.2067 21.6176 29.2591C21.7396 29.3115 21.8708 29.3391 22.0036 29.3403C22.1364 29.3414 22.2681 29.3161 22.391 29.2658C22.5139 29.2155 22.6255 29.1413 22.7194 29.0474C22.8133 28.9535 22.8875 28.8419 22.9378 28.719C22.9881 28.5961 23.0134 28.4644 23.0123 28.3316C23.0111 28.1988 22.9835 28.0676 22.9311 27.9456C22.8787 27.8236 22.8025 27.7132 22.707 27.621L22.586 27.5H27C27.2652 27.5 27.5196 27.3946 27.7071 27.2071C27.8946 27.0196 28 26.7652 28 26.5C28 26.2348 27.8946 25.9804 27.7071 25.7929C27.5196 25.6054 27.2652 25.5 27 25.5H22.586ZM17 15.5C16.2044 15.5 15.4413 15.8161 14.8787 16.3787C14.3161 16.9413 14 17.7044 14 18.5V19.5H34V18.5C34 17.7044 33.6839 16.9413 33.1213 16.3787C32.5587 15.8161 31.7956 15.5 31 15.5H17Z" fill="#FC8951"/>
</svg>
