<svg width="48" height="48" viewBox="0 0 48 48" fill="none" xmlns="http://www.w3.org/2000/svg">
<rect width="48" height="48" rx="15" fill="#D8E7FF"/>
<path d="M16 33.5C15.45 33.5 14.9793 33.3043 14.588 32.913C14.1967 32.5217 14.0007 32.0507 14 31.5V21.5C14 20.95 14.196 20.4793 14.588 20.088C14.98 19.6967 15.4507 19.5007 16 19.5H32C32.55 19.5 33.021 19.696 33.413 20.088C33.805 20.48 34.0007 20.9507 34 21.5V31.5C34 32.05 33.8043 32.521 33.413 32.913C33.0217 33.305 32.5507 33.5007 32 33.5H16ZM22 30.5L28 26.5L22 22.5V30.5ZM16 18.5V16.5H32V18.5H16ZM19 15.5V13.5H29V15.5H19Z" fill="#3A86FF"/>
</svg>
