<svg width="22" height="14" viewBox="0 0 22 14" fill="none" xmlns="http://www.w3.org/2000/svg">
<path d="M21 3C21 2.45 20.55 2 20 2H18V1C18 0.45 17.55 0 17 0H14C13.45 0 13 0.45 13 1V6H9V1C9 0.45 8.55 0 8 0H5C4.45 0 4 0.45 4 1V2H2C1.45 2 1 2.45 1 3V6H0V8H1V11C1 11.55 1.45 12 2 12H4V13C4 13.55 4.45 14 5 14H8C8.55 14 9 13.55 9 13V8H13V13C13 13.55 13.45 14 14 14H17C17.55 14 18 13.55 18 13V12H20C20.55 12 21 11.55 21 11V8H22V6H21V3ZM3 10V4H4V10H3ZM7 12H6V2H7V12ZM16 12H15V2H16V12ZM19 10H18V4H19V10Z" fill="#43474E"/>
</svg>
