<svg width="48" height="48" viewBox="0 0 48 48" fill="none" xmlns="http://www.w3.org/2000/svg">
<rect width="48" height="48" rx="15" fill="#D8E7FF"/>
<g clip-path="url(#clip0_457_362)">
<path d="M34.0641 11.9406C34.2047 12.0859 34.3125 12.25 34.3875 12.4234C34.4625 12.5969 34.5 12.7891 34.5 12.9953V17.5C34.5 18.3297 33.8297 19 33 19C32.1703 19 31.5 18.3297 31.5 17.5V16.6234L26.5594 21.5594C26.0063 22.1125 25.1156 22.15 24.5203 21.6391L20.25 17.9734L15.975 21.6391C15.3469 22.1781 14.4 22.1031 13.8609 21.475C13.3219 20.8469 13.3969 19.9 14.025 19.3609L19.275 14.8609C19.8375 14.3781 20.6672 14.3781 21.2297 14.8609L25.425 18.4562L29.3766 14.5H28.5C27.6703 14.5 27 13.8297 27 13C27 12.1703 27.6703 11.5 28.5 11.5H33C33.4125 11.5 33.7875 11.6688 34.0594 11.9359L34.0641 11.9406ZM12 25.75C12 24.5078 13.0078 23.5 14.25 23.5H33.75C34.9922 23.5 36 24.5078 36 25.75V33.25C36 34.4922 34.9922 35.5 33.75 35.5H14.25C13.0078 35.5 12 34.4922 12 33.25V25.75ZM14.25 31V33.25H16.5C16.5 32.0078 15.4922 31 14.25 31ZM16.5 25.75H14.25V28C15.4922 28 16.5 26.9922 16.5 25.75ZM33.75 31C32.5078 31 31.5 32.0078 31.5 33.25H33.75V31ZM31.5 25.75C31.5 26.9922 32.5078 28 33.75 28V25.75H31.5ZM27 29.5C27 28.7044 26.6839 27.9413 26.1213 27.3787C25.5587 26.8161 24.7956 26.5 24 26.5C23.2044 26.5 22.4413 26.8161 21.8787 27.3787C21.3161 27.9413 21 28.7044 21 29.5C21 30.2956 21.3161 31.0587 21.8787 31.6213C22.4413 32.1839 23.2044 32.5 24 32.5C24.7956 32.5 25.5587 32.1839 26.1213 31.6213C26.6839 31.0587 27 30.2956 27 29.5Z" fill="#3A86FF"/>
</g>
<defs>
<clipPath id="clip0_457_362">
<rect width="24" height="24" fill="white" transform="translate(12 11.5)"/>
</clipPath>
</defs>
</svg>
