<svg width="48" height="48" viewBox="0 0 48 48" fill="none" xmlns="http://www.w3.org/2000/svg">
<rect width="48" height="48" rx="15" fill="#E6D7FB"/>
<path d="M26.883 14.507L26.978 14.5L27.09 14.504L27.203 14.521L27.316 14.551L33.316 16.551C33.4964 16.6111 33.6558 16.7214 33.7757 16.869C33.8956 17.0165 33.971 17.1952 33.993 17.384L34 17.5V22.5C34 22.7449 33.91 22.9813 33.7473 23.1644C33.5845 23.3474 33.3603 23.4643 33.117 23.493L33 23.5H31V30.5C31.0002 31.0046 30.8096 31.4906 30.4665 31.8605C30.1234 32.2305 29.6532 32.4572 29.15 32.495L29 32.5H19C18.4954 32.5002 18.0094 32.3096 17.6395 31.9665C17.2695 31.6234 17.0428 31.1532 17.005 30.65L17 30.5V23.5H15C14.7551 23.5 14.5187 23.41 14.3356 23.2473C14.1526 23.0845 14.0357 22.8602 14.007 22.617L14 22.5V17.5C13.9999 17.3098 14.0541 17.1236 14.1561 16.9631C14.2581 16.8027 14.4038 16.6746 14.576 16.594L14.684 16.551L20.684 14.551C20.8343 14.5009 20.9944 14.4873 21.151 14.5112C21.3077 14.5352 21.4564 14.596 21.5849 14.6887C21.7134 14.7813 21.8181 14.9032 21.8903 15.0443C21.9624 15.1854 22 15.3415 22 15.5C21.9977 16.019 22.1972 16.5185 22.5564 16.8931C22.9156 17.2678 23.4063 17.4881 23.9249 17.5075C24.4436 17.527 24.9494 17.3441 25.3357 16.9975C25.722 16.6509 25.9584 16.1677 25.995 15.65L26.004 15.41L26.021 15.297L26.058 15.163L26.102 15.06L26.152 14.968L26.22 14.875L26.289 14.795C26.3443 14.7417 26.4027 14.695 26.464 14.655L26.56 14.602L26.663 14.558L26.771 14.526L26.883 14.507Z" fill="#8338EC"/>
</svg>
