<svg width="352" height="352" viewBox="0 0 352 352" fill="none" xmlns="http://www.w3.org/2000/svg">
<g filter="url(#filter0_f_493_26)">
<rect x="64" y="64" width="224" height="224" rx="112" fill="#B60055" fill-opacity="0.05"/>
</g>
<g filter="url(#filter1_d_493_26)">
<rect x="80" y="80" width="192" height="192" rx="96" fill="white" shape-rendering="crispEdges"/>
<rect x="80.5" y="80.5" width="191" height="191" rx="95.5" stroke="white" stroke-opacity="0.5" shape-rendering="crispEdges"/>
<path d="M175.912 149.404C181.212 149.404 186.212 150.541 190.912 152.816C195.612 155.091 199.537 158.379 202.687 162.679C203.037 163.129 203.149 163.529 203.024 163.879C202.899 164.229 202.687 164.529 202.387 164.779C202.087 165.029 201.737 165.141 201.337 165.116C200.937 165.091 200.587 164.879 200.287 164.479C197.537 160.579 193.999 157.591 189.674 155.516C185.349 153.441 180.762 152.404 175.912 152.404C171.062 152.404 166.512 153.441 162.262 155.516C158.012 157.591 154.487 160.579 151.687 164.479C151.387 164.929 151.037 165.179 150.637 165.229C150.237 165.279 149.887 165.179 149.587 164.929C149.237 164.679 149.024 164.366 148.949 163.991C148.874 163.616 148.987 163.229 149.287 162.829C152.387 158.579 156.274 155.279 160.949 152.929C165.624 150.579 170.612 149.404 175.912 149.404V149.404M175.912 156.454C182.662 156.454 188.462 158.704 193.312 163.204C198.162 167.704 200.587 173.279 200.587 179.929C200.587 182.429 199.699 184.516 197.924 186.191C196.149 187.866 193.987 188.704 191.437 188.704C188.887 188.704 186.699 187.866 184.874 186.191C183.049 184.516 182.137 182.429 182.137 179.929C182.137 178.279 181.524 176.891 180.299 175.766C179.074 174.641 177.612 174.079 175.912 174.079C174.212 174.079 172.749 174.641 171.524 175.766C170.299 176.891 169.687 178.279 169.687 179.929C169.687 184.779 171.124 188.829 173.999 192.079C176.874 195.329 180.587 197.604 185.137 198.904C185.587 199.054 185.887 199.304 186.037 199.654C186.187 200.004 186.212 200.379 186.112 200.779C186.012 201.129 185.812 201.429 185.512 201.679C185.212 201.929 184.837 202.004 184.387 201.904C179.187 200.604 174.937 198.016 171.637 194.141C168.337 190.266 166.687 185.529 166.687 179.929C166.687 177.429 167.587 175.329 169.387 173.629C171.187 171.929 173.362 171.079 175.912 171.079C178.462 171.079 180.637 171.929 182.437 173.629C184.237 175.329 185.137 177.429 185.137 179.929C185.137 181.579 185.762 182.966 187.012 184.091C188.262 185.216 189.737 185.779 191.437 185.779C193.137 185.779 194.587 185.216 195.787 184.091C196.987 182.966 197.587 181.579 197.587 179.929C197.587 174.129 195.462 169.254 191.212 165.304C186.962 161.354 181.887 159.379 175.987 159.379C170.087 159.379 165.012 161.354 160.762 165.304C156.512 169.254 154.387 174.104 154.387 179.854C154.387 181.054 154.499 182.554 154.724 184.354C154.949 186.154 155.487 188.254 156.337 190.654C156.487 191.104 156.474 191.504 156.299 191.854C156.124 192.204 155.837 192.454 155.437 192.604C155.037 192.754 154.649 192.741 154.274 192.566C153.899 192.391 153.637 192.104 153.487 191.704C152.737 189.754 152.199 187.816 151.874 185.891C151.549 183.966 151.387 181.979 151.387 179.929C151.387 173.279 153.799 167.704 158.624 163.204C163.449 158.704 169.212 156.454 175.912 156.454V156.454M175.912 142.054C179.112 142.054 182.237 142.441 185.287 143.216C188.337 143.991 191.287 145.104 194.137 146.554C194.587 146.804 194.849 147.104 194.924 147.454C194.999 147.804 194.962 148.154 194.812 148.504C194.662 148.854 194.412 149.129 194.062 149.329C193.712 149.529 193.287 149.504 192.787 149.254C190.137 147.904 187.399 146.866 184.574 146.141C181.749 145.416 178.862 145.054 175.912 145.054C173.012 145.054 170.162 145.391 167.362 146.066C164.562 146.741 161.887 147.804 159.337 149.254C158.937 149.504 158.537 149.566 158.137 149.441C157.737 149.316 157.437 149.054 157.237 148.654C157.037 148.254 156.987 147.891 157.087 147.566C157.187 147.241 157.437 146.954 157.837 146.704C160.637 145.204 163.562 144.054 166.612 143.254C169.662 142.454 172.762 142.054 175.912 142.054V142.054M175.912 163.729C180.562 163.729 184.562 165.291 187.912 168.416C191.262 171.541 192.937 175.379 192.937 179.929C192.937 180.379 192.799 180.741 192.524 181.016C192.249 181.291 191.887 181.429 191.437 181.429C191.037 181.429 190.687 181.291 190.387 181.016C190.087 180.741 189.937 180.379 189.937 179.929C189.937 176.179 188.549 173.041 185.774 170.516C182.999 167.991 179.712 166.729 175.912 166.729C172.112 166.729 168.849 167.991 166.124 170.516C163.399 173.041 162.037 176.179 162.037 179.929C162.037 183.979 162.737 187.416 164.137 190.241C165.537 193.066 167.587 195.904 170.287 198.754C170.587 199.054 170.737 199.404 170.737 199.804C170.737 200.204 170.587 200.554 170.287 200.854C169.987 201.154 169.637 201.304 169.237 201.304C168.837 201.304 168.487 201.154 168.187 200.854C165.237 197.754 162.974 194.591 161.399 191.366C159.824 188.141 159.037 184.329 159.037 179.929C159.037 175.379 160.687 171.541 163.987 168.416C167.287 165.291 171.262 163.729 175.912 163.729V163.729M175.837 178.429C176.287 178.429 176.649 178.579 176.924 178.879C177.199 179.179 177.337 179.529 177.337 179.929C177.337 183.679 178.687 186.754 181.387 189.154C184.087 191.554 187.237 192.754 190.837 192.754C191.137 192.754 191.562 192.729 192.112 192.679C192.662 192.629 193.237 192.554 193.837 192.454C194.287 192.354 194.674 192.416 194.999 192.641C195.324 192.866 195.537 193.204 195.637 193.654C195.737 194.054 195.662 194.404 195.412 194.704C195.162 195.004 194.837 195.204 194.437 195.304C193.537 195.554 192.749 195.691 192.074 195.716C191.399 195.741 190.987 195.754 190.837 195.754C186.387 195.754 182.524 194.254 179.249 191.254C175.974 188.254 174.337 184.479 174.337 179.929C174.337 179.529 174.474 179.179 174.749 178.879C175.024 178.579 175.387 178.429 175.837 178.429V178.429" fill="#B60055"/>
</g>
<defs>
<filter id="filter0_f_493_26" x="0" y="0" width="352" height="352" filterUnits="userSpaceOnUse" color-interpolation-filters="sRGB">
<feFlood flood-opacity="0" result="BackgroundImageFix"/>
<feBlend mode="normal" in="SourceGraphic" in2="BackgroundImageFix" result="shape"/>
<feGaussianBlur stdDeviation="32" result="effect1_foregroundBlur_493_26"/>
</filter>
<filter id="filter1_d_493_26" x="30" y="50" width="292" height="292" filterUnits="userSpaceOnUse" color-interpolation-filters="sRGB">
<feFlood flood-opacity="0" result="BackgroundImageFix"/>
<feColorMatrix in="SourceAlpha" type="matrix" values="0 0 0 0 0 0 0 0 0 0 0 0 0 0 0 0 0 0 127 0" result="hardAlpha"/>
<feOffset dy="20"/>
<feGaussianBlur stdDeviation="25"/>
<feComposite in2="hardAlpha" operator="out"/>
<feColorMatrix type="matrix" values="0 0 0 0 0 0 0 0 0 0 0 0 0 0 0 0 0 0 0.06 0"/>
<feBlend mode="normal" in2="BackgroundImageFix" result="effect1_dropShadow_493_26"/>
<feBlend mode="normal" in="SourceGraphic" in2="effect1_dropShadow_493_26" result="shape"/>
</filter>
</defs>
</svg>
