<svg width="48" height="48" viewBox="0 0 48 48" fill="none" xmlns="http://www.w3.org/2000/svg">
<rect width="48" height="48" rx="15" fill="#FEDDCD"/>
<path fill-rule="evenodd" clip-rule="evenodd" d="M24.052 12.75H23.948C23.049 12.75 22.3 12.75 21.706 12.83C21.078 12.914 20.511 13.1 20.056 13.555C19.6 14.011 19.414 14.578 19.33 15.205C19.273 15.632 19.256 16.651 19.252 17.525C17.23 17.592 16.015 17.828 15.172 18.672C14 19.843 14 21.729 14 25.5C14 29.271 14 31.157 15.172 32.328C16.344 33.499 18.229 33.5 22 33.5H26C29.771 33.5 31.657 33.5 32.828 32.328C33.999 31.156 34 29.271 34 25.5C34 21.729 34 19.843 32.828 18.672C31.985 17.828 30.77 17.592 28.748 17.526C28.744 16.651 28.728 15.632 28.67 15.206C28.586 14.578 28.4 14.011 27.944 13.556C27.489 13.1 26.922 12.914 26.294 12.83C25.7 12.75 24.95 12.75 24.052 12.75ZM27.248 17.502C27.243 16.655 27.229 15.744 27.184 15.405C27.121 14.944 27.014 14.746 26.884 14.616C26.754 14.486 26.556 14.379 26.094 14.316C25.612 14.252 24.964 14.25 24 14.25C23.036 14.25 22.388 14.252 21.905 14.317C21.444 14.379 21.246 14.486 21.116 14.617C20.986 14.748 20.879 14.944 20.816 15.405C20.771 15.745 20.756 16.655 20.752 17.502C21.144 17.5 21.56 17.4993 22 17.5H26C26.4413 17.5 26.8573 17.5007 27.248 17.502ZM24 20.75C24.1989 20.75 24.3897 20.829 24.5303 20.9697C24.671 21.1103 24.75 21.3011 24.75 21.5V21.51C25.839 21.784 26.75 22.643 26.75 23.833C26.75 24.0319 26.671 24.2227 26.5303 24.3633C26.3897 24.504 26.1989 24.583 26 24.583C25.8011 24.583 25.6103 24.504 25.4697 24.3633C25.329 24.2227 25.25 24.0319 25.25 23.833C25.25 23.449 24.824 22.917 24 22.917C23.176 22.917 22.75 23.449 22.75 23.833C22.75 24.217 23.176 24.75 24 24.75C25.385 24.75 26.75 25.71 26.75 27.167C26.75 28.357 25.839 29.215 24.75 29.49V29.5C24.75 29.6989 24.671 29.8897 24.5303 30.0303C24.3897 30.171 24.1989 30.25 24 30.25C23.8011 30.25 23.6103 30.171 23.4697 30.0303C23.329 29.8897 23.25 29.6989 23.25 29.5V29.49C22.161 29.216 21.25 28.357 21.25 27.167C21.25 26.9681 21.329 26.7773 21.4697 26.6367C21.6103 26.496 21.8011 26.417 22 26.417C22.1989 26.417 22.3897 26.496 22.5303 26.6367C22.671 26.7773 22.75 26.9681 22.75 27.167C22.75 27.551 23.176 28.083 24 28.083C24.824 28.083 25.25 27.551 25.25 27.167C25.25 26.783 24.824 26.25 24 26.25C22.615 26.25 21.25 25.29 21.25 23.833C21.25 22.643 22.161 21.784 23.25 21.51V21.5C23.25 21.3011 23.329 21.1103 23.4697 20.9697C23.6103 20.829 23.8011 20.75 24 20.75Z" fill="#FC8951"/>
</svg>
