<svg width="34" height="34" viewBox="0 0 34 34" fill="none" xmlns="http://www.w3.org/2000/svg">
<path d="M27.625 6.375C29.1832 6.375 30.4578 7.64982 30.458 9.20801V13.458H21.959L21.8145 13.4502C21.1498 13.3822 20.6178 12.8502 20.5498 12.1855L20.542 12.041C20.5423 11.3108 21.1026 10.7046 21.8145 10.6318L21.959 10.625H22.667V9.20801H21.959L21.6699 9.22266C20.2461 9.36847 19.1253 10.5804 19.125 12.041C19.125 13.5019 20.2459 14.7145 21.6699 14.8604L21.959 14.875H24.084V19.125H21.959L21.7744 19.1289C19.8799 19.222 18.4173 20.7448 18.417 22.666L18.4219 22.8506C18.512 24.6843 19.9407 26.113 21.7744 26.2031L21.959 26.208H23.375V24.791H21.959L21.7363 24.7803C20.7159 24.6817 19.9433 23.9091 19.8447 22.8887L19.834 22.666C19.8343 21.5374 20.6432 20.6573 21.7363 20.5518L21.959 20.541H30.458V24.792C30.4578 26.3502 29.1832 27.625 27.625 27.625H6.375C4.81678 27.625 3.54217 26.3502 3.54199 24.792V20.541H12.042L12.2646 20.5518C13.3575 20.6576 14.1667 21.5376 14.167 22.666L14.1562 22.8887C14.0577 23.9089 13.2847 24.6814 12.2646 24.7803L12.042 24.791H10.625V26.208H12.042C13.9633 26.2078 15.486 24.7452 15.5791 22.8506L15.584 22.666C15.5836 20.6831 14.025 19.1252 12.042 19.125H9.91699V14.875H12.042L12.3311 14.8604C13.7548 14.7142 14.875 13.5017 14.875 12.041C14.8746 10.4831 13.6 9.20819 12.042 9.20801H9.91699V10.625H12.042L12.1865 10.6318C12.8981 10.7049 13.4587 11.311 13.459 12.041L13.4512 12.1855C13.3832 12.85 12.8508 13.3819 12.1865 13.4502L12.042 13.458H3.54199V9.20801C3.54217 7.64982 4.81678 6.375 6.375 6.375H27.625ZM3.54199 14.875H8.5V19.125H3.54199V14.875ZM30.458 19.125H25.5V14.875H30.458V19.125Z" fill="white"/>
</svg>
