<svg width="20" height="20" viewBox="0 0 20 20" fill="none" xmlns="http://www.w3.org/2000/svg">
<path d="M10.8 1.2C10.8 0.88174 10.6736 0.576515 10.4485 0.351472C10.2235 0.126428 9.91826 0 9.6 0C9.28174 0 8.97652 0.126428 8.75147 0.351472C8.52643 0.576515 8.4 0.88174 8.4 1.2V2.4C8.4 2.71826 8.52643 3.02348 8.75147 3.24853C8.97652 3.47357 9.28174 3.6 9.6 3.6C9.91826 3.6 10.2235 3.47357 10.4485 3.24853C10.6736 3.02348 10.8 2.71826 10.8 2.4V1.2ZM16.3884 4.5084C16.607 4.28208 16.7279 3.97895 16.7252 3.66432C16.7225 3.34968 16.5963 3.04871 16.3738 2.82622C16.1513 2.60373 15.8503 2.47753 15.5357 2.47479C15.221 2.47206 14.9179 2.59301 14.6916 2.8116L13.8432 3.66C13.6246 3.88632 13.5037 4.18945 13.5064 4.50408C13.5091 4.81872 13.6353 5.11969 13.8578 5.34218C14.0803 5.56467 14.3813 5.69088 14.6959 5.69361C15.0106 5.69634 15.3137 5.57539 15.54 5.3568L16.3884 4.5084ZM19.2 9.6C19.2 9.91826 19.0736 10.2235 18.8485 10.4485C18.6235 10.6736 18.3183 10.8 18 10.8H16.8C16.4817 10.8 16.1765 10.6736 15.9515 10.4485C15.7264 10.2235 15.6 9.91826 15.6 9.6C15.6 9.28174 15.7264 8.97652 15.9515 8.75147C16.1765 8.52643 16.4817 8.4 16.8 8.4H18C18.3183 8.4 18.6235 8.52643 18.8485 8.75147C19.0736 8.97652 19.2 9.28174 19.2 9.6ZM3.66 5.3568C3.7707 5.47141 3.90311 5.56283 4.04951 5.62572C4.19592 5.68861 4.35338 5.72172 4.51272 5.7231C4.67205 5.72449 4.83007 5.69412 4.97754 5.63379C5.12502 5.57345 5.259 5.48435 5.37167 5.37167C5.48435 5.259 5.57345 5.12502 5.63379 4.97754C5.69412 4.83007 5.72449 4.67205 5.7231 4.51272C5.72172 4.35338 5.68861 4.19592 5.62572 4.04951C5.56283 3.90311 5.47141 3.7707 5.3568 3.66L4.5084 2.8116C4.28208 2.59301 3.97895 2.47206 3.66432 2.47479C3.34968 2.47753 3.04871 2.60373 2.82622 2.82622C2.60373 3.04871 2.47753 3.34968 2.47479 3.66432C2.47206 3.97895 2.59301 4.28208 2.8116 4.5084L3.66 5.3568ZM3.6 9.6C3.6 9.91826 3.47357 10.2235 3.24853 10.4485C3.02348 10.6736 2.71826 10.8 2.4 10.8H1.2C0.88174 10.8 0.576515 10.6736 0.351472 10.4485C0.126428 10.2235 0 9.91826 0 9.6C0 9.28174 0.126428 8.97652 0.351472 8.75147C0.576515 8.52643 0.88174 8.4 1.2 8.4H2.4C2.71826 8.4 3.02348 8.52643 3.24853 8.75147C3.47357 8.97652 3.6 9.28174 3.6 9.6ZM7.2 16.8V15.6H12V16.8C12 17.4365 11.7471 18.047 11.2971 18.4971C10.847 18.9471 10.2365 19.2 9.6 19.2C8.96348 19.2 8.35303 18.9471 7.90294 18.4971C7.45286 18.047 7.2 17.4365 7.2 16.8ZM12 14.4C12.018 13.992 12.2496 13.6248 12.5724 13.3692C13.3556 12.7515 13.9269 11.9052 14.207 10.9478C14.487 9.99042 14.4618 8.96959 14.1349 8.02719C13.808 7.0848 13.1956 6.26765 12.3829 5.68934C11.5702 5.11102 10.5975 4.80027 9.6 4.80027C8.60252 4.80027 7.62981 5.11102 6.81708 5.68934C6.00436 6.26765 5.39199 7.0848 5.06509 8.02719C4.73819 8.96959 4.713 9.99042 4.99303 10.9478C5.27305 11.9052 5.84438 12.7515 6.6276 13.3692C6.9516 13.6248 7.182 13.992 7.1988 14.4H12Z" fill="#43474E"/>
</svg>
