<svg width="40" height="40" viewBox="0 0 40 40" fill="none" xmlns="http://www.w3.org/2000/svg">
<rect width="40" height="40" rx="20" fill="#022448"/>
<path d="M21.6663 20.8334C20.9719 20.8334 20.3816 20.5903 19.8955 20.1042C19.4094 19.6181 19.1663 19.0278 19.1663 18.3334C19.1663 17.6389 19.4094 17.0487 19.8955 16.5625C20.3816 16.0764 20.9719 15.8334 21.6663 15.8334C22.3608 15.8334 22.9511 16.0764 23.4372 16.5625C23.9233 17.0487 24.1663 17.6389 24.1663 18.3334C24.1663 19.0278 23.9233 19.6181 23.4372 20.1042C22.9511 20.5903 22.3608 20.8334 21.6663 20.8334V20.8334M15.833 23.3334C15.3747 23.3334 14.9823 23.1702 14.6559 22.8438C14.3295 22.5174 14.1663 22.125 14.1663 21.6667V15C14.1663 14.5417 14.3295 14.1493 14.6559 13.823C14.9823 13.4966 15.3747 13.3334 15.833 13.3334H27.4997C27.958 13.3334 28.3504 13.4966 28.6768 13.823C29.0031 14.1493 29.1663 14.5417 29.1663 15V21.6667C29.1663 22.125 29.0031 22.5174 28.6768 22.8438C28.3504 23.1702 27.958 23.3334 27.4997 23.3334H15.833V23.3334M17.4997 21.6667H25.833C25.833 21.2084 25.9962 20.816 26.3226 20.4896C26.649 20.1632 27.0413 20 27.4997 20V16.6667C27.0413 16.6667 26.649 16.5035 26.3226 16.1771C25.9962 15.8507 25.833 15.4584 25.833 15H17.4997C17.4997 15.4584 17.3365 15.8507 17.0101 16.1771C16.6837 16.5035 16.2913 16.6667 15.833 16.6667V20C16.2913 20 16.6837 20.1632 17.0101 20.4896C17.3365 20.816 17.4997 21.2084 17.4997 21.6667V21.6667M26.6663 26.6667H12.4997C12.0413 26.6667 11.649 26.5035 11.3226 26.1771C10.9962 25.8507 10.833 25.4584 10.833 25V15.8334H12.4997V25V25V25H26.6663V26.6667V26.6667M15.833 21.6667V21.6667V21.6667V21.6667V15V15V15V15V15V15V21.6667V21.6667V21.6667V21.6667" fill="white"/>
</svg>
