<svg width="32" height="32" viewBox="0 0 32 32" fill="none" xmlns="http://www.w3.org/2000/svg">
<rect width="32" height="32" rx="16" fill="#FFD6E8"/>
<path d="M10.75 23.5C10.3375 23.5 9.98438 23.3531 9.69063 23.0594C9.39688 22.7656 9.25 22.4125 9.25 22V11.5C9.25 11.0875 9.39688 10.7344 9.69063 10.4406C9.98438 10.1469 10.3375 10 10.75 10H11.5V8.5H13V10H19V8.5H20.5V10H21.25C21.6625 10 22.0156 10.1469 22.3094 10.4406C22.6031 10.7344 22.75 11.0875 22.75 11.5V22C22.75 22.4125 22.6031 22.7656 22.3094 23.0594C22.0156 23.3531 21.6625 23.5 21.25 23.5H10.75V23.5M10.75 22H21.25V22V22V14.5H10.75V22V22V22V22M10.75 13H21.25V11.5V11.5V11.5H10.75V11.5V11.5V13V13M10.75 13V11.5V11.5V11.5V11.5V11.5V11.5V13V13V13" fill="#FF006E"/>
</svg>
