<svg width="48" height="48" viewBox="0 0 48 48" fill="none" xmlns="http://www.w3.org/2000/svg">
<rect width="48" height="48" rx="15" fill="#FFF2CE"/>
<path d="M32.57 26.36L34 24.93L32.57 23.5L29 27.07L20.43 18.5L24 14.93L22.57 13.5L21.14 14.93L19.71 13.5L17.57 15.64L16.14 14.21L14.71 15.64L16.14 17.07L14 19.21L15.43 20.64L14 22.07L15.43 23.5L19 19.93L27.57 28.5L24 32.07L25.43 33.5L26.86 32.07L28.29 33.5L30.43 31.36L31.86 32.79L33.29 31.36L31.86 29.93L34 27.79L32.57 26.36Z" fill="#FFBE0B"/>
</svg>
