<svg width="416" height="416" viewBox="0 0 416 416" fill="none" xmlns="http://www.w3.org/2000/svg">
<g filter="url(#filter0_f_452_1481)">
<rect x="64" y="64" width="288" height="288" rx="96" fill="#B60055" fill-opacity="0.1"/>
</g>
<g filter="url(#filter1_d_452_1481)">
<rect x="117.16" y="107.11" width="192" height="192" rx="48" transform="rotate(3 117.16 107.11)" fill="white" shape-rendering="crispEdges"/>
<rect x="117.633" y="107.635" width="191" height="191" rx="47.5" transform="rotate(3 117.633 107.635)" stroke="white" stroke-opacity="0.4" shape-rendering="crispEdges"/>
<path d="M156.292 246.012C160.29 255.769 166.81 257.8 171.393 255.769C180.258 251.841 203.285 247.453 226.935 257.768C258.258 271.43 264.923 250.817 254.926 229.967C244.93 209.117 241.541 188.032 253.065 176.415C264.59 164.798 249.509 146.626 222.727 165.542C205.42 177.767 192.718 175.045 185.898 171.589C179.469 168.332 172.32 164.927 165.622 167.585C157.495 170.812 154.293 177.806 166.658 193.432C184.18 215.574 147.329 224.141 156.292 246.012Z" fill="#FFCCE2"/>
<path d="M172.572 198.481L234.799 198.481L234.799 246.338C234.799 246.435 234.761 246.529 234.692 246.598C234.623 246.667 234.529 246.705 234.432 246.705L172.94 246.705C172.842 246.705 172.749 246.667 172.68 246.598C172.611 246.529 172.572 246.435 172.572 246.338L172.572 198.481Z" fill="#FF66A8"/>
<path d="M219.189 179.728L190.254 179.728L172.572 198.481L234.799 198.481L219.189 179.728Z" fill="#CC0058"/>
<path d="M178.466 172.226L190.254 179.728L172.572 198.481L159.176 188.301L178.466 172.226Z" fill="#FF006E"/>
<path d="M230.977 172.226L219.189 179.728L234.799 198.481L250.266 188.301L230.977 172.226Z" fill="#FF006E"/>
<path d="M197.856 172.61C198.188 172.452 198.447 172.172 198.578 171.828C198.709 171.484 198.702 171.102 198.558 170.763L193.255 158.259C193.18 158.082 193.07 157.922 192.931 157.788C192.793 157.655 192.629 157.551 192.449 157.482C192.269 157.414 192.077 157.383 191.885 157.39C191.693 157.398 191.504 157.444 191.33 157.527L190.309 158.011C190.135 158.094 189.979 158.21 189.852 158.354C189.724 158.498 189.627 158.667 189.566 158.849C189.505 159.032 189.482 159.224 189.498 159.416C189.513 159.608 189.568 159.795 189.657 159.965L195.982 171.985C196.153 172.311 196.444 172.558 196.793 172.674C197.142 172.79 197.523 172.767 197.856 172.61Z" fill="#FF006E"/>
<path d="M204.504 171.397C204.745 171.38 204.97 171.271 205.132 171.092C205.294 170.913 205.38 170.678 205.373 170.437L205.111 161.535C205.108 161.409 205.078 161.285 205.026 161.17C204.973 161.056 204.897 160.953 204.804 160.868C204.71 160.784 204.6 160.719 204.481 160.678C204.362 160.637 204.235 160.62 204.11 160.629L203.37 160.682C203.244 160.691 203.122 160.725 203.009 160.782C202.897 160.84 202.798 160.92 202.717 161.017C202.636 161.114 202.576 161.226 202.54 161.347C202.504 161.468 202.493 161.594 202.507 161.72L203.508 170.569C203.535 170.809 203.654 171.029 203.84 171.184C204.025 171.338 204.264 171.415 204.504 171.397V171.397Z" fill="#FF006E"/>
<path d="M209.637 174.688C210.299 175.071 211.229 174.72 211.744 173.892L220.9 159.188C221.447 158.309 221.317 157.239 220.615 156.833L219.636 156.267C218.934 155.86 217.941 156.282 217.453 157.194L209.276 172.464C208.816 173.324 208.975 174.305 209.637 174.688Z" fill="#FF006E"/>
</g>
<defs>
<filter id="filter0_f_452_1481" x="0" y="0" width="416" height="416" filterUnits="userSpaceOnUse" color-interpolation-filters="sRGB">
<feFlood flood-opacity="0" result="BackgroundImageFix"/>
<feBlend mode="normal" in="SourceGraphic" in2="BackgroundImageFix" result="shape"/>
<feGaussianBlur stdDeviation="32" result="effect1_foregroundBlur_452_1481"/>
</filter>
<filter id="filter1_d_452_1481" x="57.1115" y="77.11" width="301.785" height="301.785" filterUnits="userSpaceOnUse" color-interpolation-filters="sRGB">
<feFlood flood-opacity="0" result="BackgroundImageFix"/>
<feColorMatrix in="SourceAlpha" type="matrix" values="0 0 0 0 0 0 0 0 0 0 0 0 0 0 0 0 0 0 127 0" result="hardAlpha"/>
<feOffset dy="20"/>
<feGaussianBlur stdDeviation="25"/>
<feComposite in2="hardAlpha" operator="out"/>
<feColorMatrix type="matrix" values="0 0 0 0 0 0 0 0 0 0 0 0 0 0 0 0 0 0 0.05 0"/>
<feBlend mode="normal" in2="BackgroundImageFix" result="effect1_dropShadow_452_1481"/>
<feBlend mode="normal" in="SourceGraphic" in2="effect1_dropShadow_452_1481" result="shape"/>
</filter>
</defs>
</svg>
